<svg xmlns="http://www.w3.org/2000/svg" xmlns:xlink="http://www.w3.org/1999/xlink" width="500" zoomAndPan="magnify" viewBox="0 0 375 374.999991" height="500" preserveAspectRatio="xMidYMid meet" version="1.0"><defs><filter x="0%" y="0%" width="100%" height="100%" id="dc0212f89c"><feColorMatrix values="0 0 0 0 1 0 0 0 0 1 0 0 0 0 1 0 0 0 1 0" color-interpolation-filters="sRGB"/></filter><mask id="79b8d01ca9"><g filter="url(#dc0212f89c)"><rect x="-37.5" width="450" fill="#000000" y="-37.499999" height="449.999989" fill-opacity="0.3"/></g></mask><clipPath id="1e642549b6"><path d="M 0.601562 7 L 236 7 L 236 242.398438 L 0.601562 242.398438 Z M 0.601562 7 " clip-rule="nonzero"/></clipPath><clipPath id="af477a4792"><rect x="0" width="243" y="0" height="243"/></clipPath></defs><rect x="-37.5" width="450" fill="#ffffff" y="-37.499999" height="449.999989" fill-opacity="1"/><rect x="-37.5" width="450" fill="#d7dedc" y="-37.499999" height="449.999989" fill-opacity="1"/><g mask="url(#79b8d01ca9)"><g transform="matrix(1, 0, 0, 1, 15, 78)"><g clip-path="url(#af477a4792)"><g clip-path="url(#1e642549b6)"><path fill="#595959" d="M 191.429688 100.429688 C 210.875 147.601562 181.203125 174.40625 148.210938 194.179688 C 111.851562 216.023438 59.335938 242.3125 59.335938 242.3125 L 29.976562 212.960938 L 0.625 183.601562 C 0.625 183.601562 26.914062 131.085938 48.734375 94.726562 C 68.53125 61.734375 95.335938 32.0625 142.484375 51.507812 L 157.15625 7.476562 L 235.4375 85.757812 Z M 191.429688 100.429688 " fill-opacity="1" fill-rule="nonzero"/></g></g></g></g><path stroke-linecap="butt" transform="matrix(7.8125, 0, 0, 7.8125, 0.0000045, 0)" fill="none" stroke-linejoin="miter" d="M 26.422999 22.839 L 23.917999 20.335 " stroke="#f7f7f7" stroke-width="2" stroke-opacity="1" stroke-miterlimit="10"/><path stroke-linecap="butt" transform="matrix(7.8125, 0, 0, 7.8125, 0.0000045, 0)" fill="none" stroke-linejoin="miter" d="M 26.422999 22.839 C 28.911999 28.877 25.113999 32.307999 20.890999 34.838999 C 16.236999 37.634999 9.514999 40.999999 9.514999 40.999999 L 5.756999 37.242999 L 1.999999 33.484999 C 1.999999 33.484999 5.364999 26.763 8.157999 22.109 C 10.691999 17.886 14.122999 14.088 20.157999 16.577 L 22.035999 10.941 L 32.055999 20.961 Z M 26.422999 22.839 " stroke="#f7f7f7" stroke-width="2" stroke-opacity="1" stroke-miterlimit="10"/><path stroke-linecap="butt" transform="matrix(7.8125, 0, 0, 7.8125, 0.0000045, 0)" fill="none" stroke-linejoin="miter" d="M 26.999999 12 C 26.999999 11.836 27.007999 11.673 27.023999 11.51 C 27.039999 11.347 27.063999 11.185 27.095999 11.0245 C 27.127999 10.864 27.167999 10.7055 27.215499 10.5485 C 27.262999 10.392 27.317999 10.238 27.380499 10.0865 C 27.443499 9.9355 27.512999 9.7875 27.590499 9.643 C 27.667499 9.4985 27.751499 9.3585 27.842499 9.222 C 27.933499 9.086 28.030999 8.9545 28.134999 8.828 C 28.238999 8.7015 28.348499 8.5805 28.464499 8.4645 C 28.580499 8.3485 28.701499 8.239 28.827999 8.135 C 28.954499 8.031 29.085999 7.9335 29.221999 7.8425 C 29.358499 7.7515 29.498499 7.6675 29.642999 7.5905 C 29.787499 7.513 29.935499 7.4435 30.086499 7.3805 C 30.237999 7.318 30.391999 7.263 30.548499 7.2155 C 30.705499 7.168 30.863999 7.128 31.024499 7.096 C 31.184999 7.064 31.346999 7.04 31.509999 7.024 C 31.672999 7.008 31.835999 7 31.999999 7 C 32.163999 7 32.326999 7.008 32.489999 7.024 C 32.652999 7.04 32.814999 7.064 32.975499 7.096 C 33.135999 7.128 33.294499 7.168 33.451499 7.2155 C 33.607999 7.263 33.761999 7.318 33.913499 7.3805 C 34.064499 7.4435 34.212499 7.513 34.356999 7.5905 C 34.501499 7.6675 34.641499 7.7515 34.777999 7.8425 C 34.913999 7.9335 35.045499 8.031 35.171999 8.135 C 35.298499 8.239 35.419499 8.3485 35.535499 8.4645 C 35.651499 8.5805 35.760999 8.7015 35.864999 8.828 C 35.968999 8.9545 36.066499 9.086 36.157499 9.222 C 36.248499 9.3585 36.332499 9.4985 36.409499 9.643 C 36.486999 9.7875 36.556499 9.9355 36.619499 10.0865 C 36.681999 10.238 36.736999 10.392 36.784499 10.5485 C 36.831999 10.7055 36.871999 10.864 36.903999 11.0245 C 36.935999 11.185 36.959999 11.347 36.975999 11.51 C 36.991999 11.673 36.999999 11.836 36.999999 12 L 36.999999 36.999999 C 36.999999 37.163999 37.007999 37.326999 37.023999 37.489999 C 37.039999 37.652999 37.063999 37.814999 37.095999 37.975499 C 37.127999 38.135999 37.167999 38.294499 37.215499 38.451499 C 37.262999 38.607999 37.317999 38.761999 37.380499 38.913499 C 37.443499 39.064499 37.512999 39.212499 37.590499 39.356999 C 37.667499 39.501499 37.751499 39.641499 37.842499 39.777999 C 37.933499 39.913999 38.030999 40.045499 38.134999 40.171999 C 38.238999 40.298499 38.348499 40.419499 38.464499 40.535499 C 38.580499 40.651499 38.701499 40.760999 38.827999 40.864999 C 38.954499 40.968999 39.085999 41.066499 39.221999 41.157499 C 39.358499 41.248499 39.498499 41.332499 39.642999 41.409499 C 39.787499 41.486999 39.935499 41.556499 40.086499 41.619499 C 40.237999 41.681999 40.391999 41.736999 40.548499 41.784499 C 40.705499 41.831999 40.863999 41.871999 41.024499 41.903999 C 41.184999 41.935999 41.346999 41.959999 41.509999 41.975999 C 41.672999 41.991999 41.835999 41.999999 41.999999 41.999999 C 42.163999 41.999999 42.326999 41.991999 42.489999 41.975999 C 42.652999 41.959999 42.814999 41.935999 42.975499 41.903999 C 43.135999 41.871999 43.294499 41.831999 43.451499 41.784499 C 43.607999 41.736999 43.761999 41.681999 43.913499 41.619499 C 44.064499 41.556499 44.212499 41.486999 44.356999 41.409499 C 44.501499 41.332499 44.641499 41.248499 44.777999 41.157499 C 44.913999 41.066499 45.045499 40.968999 45.171999 40.864999 C 45.298499 40.760999 45.419499 40.651499 45.535499 40.535499 C 45.651499 40.419499 45.760999 40.298499 45.864999 40.171999 C 45.968999 40.045499 46.066499 39.913999 46.157499 39.777999 C 46.248499 39.641499 46.332499 39.501499 46.409499 39.356999 C 46.486999 39.212499 46.556499 39.064499 46.619499 38.913499 C 46.681999 38.761999 46.736999 38.607999 46.784499 38.451499 C 46.831999 38.294499 46.871999 38.135999 46.903999 37.975499 C 46.935999 37.814999 46.959999 37.652999 46.975999 37.489999 C 46.991999 37.326999 46.999999 37.163999 46.999999 36.999999 C 46.999999 36.835999 46.991999 36.672999 46.975999 36.509999 C 46.959999 36.346999 46.935999 36.184999 46.903999 36.024499 C 46.871999 35.863999 46.831999 35.705499 46.784499 35.548499 C 46.736999 35.391999 46.681999 35.237999 46.619499 35.086499 C 46.556499 34.935499 46.486999 34.787499 46.409499 34.642999 C 46.332499 34.498499 46.248499 34.358499 46.157499 34.221999 C 46.066499 34.085999 45.968999 33.954499 45.864999 33.827999 C 45.760999 33.701499 45.651499 33.580499 45.535499 33.464499 C 45.419499 33.348499 45.298499 33.238999 45.171999 33.134999 C 45.045499 33.030999 44.913999 32.933499 44.777999 32.842499 C 44.641499 32.751499 44.501499 32.667499 44.356999 32.590499 C 44.212499 32.512999 44.064499 32.443499 43.913499 32.380499 C 43.761999 32.317999 43.607999 32.262999 43.451499 32.215499 C 43.294499 32.167999 43.135999 32.127999 42.975499 32.095999 C 42.814999 32.063999 42.652999 32.039999 42.489999 32.023999 C 42.326999 32.007999 42.163999 31.999999 41.999999 31.999999 " stroke="#f7f7f7" stroke-width="2" stroke-opacity="1" stroke-miterlimit="10"/><path stroke-linecap="butt" transform="matrix(7.8125, 0, 0, 7.8125, 0.0000045, 0)" fill="none" stroke-linejoin="miter" d="M 35.999999 5 C 36.163999 5 36.326999 5.008 36.489999 5.024 C 36.652999 5.04 36.814999 5.064 36.975499 5.096 C 37.135999 5.128 37.294499 5.168 37.451499 5.2155 C 37.607999 5.263 37.761999 5.318 37.913499 5.3805 C 38.064499 5.4435 38.212499 5.513 38.356999 5.5905 C 38.501499 5.6675 38.641499 5.7515 38.777999 5.8425 C 38.913999 5.9335 39.045499 6.031 39.171999 6.135 C 39.298499 6.239 39.419499 6.3485 39.535499 6.4645 C 39.651499 6.5805 39.760999 6.7015 39.864999 6.828 C 39.968999 6.9545 40.066499 7.086 40.157499 7.222 C 40.248499 7.3585 40.332499 7.4985 40.409499 7.643 C 40.486999 7.7875 40.556499 7.9355 40.619499 8.0865 C 40.681999 8.238 40.736999 8.392 40.784499 8.5485 C 40.831999 8.7055 40.871999 8.864 40.903999 9.0245 C 40.935999 9.185 40.959999 9.347 40.975999 9.51 C 40.991999 9.673 40.999999 9.836 40.999999 10 L 40.999999 28 " stroke="#f7f7f7" stroke-width="2" stroke-opacity="1" stroke-miterlimit="10"/><path stroke-linecap="butt" transform="matrix(7.8125, 0, 0, 7.8125, 0.0000045, 0)" fill="none" stroke-linejoin="miter" d="M 29.999999 35.999999 C 29.901499 35.999999 29.803499 36.004999 29.705999 36.014499 C 29.607999 36.023999 29.510999 36.038499 29.414499 36.057499 C 29.318499 36.076999 29.222999 36.100499 29.128999 36.128999 C 29.034999 36.157499 28.942499 36.190999 28.851999 36.228499 C 28.760999 36.265999 28.672499 36.307999 28.585999 36.353999 C 28.498999 36.400499 28.414999 36.450999 28.333499 36.505499 C 28.251499 36.559999 28.172999 36.618499 28.096999 36.680999 C 28.020999 36.743499 27.947999 36.808999 27.878499 36.878499 C 27.808999 36.947999 27.743499 37.020999 27.680999 37.096999 C 27.618499 37.172999 27.559999 37.251499 27.505499 37.333499 C 27.450999 37.414999 27.400499 37.498999 27.353999 37.585999 C 27.307999 37.672499 27.265999 37.760999 27.228499 37.851999 C 27.190999 37.942499 27.157499 38.034999 27.128999 38.128999 C 27.100499 38.222999 27.076999 38.318499 27.057499 38.414499 C 27.038499 38.510999 27.023999 38.607999 27.014499 38.705999 C 27.004999 38.803499 26.999999 38.901499 26.999999 38.999999 C 26.999999 39.098499 27.004999 39.196499 27.014499 39.293999 C 27.023999 39.391999 27.038499 39.488999 27.057499 39.585499 C 27.076999 39.681499 27.100499 39.776999 27.128999 39.870999 C 27.157499 39.964999 27.190999 40.057499 27.228499 40.147999 C 27.265999 40.238999 27.307999 40.327499 27.353999 40.413999 C 27.400499 40.500999 27.450999 40.584999 27.505499 40.666499 C 27.559999 40.748499 27.618499 40.826999 27.680999 40.902999 C 27.743499 40.978999 27.808999 41.051999 27.878499 41.121499 C 27.947999 41.190999 28.020999 41.256499 28.096999 41.318999 C 28.172999 41.381499 28.251499 41.439999 28.333499 41.494499 C 28.414999 41.548999 28.498999 41.599499 28.585999 41.645999 C 28.672499 41.691999 28.760999 41.733999 28.851999 41.771499 C 28.942499 41.808999 29.034999 41.842499 29.128999 41.870999 C 29.222999 41.899499 29.318499 41.922999 29.414499 41.942499 C 29.510999 41.961499 29.607999 41.975999 29.705999 41.985499 C 29.803499 41.994999 29.901499 41.999999 29.999999 41.999999 C 30.098499 41.999999 30.196499 41.994999 30.293999 41.985499 C 30.391999 41.975999 30.488999 41.961499 30.585499 41.942499 C 30.681499 41.922999 30.776999 41.899499 30.870999 41.870999 C 30.964999 41.842499 31.057499 41.808999 31.147999 41.771499 C 31.238999 41.733999 31.327499 41.691999 31.413999 41.645999 C 31.500999 41.599499 31.584999 41.548999 31.666499 41.494499 C 31.748499 41.439999 31.826999 41.381499 31.902999 41.318999 C 31.978999 41.256499 32.051999 41.190999 32.121499 41.121499 C 32.190999 41.051999 32.256499 40.978999 32.318999 40.902999 C 32.381499 40.826999 32.439999 40.748499 32.494499 40.666499 C 32.548999 40.584999 32.599499 40.500999 32.645999 40.413999 C 32.691999 40.327499 32.733999 40.238999 32.771499 40.147999 C 32.808999 40.057499 32.842499 39.964999 32.870999 39.870999 C 32.899499 39.776999 32.922999 39.681499 32.942499 39.585499 C 32.961499 39.488999 32.975999 39.391999 32.985499 39.293999 C 32.994999 39.196499 32.999999 39.098499 32.999999 38.999999 L 32.999999 27 " stroke="#f7f7f7" stroke-width="2" stroke-opacity="1" stroke-miterlimit="10"/><path fill="#595959" d="M 62.5 93.75 C 62.5 94.261719 62.449219 94.769531 62.351562 95.273438 C 62.25 95.777344 62.101562 96.265625 61.90625 96.738281 C 61.710938 97.214844 61.46875 97.664062 61.183594 98.089844 C 60.898438 98.515625 60.574219 98.910156 60.210938 99.273438 C 59.847656 99.636719 59.453125 99.960938 59.027344 100.246094 C 58.601562 100.53125 58.152344 100.773438 57.675781 100.96875 C 57.203125 101.164062 56.714844 101.3125 56.210938 101.414062 C 55.707031 101.511719 55.199219 101.5625 54.6875 101.5625 C 54.175781 101.5625 53.667969 101.511719 53.164062 101.414062 C 52.660156 101.3125 52.171875 101.164062 51.699219 100.96875 C 51.222656 100.773438 50.773438 100.53125 50.347656 100.246094 C 49.921875 99.960938 49.527344 99.636719 49.164062 99.273438 C 48.800781 98.910156 48.476562 98.515625 48.191406 98.089844 C 47.90625 97.664062 47.664062 97.214844 47.46875 96.738281 C 47.273438 96.265625 47.125 95.777344 47.023438 95.273438 C 46.925781 94.769531 46.875 94.261719 46.875 93.75 C 46.875 93.238281 46.925781 92.730469 47.023438 92.226562 C 47.125 91.722656 47.273438 91.234375 47.46875 90.761719 C 47.664062 90.285156 47.90625 89.835938 48.191406 89.410156 C 48.476562 88.984375 48.800781 88.589844 49.164062 88.226562 C 49.527344 87.863281 49.921875 87.539062 50.347656 87.253906 C 50.773438 86.96875 51.222656 86.726562 51.699219 86.53125 C 52.171875 86.335938 52.660156 86.1875 53.164062 86.085938 C 53.667969 85.988281 54.175781 85.9375 54.6875 85.9375 C 55.199219 85.9375 55.707031 85.988281 56.210938 86.085938 C 56.714844 86.1875 57.203125 86.335938 57.675781 86.53125 C 58.152344 86.726562 58.601562 86.96875 59.027344 87.253906 C 59.453125 87.539062 59.847656 87.863281 60.210938 88.226562 C 60.574219 88.589844 60.898438 88.984375 61.183594 89.410156 C 61.46875 89.835938 61.710938 90.285156 61.90625 90.761719 C 62.101562 91.234375 62.25 91.722656 62.351562 92.226562 C 62.449219 92.730469 62.5 93.238281 62.5 93.75 Z M 62.5 93.75 " fill-opacity="1" fill-rule="nonzero"/><path fill="#595959" d="M 107.179688 41.625 C 101.769531 36.25 97.292969 30.1875 93.75 23.4375 C 90.207031 30.1875 85.730469 36.25 80.320312 41.625 C 75.035156 46.871094 69.09375 51.226562 62.5 54.6875 C 65.816406 56.429688 68.984375 58.40625 72.003906 60.628906 C 75.023438 62.847656 77.855469 65.285156 80.503906 67.933594 C 83.152344 70.582031 85.589844 73.414062 87.808594 76.433594 C 90.03125 79.453125 92.007812 82.621094 93.75 85.9375 C 95.492188 82.621094 97.46875 79.453125 99.691406 76.433594 C 101.910156 73.414062 104.347656 70.582031 106.996094 67.933594 C 109.644531 65.28125 112.476562 62.847656 115.496094 60.628906 C 118.515625 58.40625 121.683594 56.429688 125 54.6875 C 118.40625 51.226562 112.464844 46.871094 107.179688 41.625 Z M 107.179688 41.625 " fill-opacity="1" fill-rule="nonzero"/></svg>