<svg xmlns="http://www.w3.org/2000/svg" xmlns:xlink="http://www.w3.org/1999/xlink" width="500" zoomAndPan="magnify" viewBox="0 0 375 374.999991" height="500" preserveAspectRatio="xMidYMid meet" version="1.0"><defs><filter x="0%" y="0%" width="100%" height="100%" id="7156246f25"><feColorMatrix values="0 0 0 0 1 0 0 0 0 1 0 0 0 0 1 0 0 0 1 0" color-interpolation-filters="sRGB"/></filter><mask id="0d7289b2dc"><g filter="url(#7156246f25)"><rect x="-37.5" width="450" fill="#000000" y="-37.499999" height="449.999989" fill-opacity="0.3"/></g></mask><clipPath id="9dae3e2712"><path d="M 2 7 L 90 7 L 90 180.71875 L 2 180.71875 Z M 2 7 " clip-rule="nonzero"/></clipPath><clipPath id="4230a87ba4"><rect x="0" width="95" y="0" height="181"/></clipPath><mask id="542848abe6"><g filter="url(#7156246f25)"><rect x="-37.5" width="450" fill="#000000" y="-37.499999" height="449.999989" fill-opacity="0.3"/></g></mask><clipPath id="9e249c3a84"><path d="M 0.28125 6 L 94.359375 6 L 94.359375 31.441406 L 0.28125 31.441406 Z M 0.28125 6 " clip-rule="nonzero"/></clipPath><clipPath id="86f369ddb9"><rect x="0" width="95" y="0" height="32"/></clipPath><mask id="a38a9e1455"><g filter="url(#7156246f25)"><rect x="-37.5" width="450" fill="#000000" y="-37.499999" height="449.999989" fill-opacity="0.3"/></g></mask><clipPath id="1be5f09fa4"><path d="M 5 7 L 93 7 L 93 180.71875 L 5 180.71875 Z M 5 7 " clip-rule="nonzero"/></clipPath><clipPath id="41e3db0580"><rect x="0" width="95" y="0" height="181"/></clipPath><mask id="5ed21fd39b"><g filter="url(#7156246f25)"><rect x="-37.5" width="450" fill="#000000" y="-37.499999" height="449.999989" fill-opacity="0.3"/></g></mask><clipPath id="7bbe012f9f"><path d="M 0.761719 6 L 94.601562 6 L 94.601562 31.441406 L 0.761719 31.441406 Z M 0.761719 6 " clip-rule="nonzero"/></clipPath><clipPath id="d02dd2bca1"><rect x="0" width="95" y="0" height="32"/></clipPath></defs><rect x="-37.5" width="450" fill="#ffffff" y="-37.499999" height="449.999989" fill-opacity="1"/><rect x="-37.5" width="450" fill="#d7dedc" y="-37.499999" height="449.999989" fill-opacity="1"/><g mask="url(#0d7289b2dc)"><g transform="matrix(1, 0, 0, 1, 15, 132)"><g clip-path="url(#4230a87ba4)"><g clip-path="url(#9dae3e2712)"><path fill="#595959" d="M 4.09375 7.84375 C 3.039062 18.496094 2.535156 29.171875 2.578125 39.875 C 2.578125 133.5 28.671875 173.84375 46.53125 179.039062 C 60.523438 183.101562 75.8125 174.96875 89.164062 157.710938 C 55.3125 159.664062 38.382812 131.671875 35.898438 90.757812 C 34.613281 68.535156 35.222656 46.367188 37.734375 24.25 C 34.527344 24.0625 31.371094 23.5625 28.261719 22.75 C 25.15625 21.9375 22.15625 20.828125 19.269531 19.417969 C 16.382812 18.011719 13.660156 16.332031 11.105469 14.382812 C 8.554688 12.4375 6.214844 10.257812 4.09375 7.84375 Z M 4.09375 7.84375 " fill-opacity="1" fill-rule="nonzero"/></g></g></g></g><g mask="url(#542848abe6)"><g transform="matrix(1, 0, 0, 1, 23, 78)"><g clip-path="url(#86f369ddb9)"><g clip-path="url(#9e249c3a84)"><path fill="#595959" d="M 94.1875 31.375 C 69.125 -2.804688 27.78125 -1.828125 0.4375 31.375 Z M 94.1875 31.375 " fill-opacity="1" fill-rule="nonzero"/></g></g></g></g><g mask="url(#a38a9e1455)"><g transform="matrix(1, 0, 0, 1, 265, 132)"><g clip-path="url(#41e3db0580)"><g clip-path="url(#1be5f09fa4)"><path fill="#595959" d="M 90.90625 7.84375 C 91.960938 18.496094 92.464844 29.171875 92.421875 39.875 C 92.421875 133.5 66.328125 173.84375 48.46875 179.039062 C 34.476562 183.101562 19.1875 174.96875 5.835938 157.710938 C 39.6875 159.664062 56.617188 131.671875 59.101562 90.757812 C 60.386719 68.535156 59.777344 46.367188 57.265625 24.25 C 60.472656 24.0625 63.628906 23.5625 66.738281 22.75 C 69.84375 21.9375 72.84375 20.828125 75.730469 19.417969 C 78.617188 18.011719 81.339844 16.332031 83.894531 14.382812 C 86.445312 12.4375 88.785156 10.257812 90.90625 7.84375 Z M 90.90625 7.84375 " fill-opacity="1" fill-rule="nonzero"/></g></g></g></g><g mask="url(#5ed21fd39b)"><g transform="matrix(1, 0, 0, 1, 257, 78)"><g clip-path="url(#d02dd2bca1)"><g clip-path="url(#7bbe012f9f)"><path fill="#595959" d="M 0.8125 31.375 C 25.875 -2.804688 67.21875 -1.828125 94.5625 31.375 Z M 0.8125 31.375 " fill-opacity="1" fill-rule="nonzero"/></g></g></g></g><path fill="#595959" d="M 156.25 218.75 C 156.25 219.777344 156.148438 220.792969 155.949219 221.796875 C 155.75 222.804688 155.453125 223.78125 155.0625 224.730469 C 154.667969 225.675781 154.1875 226.578125 153.617188 227.429688 C 153.046875 228.285156 152.398438 229.074219 151.671875 229.796875 C 150.949219 230.523438 150.160156 231.171875 149.304688 231.742188 C 148.453125 232.3125 147.550781 232.792969 146.605469 233.1875 C 145.65625 233.578125 144.679688 233.875 143.671875 234.074219 C 142.667969 234.273438 141.652344 234.375 140.625 234.375 C 139.597656 234.375 138.582031 234.273438 137.578125 234.074219 C 136.570312 233.875 135.59375 233.578125 134.644531 233.1875 C 133.699219 232.792969 132.796875 232.3125 131.945312 231.742188 C 131.089844 231.171875 130.300781 230.523438 129.578125 229.796875 C 128.851562 229.074219 128.203125 228.285156 127.632812 227.429688 C 127.0625 226.578125 126.582031 225.675781 126.1875 224.730469 C 125.796875 223.78125 125.5 222.804688 125.300781 221.796875 C 125.101562 220.792969 125 219.777344 125 218.75 C 125 217.722656 125.101562 216.707031 125.300781 215.703125 C 125.5 214.695312 125.796875 213.71875 126.1875 212.769531 C 126.582031 211.824219 127.0625 210.921875 127.632812 210.070312 C 128.203125 209.214844 128.851562 208.425781 129.578125 207.703125 C 130.300781 206.976562 131.089844 206.328125 131.945312 205.757812 C 132.796875 205.1875 133.699219 204.707031 134.644531 204.3125 C 135.59375 203.921875 136.570312 203.625 137.578125 203.425781 C 138.582031 203.226562 139.597656 203.125 140.625 203.125 C 141.652344 203.125 142.667969 203.226562 143.671875 203.425781 C 144.679688 203.625 145.65625 203.921875 146.605469 204.3125 C 147.550781 204.707031 148.453125 205.1875 149.304688 205.757812 C 150.160156 206.328125 150.949219 206.976562 151.671875 207.703125 C 152.398438 208.425781 153.046875 209.214844 153.617188 210.070312 C 154.1875 210.921875 154.667969 211.824219 155.0625 212.769531 C 155.453125 213.71875 155.75 214.695312 155.949219 215.703125 C 156.148438 216.707031 156.25 217.722656 156.25 218.75 Z M 156.25 218.75 " fill-opacity="1" fill-rule="nonzero"/><path fill="#595959" d="M 250 218.75 C 250 219.777344 249.898438 220.792969 249.699219 221.796875 C 249.5 222.804688 249.203125 223.78125 248.8125 224.730469 C 248.417969 225.675781 247.9375 226.578125 247.367188 227.429688 C 246.796875 228.285156 246.148438 229.074219 245.421875 229.796875 C 244.699219 230.523438 243.910156 231.171875 243.054688 231.742188 C 242.203125 232.3125 241.300781 232.792969 240.355469 233.1875 C 239.40625 233.578125 238.429688 233.875 237.421875 234.074219 C 236.417969 234.273438 235.402344 234.375 234.375 234.375 C 233.347656 234.375 232.332031 234.273438 231.328125 234.074219 C 230.320312 233.875 229.34375 233.578125 228.394531 233.1875 C 227.449219 232.792969 226.546875 232.3125 225.695312 231.742188 C 224.839844 231.171875 224.050781 230.523438 223.328125 229.796875 C 222.601562 229.074219 221.953125 228.285156 221.382812 227.429688 C 220.8125 226.578125 220.332031 225.675781 219.9375 224.730469 C 219.546875 223.78125 219.25 222.804688 219.050781 221.796875 C 218.851562 220.792969 218.75 219.777344 218.75 218.75 C 218.75 217.722656 218.851562 216.707031 219.050781 215.703125 C 219.25 214.695312 219.546875 213.71875 219.9375 212.769531 C 220.332031 211.824219 220.8125 210.921875 221.382812 210.070312 C 221.953125 209.214844 222.601562 208.425781 223.328125 207.703125 C 224.050781 206.976562 224.839844 206.328125 225.695312 205.757812 C 226.546875 205.1875 227.449219 204.707031 228.394531 204.3125 C 229.34375 203.921875 230.320312 203.625 231.328125 203.425781 C 232.332031 203.226562 233.347656 203.125 234.375 203.125 C 235.402344 203.125 236.417969 203.226562 237.421875 203.425781 C 238.429688 203.625 239.40625 203.921875 240.355469 204.3125 C 241.300781 204.707031 242.203125 205.1875 243.054688 205.757812 C 243.910156 206.328125 244.699219 206.976562 245.421875 207.703125 C 246.148438 208.425781 246.796875 209.214844 247.367188 210.070312 C 247.9375 210.921875 248.417969 211.824219 248.8125 212.769531 C 249.203125 213.71875 249.5 214.695312 249.699219 215.703125 C 249.898438 216.707031 250 217.722656 250 218.75 Z M 250 218.75 " fill-opacity="1" fill-rule="nonzero"/><path stroke-linecap="butt" transform="matrix(7.8125, 0, 0, 7.8125, 0.0000045, -0.000000000000063949)" fill="none" stroke-linejoin="miter" d="M 10.999999 20 L 6.999999 20 C 6.803499 20 6.607499 19.9905 6.411999 19.971 C 6.216499 19.952 6.021999 19.923 5.829499 19.8845 C 5.636499 19.8465 5.446499 19.7985 5.258499 19.7415 C 5.069999 19.6845 4.885499 19.6185 4.703999 19.5435 C 4.522499 19.468 4.344999 19.384 4.171499 19.2915 C 3.998499 19.199 3.829999 19.098 3.666499 18.989 C 3.502999 18.8795 3.345499 18.7625 3.193499 18.638 C 3.041499 18.5135 2.896499 18.3815 2.757499 18.2425 C 2.618499 18.1035 2.486499 17.9585 2.361999 17.8065 C 2.237499 17.6545 2.120499 17.497 2.010999 17.3335 C 1.901999 17.17 1.800999 17.0015 1.708499 16.8285 C 1.615999 16.655 1.531999 16.4775 1.456499 16.296 C 1.381499 16.1145 1.315499 15.93 1.258499 15.7415 C 1.201499 15.5535 1.153499 15.3635 1.115499 15.1705 C 1.076999 14.978 1.047999 14.7835 1.028999 14.588 C 1.009499 14.3925 0.999999 14.1965 0.999999 14 L 14.999999 14 " stroke="#f7f7f7" stroke-width="2" stroke-opacity="1" stroke-miterlimit="10"/><path stroke-linecap="butt" transform="matrix(7.8125, 0, 0, 7.8125, 0.0000045, -0.000000000000063949)" fill="none" stroke-linejoin="miter" d="M 36.999999 20 L 40.999999 20 C 41.196499 20 41.392499 19.9905 41.587999 19.971 C 41.783499 19.952 41.977999 19.923 42.170499 19.8845 C 42.363499 19.8465 42.553499 19.7985 42.741499 19.7415 C 42.929999 19.6845 43.114499 19.6185 43.295999 19.5435 C 43.477499 19.468 43.654999 19.384 43.828499 19.2915 C 44.001499 19.199 44.169999 19.098 44.333499 18.989 C 44.496999 18.8795 44.654499 18.7625 44.806499 18.638 C 44.958499 18.5135 45.103499 18.3815 45.242499 18.2425 C 45.381499 18.1035 45.513499 17.9585 45.637999 17.8065 C 45.762499 17.6545 45.879499 17.497 45.988999 17.3335 C 46.097999 17.17 46.198999 17.0015 46.291499 16.8285 C 46.383999 16.655 46.467999 16.4775 46.543499 16.296 C 46.618499 16.1145 46.684499 15.93 46.741499 15.7415 C 46.798499 15.5535 46.846499 15.3635 46.884499 15.1705 C 46.922999 14.978 46.951999 14.7835 46.970999 14.588 C 46.990499 14.3925 46.999999 14.1965 46.999999 14 L 32.999999 14 " stroke="#f7f7f7" stroke-width="2" stroke-opacity="1" stroke-miterlimit="10"/><path stroke-linecap="butt" transform="matrix(7.8125, 0, 0, 7.8125, 0.0000045, -0.000000000000063949)" fill="none" stroke-linejoin="miter" d="M 14.999999 14 L 12.399999 26.145 C 12.337999 26.435 12.307999 26.728 12.310999 27.0245 C 12.314499 27.321 12.349999 27.6135 12.417999 27.902 C 12.485999 28.1905 12.584999 28.468 12.714499 28.735 C 12.844499 29.0015 13.001999 29.2505 13.186999 29.482 L 15.999999 32.999999 L 18.823999 42.176999 C 18.865999 42.314499 18.913999 42.449499 18.966999 42.582999 C 19.019499 42.716499 19.077999 42.847999 19.141499 42.976999 C 19.204999 43.105499 19.272999 43.231999 19.346499 43.355499 C 19.419999 43.478499 19.498499 43.598999 19.581499 43.715999 C 19.664499 43.833499 19.751999 43.946999 19.843999 44.057499 C 19.935999 44.167499 20.032499 44.273999 20.132999 44.376499 C 20.233499 44.478999 20.337999 44.577499 20.446499 44.671999 C 20.554999 44.765999 20.666999 44.855999 20.782499 44.941499 C 20.897999 45.026499 21.016499 45.107499 21.138499 45.182999 C 21.260499 45.258999 21.384999 45.329999 21.512999 45.395999 C 21.640499 45.461999 21.770499 45.522999 21.902999 45.578499 C 22.035499 45.633999 22.169499 45.684499 22.305999 45.729499 C 22.442499 45.773999 22.580499 45.813499 22.719999 45.847499 C 22.859499 45.881499 23.000499 45.909999 23.141999 45.932499 C 23.283999 45.955499 23.426499 45.972499 23.569999 45.983999 C 23.712999 45.995499 23.856499 46.000999 23.999999 46.000999 C 24.143499 46.000999 24.286999 45.995499 24.429999 45.983999 C 24.573499 45.972499 24.715999 45.955499 24.857499 45.932499 C 24.999499 45.909999 25.140499 45.881499 25.279999 45.847499 C 25.419499 45.813499 25.557499 45.773999 25.693999 45.729499 C 25.830499 45.684499 25.964499 45.633999 26.096999 45.578499 C 26.229499 45.522999 26.359499 45.461999 26.486999 45.395999 C 26.614999 45.329999 26.739499 45.258999 26.861499 45.182999 C 26.983499 45.107499 27.101999 45.026499 27.217499 44.941499 C 27.332999 44.855999 27.444999 44.765999 27.553499 44.671999 C 27.661999 44.577499 27.766499 44.478999 27.866999 44.376499 C 27.967499 44.273999 28.063999 44.167499 28.155999 44.057499 C 28.247999 43.946999 28.335499 43.833499 28.418499 43.715999 C 28.501499 43.598999 28.579999 43.478499 28.653499 43.355499 C 28.726999 43.231999 28.794999 43.105499 28.858499 42.976999 C 28.921999 42.847999 28.979999 42.716499 29.032999 42.582999 C 29.085999 42.449499 29.133999 42.314499 29.175999 42.176999 L 31.999999 32.999999 L 34.814999 29.482 C 34.999999 29.2505 35.157499 29.0015 35.287499 28.735 C 35.416999 28.468 35.515999 28.1905 35.583999 27.902 C 35.651999 27.6135 35.687499 27.321 35.690499 27.0245 C 35.693999 26.728 35.663999 26.435 35.601999 26.145 L 32.999999 14 C 31.522999 13.6675 30.032499 13.418 28.527499 13.251 C 27.022999 13.0835 25.513999 13 23.999999 13 C 22.485999 13 20.976999 13.0835 19.472499 13.251 C 17.967499 13.418 16.476999 13.6675 14.999999 14 Z M 14.999999 14 " stroke="#f7f7f7" stroke-width="2" stroke-opacity="1" stroke-miterlimit="10"/><path stroke-linecap="butt" transform="matrix(7.8125, 0, 0, 7.8125, 0.0000045, -0.000000000000063949)" fill="none" stroke-linejoin="miter" d="M 26.999999 38.676999 C 26.956999 38.841999 26.900999 39.001999 26.831499 39.157999 C 26.761999 39.313499 26.680499 39.462499 26.586499 39.604499 C 26.492999 39.746499 26.387999 39.879999 26.271999 40.004999 C 26.155999 40.129999 26.030499 40.244499 25.895999 40.348499 C 25.760999 40.452999 25.618499 40.545499 25.468499 40.625999 C 25.318499 40.706499 25.162999 40.774499 25.001499 40.829499 C 24.840499 40.884499 24.675999 40.925999 24.507499 40.953999 C 24.339499 40.981999 24.170499 40.995999 23.999999 40.995999 C 23.829499 40.995999 23.660499 40.981999 23.492499 40.953999 C 23.323999 40.925999 23.159499 40.884499 22.998499 40.829499 C 22.836999 40.774499 22.681499 40.706499 22.531499 40.625999 C 22.381499 40.545499 22.238999 40.452999 22.103999 40.348499 C 21.969499 40.244499 21.843999 40.129999 21.727999 40.004999 C 21.611999 39.879999 21.506999 39.746499 21.413499 39.604499 C 21.319499 39.462499 21.237999 39.313499 21.168499 39.157999 C 21.098999 39.001999 21.042999 38.841999 20.999999 38.676999 " stroke="#f7f7f7" stroke-width="2" stroke-opacity="1" stroke-miterlimit="10"/><path stroke-linecap="butt" transform="matrix(7.8125, 0, 0, 7.8125, 0.0000045, -0.000000000000063949)" fill="none" stroke-linejoin="miter" d="M 23.999999 40.999999 L 23.999999 45.999999 " stroke="#f7f7f7" stroke-width="2" stroke-opacity="1" stroke-miterlimit="10"/><path stroke-linecap="butt" transform="matrix(7.8125, 0, 0, 7.8125, 0.0000045, -0.000000000000063949)" fill="none" stroke-linejoin="miter" d="M 2.443999 17.9 C 2.308999 19.2635 2.244499 20.63 2.249999 22 C 2.249999 33.983999 5.589999 39.147999 7.875999 39.812999 C 9.666999 40.332999 11.623999 39.291999 13.332999 37.082999 C 8.999999 37.332999 6.832999 33.749999 6.514999 28.513 C 6.379499 26.4255 6.385499 24.3385 6.532999 22.252 " stroke="#f7f7f7" stroke-width="2" stroke-opacity="1" stroke-miterlimit="10"/><path stroke-linecap="butt" transform="matrix(7.8125, 0, 0, 7.8125, 0.0000045, -0.000000000000063949)" fill="none" stroke-linejoin="miter" d="M 23.999999 13 C 22.399999 7.054 18.862999 2 11.999999 2 C 8.213999 2 4.587999 6.629 3.035999 14 " stroke="#f7f7f7" stroke-width="2" stroke-opacity="1" stroke-miterlimit="10"/><path stroke-linecap="butt" transform="matrix(7.8125, 0, 0, 7.8125, 0.0000045, -0.000000000000063949)" fill="none" stroke-linejoin="miter" d="M 14.999999 14 C 11.791999 9.625 6.499999 9.75 2.999999 14 " stroke="#f7f7f7" stroke-width="2" stroke-opacity="1" stroke-miterlimit="10"/><path stroke-linecap="butt" transform="matrix(7.8125, 0, 0, 7.8125, 0.0000045, -0.000000000000063949)" fill="none" stroke-linejoin="miter" d="M 45.555999 17.9 C 45.690999 19.2635 45.755499 20.63 45.749999 22 C 45.749999 33.983999 42.409999 39.147999 40.123999 39.812999 C 38.332999 40.332999 36.375999 39.291999 34.666999 37.082999 C 38.999999 37.332999 41.166999 33.749999 41.484999 28.513 C 41.620499 26.4255 41.614499 24.3385 41.466999 22.252 " stroke="#f7f7f7" stroke-width="2" stroke-opacity="1" stroke-miterlimit="10"/><path stroke-linecap="butt" transform="matrix(7.8125, 0, 0, 7.8125, 0.0000045, -0.000000000000063949)" fill="none" stroke-linejoin="miter" d="M 23.999999 13 C 25.604999 7.054 29.136999 2 35.999999 2 C 39.785999 2 43.411999 6.629 44.963999 14 " stroke="#f7f7f7" stroke-width="2" stroke-opacity="1" stroke-miterlimit="10"/><path stroke-linecap="butt" transform="matrix(7.8125, 0, 0, 7.8125, 0.0000045, -0.000000000000063949)" fill="none" stroke-linejoin="miter" d="M 32.999999 14 C 36.207999 9.625 41.499999 9.75 44.999999 14 " stroke="#f7f7f7" stroke-width="2" stroke-opacity="1" stroke-miterlimit="10"/></svg>