<svg xmlns="http://www.w3.org/2000/svg" xmlns:xlink="http://www.w3.org/1999/xlink" width="500" zoomAndPan="magnify" viewBox="0 0 375 374.999991" height="500" preserveAspectRatio="xMidYMid meet" version="1.0"><defs><filter x="0%" y="0%" width="100%" height="100%" id="a9ba4ebe5b"><feColorMatrix values="0 0 0 0 1 0 0 0 0 1 0 0 0 0 1 0 0 0 1 0" color-interpolation-filters="sRGB"/></filter><mask id="8b973b498d"><g filter="url(#a9ba4ebe5b)"><rect x="-37.5" width="450" fill="#000000" y="-37.499999" height="449.999989" fill-opacity="0.3"/></g></mask><clipPath id="2f011fc6ee"><rect x="0" width="141" y="0" height="142"/></clipPath><mask id="22eb12641e"><g filter="url(#a9ba4ebe5b)"><rect x="-37.5" width="450" fill="#000000" y="-37.499999" height="449.999989" fill-opacity="0.3"/></g></mask><clipPath id="9fad31c3e9"><rect x="0" width="141" y="0" height="142"/></clipPath></defs><rect x="-37.5" width="450" fill="#ffffff" y="-37.499999" height="449.999989" fill-opacity="1"/><rect x="-37.5" width="450" fill="#d7dedc" y="-37.499999" height="449.999989" fill-opacity="1"/><g mask="url(#8b973b498d)"><g transform="matrix(1, 0, 0, 1, 0, 7)"><g clip-path="url(#2f011fc6ee)"><path fill="#595959" d="M 72.898438 86.75 C 64.453125 55.5 70.3125 34.5 94.304688 13.414062 C 93.214844 12.960938 92.113281 12.535156 91 12.144531 C 89.886719 11.753906 88.761719 11.390625 87.625 11.0625 C 86.492188 10.734375 85.351562 10.4375 84.199219 10.175781 C 83.046875 9.910156 81.890625 9.679688 80.726562 9.480469 C 79.5625 9.28125 78.394531 9.117188 77.21875 8.984375 C 76.046875 8.851562 74.871094 8.753906 73.691406 8.6875 C 72.511719 8.621094 71.332031 8.589844 70.152344 8.589844 C 68.972656 8.589844 67.789062 8.625 66.613281 8.691406 C 65.433594 8.757812 64.257812 8.859375 63.082031 8.992188 C 61.910156 9.128906 60.742188 9.292969 59.578125 9.496094 C 58.414062 9.695312 57.257812 9.925781 56.105469 10.191406 C 54.957031 10.457031 53.8125 10.757812 52.679688 11.085938 C 51.546875 11.417969 50.421875 11.777344 49.308594 12.171875 C 48.195312 12.566406 47.09375 12.988281 46.003906 13.445312 C 44.914062 13.902344 43.839844 14.386719 42.777344 14.90625 C 41.714844 15.421875 40.671875 15.96875 39.640625 16.542969 C 38.609375 17.117188 37.59375 17.722656 36.597656 18.355469 C 35.601562 18.988281 34.621094 19.652344 33.664062 20.339844 C 32.703125 21.027344 31.765625 21.742188 30.84375 22.484375 C 29.925781 23.226562 29.03125 23.992188 28.152344 24.785156 C 27.277344 25.578125 26.425781 26.394531 25.597656 27.234375 C 24.765625 28.074219 23.960938 28.9375 23.179688 29.824219 C 22.398438 30.710938 21.644531 31.617188 20.914062 32.546875 C 20.1875 33.476562 19.484375 34.421875 18.808594 35.390625 C 18.132812 36.359375 17.484375 37.347656 16.863281 38.351562 C 16.246094 39.355469 15.652344 40.378906 15.089844 41.417969 C 14.53125 42.457031 13.996094 43.507812 13.496094 44.578125 C 12.992188 45.644531 12.519531 46.726562 12.078125 47.824219 C 11.636719 48.917969 11.226562 50.027344 10.847656 51.144531 C 10.46875 52.261719 10.121094 53.390625 9.808594 54.527344 C 9.492188 55.667969 9.210938 56.8125 8.960938 57.96875 C 8.710938 59.121094 8.492188 60.28125 8.308594 61.449219 C 8.121094 62.613281 7.972656 63.785156 7.851562 64.960938 C 7.734375 66.132812 7.648438 67.3125 7.597656 68.492188 C 7.546875 69.671875 7.527344 70.851562 7.542969 72.03125 C 7.554688 73.214844 7.605469 74.390625 7.6875 75.570312 C 7.765625 76.75 7.882812 77.921875 8.03125 79.09375 C 8.179688 80.265625 8.359375 81.433594 8.574219 82.59375 C 8.785156 83.753906 9.035156 84.910156 9.3125 86.058594 C 9.589844 87.203125 9.902344 88.34375 10.246094 89.472656 C 10.589844 90.601562 10.964844 91.722656 11.371094 92.832031 C 11.777344 93.9375 12.214844 95.035156 12.6875 96.121094 C 13.15625 97.203125 13.652344 98.273438 14.183594 99.328125 C 14.710938 100.382812 15.269531 101.425781 15.859375 102.449219 C 16.445312 103.472656 17.0625 104.480469 17.707031 105.46875 C 18.351562 106.457031 19.027344 107.425781 19.726562 108.378906 C 20.425781 109.328125 21.152344 110.261719 21.902344 111.171875 C 22.65625 112.082031 23.433594 112.96875 24.238281 113.835938 C 25.039062 114.699219 25.867188 115.542969 26.714844 116.363281 C 27.566406 117.183594 28.4375 117.976562 29.335938 118.746094 C 30.230469 119.515625 31.144531 120.261719 32.082031 120.980469 C 33.019531 121.699219 33.976562 122.390625 34.953125 123.054688 C 35.929688 123.71875 36.925781 124.351562 37.9375 124.960938 C 38.949219 125.570312 39.976562 126.148438 41.023438 126.699219 C 42.070312 127.246094 43.128906 127.765625 44.203125 128.257812 C 45.277344 128.746094 46.363281 129.207031 47.464844 129.632812 C 48.566406 130.0625 49.675781 130.460938 50.800781 130.824219 C 51.921875 131.191406 53.054688 131.523438 54.195312 131.824219 C 55.339844 132.125 56.488281 132.394531 57.644531 132.632812 C 58.800781 132.867188 59.964844 133.070312 61.132812 133.242188 C 62.300781 133.414062 63.472656 133.550781 64.652344 133.65625 C 65.828125 133.761719 67.003906 133.832031 68.183594 133.867188 C 69.367188 133.90625 70.546875 133.910156 71.726562 133.882812 C 72.90625 133.855469 74.085938 133.792969 75.261719 133.695312 C 76.441406 133.601562 77.613281 133.472656 78.78125 133.308594 C 79.953125 133.148438 81.117188 132.953125 82.273438 132.726562 C 83.433594 132.496094 84.585938 132.238281 85.730469 131.945312 C 86.875 131.652344 88.007812 131.328125 89.132812 130.96875 C 90.257812 130.613281 91.375 130.222656 92.476562 129.804688 C 93.582031 129.382812 94.671875 128.933594 95.75 128.453125 C 96.828125 127.96875 97.890625 127.457031 98.941406 126.917969 C 99.992188 126.375 101.023438 125.804688 102.039062 125.203125 C 103.058594 124.601562 104.058594 123.976562 105.039062 123.316406 C 106.019531 122.660156 106.980469 121.976562 107.925781 121.265625 C 108.867188 120.554688 109.789062 119.816406 110.691406 119.054688 C 111.589844 118.292969 112.46875 117.503906 113.328125 116.691406 C 114.183594 115.878906 115.015625 115.039062 115.824219 114.179688 C 116.632812 113.320312 117.417969 112.4375 118.179688 111.535156 C 118.9375 110.628906 119.671875 109.703125 120.378906 108.757812 C 121.085938 107.8125 121.765625 106.847656 122.417969 105.863281 C 123.070312 104.878906 123.691406 103.878906 124.289062 102.859375 C 124.886719 101.839844 125.453125 100.804688 125.988281 99.75 C 126.527344 98.699219 127.03125 97.632812 127.511719 96.554688 C 127.988281 95.472656 128.433594 94.378906 128.847656 93.273438 C 129.261719 92.167969 129.648438 91.054688 130 89.925781 C 130.351562 88.800781 130.671875 87.664062 130.960938 86.519531 C 131.246094 85.371094 131.503906 84.21875 131.726562 83.058594 C 131.949219 81.902344 132.136719 80.734375 132.292969 79.566406 C 132.449219 78.394531 132.574219 77.222656 132.664062 76.042969 C 132.753906 74.867188 132.8125 73.6875 132.835938 72.507812 C 132.859375 71.324219 132.851562 70.144531 132.808594 68.964844 C 132.765625 67.785156 132.6875 66.605469 132.578125 65.429688 C 132.46875 64.253906 132.328125 63.082031 132.152344 61.917969 C 131.976562 60.75 131.765625 59.585938 131.523438 58.429688 C 131.28125 57.273438 131.007812 56.125 130.703125 54.984375 C 130.394531 53.847656 130.058594 52.714844 129.6875 51.59375 C 126.195312 56.101562 122.332031 60.261719 118.09375 64.078125 C 113.859375 67.890625 109.316406 71.300781 104.46875 74.300781 C 99.621094 77.300781 94.542969 79.847656 89.242188 81.9375 C 83.9375 84.03125 78.488281 85.632812 72.898438 86.75 Z M 72.898438 86.75 " fill-opacity="1" fill-rule="nonzero"/></g></g></g><g mask="url(#22eb12641e)"><g transform="matrix(1, 0, 0, 1, 234, 7)"><g clip-path="url(#9fad31c3e9)"><path fill="#595959" d="M 68.101562 86.75 C 76.546875 55.5 70.6875 34.507812 46.695312 13.414062 C 47.785156 12.960938 48.886719 12.535156 50 12.144531 C 51.113281 11.753906 52.238281 11.390625 53.375 11.0625 C 54.507812 10.734375 55.648438 10.4375 56.800781 10.175781 C 57.953125 9.910156 59.109375 9.679688 60.273438 9.480469 C 61.4375 9.28125 62.605469 9.117188 63.78125 8.984375 C 64.953125 8.851562 66.128906 8.753906 67.308594 8.6875 C 68.488281 8.621094 69.667969 8.589844 70.847656 8.589844 C 72.027344 8.589844 73.210938 8.625 74.386719 8.691406 C 75.566406 8.757812 76.742188 8.859375 77.917969 8.992188 C 79.089844 9.128906 80.257812 9.292969 81.421875 9.496094 C 82.585938 9.695312 83.742188 9.925781 84.894531 10.191406 C 86.042969 10.457031 87.1875 10.757812 88.320312 11.085938 C 89.453125 11.417969 90.578125 11.777344 91.691406 12.171875 C 92.804688 12.566406 93.90625 12.988281 94.996094 13.445312 C 96.085938 13.902344 97.160156 14.386719 98.222656 14.90625 C 99.285156 15.421875 100.328125 15.96875 101.359375 16.542969 C 102.390625 17.117188 103.40625 17.722656 104.402344 18.355469 C 105.398438 18.988281 106.378906 19.652344 107.335938 20.339844 C 108.296875 21.027344 109.234375 21.742188 110.15625 22.484375 C 111.074219 23.226562 111.96875 23.992188 112.847656 24.785156 C 113.722656 25.578125 114.574219 26.394531 115.402344 27.234375 C 116.234375 28.074219 117.039062 28.9375 117.820312 29.824219 C 118.601562 30.710938 119.355469 31.617188 120.085938 32.546875 C 120.8125 33.476562 121.515625 34.421875 122.191406 35.390625 C 122.867188 36.359375 123.515625 37.347656 124.136719 38.351562 C 124.753906 39.355469 125.347656 40.378906 125.910156 41.417969 C 126.46875 42.457031 127.003906 43.507812 127.503906 44.578125 C 128.007812 45.644531 128.480469 46.726562 128.921875 47.824219 C 129.363281 48.917969 129.773438 50.027344 130.152344 51.144531 C 130.53125 52.261719 130.878906 53.390625 131.191406 54.527344 C 131.507812 55.667969 131.789062 56.8125 132.039062 57.96875 C 132.289062 59.121094 132.507812 60.28125 132.691406 61.449219 C 132.878906 62.613281 133.027344 63.785156 133.148438 64.960938 C 133.265625 66.132812 133.351562 67.3125 133.402344 68.492188 C 133.453125 69.671875 133.472656 70.851562 133.457031 72.03125 C 133.445312 73.214844 133.394531 74.390625 133.3125 75.570312 C 133.234375 76.75 133.117188 77.921875 132.96875 79.09375 C 132.820312 80.265625 132.640625 81.433594 132.425781 82.59375 C 132.214844 83.753906 131.964844 84.910156 131.6875 86.058594 C 131.410156 87.203125 131.097656 88.34375 130.753906 89.472656 C 130.410156 90.601562 130.035156 91.722656 129.628906 92.832031 C 129.222656 93.9375 128.785156 95.035156 128.316406 96.121094 C 127.84375 97.203125 127.347656 98.273438 126.816406 99.328125 C 126.289062 100.382812 125.730469 101.425781 125.140625 102.449219 C 124.554688 103.472656 123.9375 104.480469 123.292969 105.46875 C 122.648438 106.457031 121.972656 107.425781 121.273438 108.378906 C 120.574219 109.328125 119.847656 110.261719 119.097656 111.171875 C 118.34375 112.082031 117.566406 112.96875 116.761719 113.835938 C 115.960938 114.699219 115.132812 115.542969 114.285156 116.363281 C 113.433594 117.183594 112.5625 117.976562 111.664062 118.746094 C 110.769531 119.515625 109.855469 120.261719 108.917969 120.980469 C 107.980469 121.699219 107.023438 122.386719 106.046875 123.054688 C 105.070312 123.71875 104.074219 124.351562 103.0625 124.960938 C 102.050781 125.570312 101.023438 126.148438 99.976562 126.699219 C 98.929688 127.246094 97.871094 127.765625 96.796875 128.257812 C 95.722656 128.746094 94.636719 129.207031 93.535156 129.632812 C 92.433594 130.0625 91.324219 130.460938 90.199219 130.824219 C 89.078125 131.191406 87.945312 131.523438 86.804688 131.824219 C 85.660156 132.125 84.511719 132.394531 83.355469 132.632812 C 82.199219 132.867188 81.035156 133.070312 79.867188 133.242188 C 78.699219 133.414062 77.527344 133.550781 76.347656 133.65625 C 75.171875 133.761719 73.996094 133.832031 72.816406 133.867188 C 71.632812 133.90625 70.453125 133.910156 69.273438 133.882812 C 68.09375 133.855469 66.914062 133.792969 65.738281 133.695312 C 64.558594 133.601562 63.386719 133.472656 62.21875 133.308594 C 61.046875 133.148438 59.882812 132.953125 58.726562 132.726562 C 57.566406 132.496094 56.414062 132.238281 55.269531 131.945312 C 54.125 131.652344 52.992188 131.328125 51.867188 130.96875 C 50.742188 130.613281 49.625 130.222656 48.523438 129.804688 C 47.417969 129.382812 46.328125 128.933594 45.25 128.453125 C 44.171875 127.96875 43.109375 127.457031 42.058594 126.917969 C 41.007812 126.375 39.976562 125.804688 38.960938 125.203125 C 37.941406 124.601562 36.941406 123.976562 35.960938 123.316406 C 34.980469 122.660156 34.019531 121.976562 33.074219 121.265625 C 32.132812 120.554688 31.210938 119.816406 30.308594 119.054688 C 29.410156 118.292969 28.53125 117.503906 27.671875 116.691406 C 26.816406 115.878906 25.984375 115.039062 25.175781 114.179688 C 24.367188 113.320312 23.582031 112.4375 22.820312 111.535156 C 22.0625 110.628906 21.328125 109.703125 20.621094 108.757812 C 19.914062 107.8125 19.234375 106.847656 18.582031 105.863281 C 17.929688 104.878906 17.308594 103.878906 16.710938 102.859375 C 16.113281 101.839844 15.546875 100.804688 15.011719 99.75 C 14.472656 98.699219 13.96875 97.632812 13.488281 96.554688 C 13.011719 95.472656 12.566406 94.378906 12.152344 93.273438 C 11.738281 92.167969 11.351562 91.054688 11 89.925781 C 10.648438 88.800781 10.328125 87.664062 10.039062 86.519531 C 9.753906 85.371094 9.496094 84.21875 9.273438 83.058594 C 9.050781 81.902344 8.863281 80.734375 8.707031 79.566406 C 8.550781 78.394531 8.425781 77.222656 8.335938 76.042969 C 8.246094 74.867188 8.1875 73.6875 8.164062 72.507812 C 8.140625 71.324219 8.148438 70.144531 8.191406 68.964844 C 8.234375 67.785156 8.3125 66.605469 8.421875 65.429688 C 8.53125 64.253906 8.671875 63.082031 8.847656 61.917969 C 9.023438 60.75 9.234375 59.585938 9.476562 58.429688 C 9.71875 57.273438 9.992188 56.125 10.296875 54.984375 C 10.605469 53.847656 10.941406 52.714844 11.3125 51.59375 C 14.804688 56.101562 18.667969 60.261719 22.90625 64.078125 C 27.140625 67.890625 31.683594 71.300781 36.53125 74.300781 C 41.378906 77.300781 46.457031 79.847656 51.757812 81.9375 C 57.0625 84.03125 62.511719 85.632812 68.101562 86.75 Z M 68.101562 86.75 " fill-opacity="1" fill-rule="nonzero"/></g></g></g><path fill="#595959" d="M 148.4375 171.875 C 148.4375 172.902344 148.335938 173.917969 148.136719 174.921875 C 147.9375 175.929688 147.640625 176.90625 147.25 177.855469 C 146.855469 178.800781 146.375 179.703125 145.804688 180.554688 C 145.234375 181.410156 144.585938 182.199219 143.859375 182.921875 C 143.136719 183.648438 142.347656 184.296875 141.492188 184.867188 C 140.640625 185.4375 139.738281 185.917969 138.792969 186.3125 C 137.84375 186.703125 136.867188 187 135.859375 187.199219 C 134.855469 187.398438 133.839844 187.5 132.8125 187.5 C 131.785156 187.5 130.769531 187.398438 129.765625 187.199219 C 128.757812 187 127.78125 186.703125 126.832031 186.3125 C 125.886719 185.917969 124.984375 185.4375 124.132812 184.867188 C 123.277344 184.296875 122.488281 183.648438 121.765625 182.921875 C 121.039062 182.199219 120.390625 181.410156 119.820312 180.554688 C 119.25 179.703125 118.769531 178.800781 118.375 177.855469 C 117.984375 176.90625 117.6875 175.929688 117.488281 174.921875 C 117.289062 173.917969 117.1875 172.902344 117.1875 171.875 C 117.1875 170.847656 117.289062 169.832031 117.488281 168.828125 C 117.6875 167.820312 117.984375 166.84375 118.375 165.894531 C 118.769531 164.949219 119.25 164.046875 119.820312 163.195312 C 120.390625 162.339844 121.039062 161.550781 121.765625 160.828125 C 122.488281 160.101562 123.277344 159.453125 124.132812 158.882812 C 124.984375 158.3125 125.886719 157.832031 126.832031 157.4375 C 127.78125 157.046875 128.757812 156.75 129.765625 156.550781 C 130.769531 156.351562 131.785156 156.25 132.8125 156.25 C 133.839844 156.25 134.855469 156.351562 135.859375 156.550781 C 136.867188 156.75 137.84375 157.046875 138.792969 157.4375 C 139.738281 157.832031 140.640625 158.3125 141.492188 158.882812 C 142.347656 159.453125 143.136719 160.101562 143.859375 160.828125 C 144.585938 161.550781 145.234375 162.339844 145.804688 163.195312 C 146.375 164.046875 146.855469 164.949219 147.25 165.894531 C 147.640625 166.84375 147.9375 167.820312 148.136719 168.828125 C 148.335938 169.832031 148.4375 170.847656 148.4375 171.875 Z M 148.4375 171.875 " fill-opacity="1" fill-rule="nonzero"/><path fill="#595959" d="M 257.8125 171.875 C 257.8125 172.902344 257.710938 173.917969 257.511719 174.921875 C 257.3125 175.929688 257.015625 176.90625 256.625 177.855469 C 256.230469 178.800781 255.75 179.703125 255.179688 180.554688 C 254.609375 181.410156 253.960938 182.199219 253.234375 182.921875 C 252.511719 183.648438 251.722656 184.296875 250.867188 184.867188 C 250.015625 185.4375 249.113281 185.917969 248.167969 186.3125 C 247.21875 186.703125 246.242188 187 245.234375 187.199219 C 244.230469 187.398438 243.214844 187.5 242.1875 187.5 C 241.160156 187.5 240.144531 187.398438 239.140625 187.199219 C 238.132812 187 237.15625 186.703125 236.207031 186.3125 C 235.261719 185.917969 234.359375 185.4375 233.507812 184.867188 C 232.652344 184.296875 231.863281 183.648438 231.140625 182.921875 C 230.414062 182.199219 229.765625 181.410156 229.195312 180.554688 C 228.625 179.703125 228.144531 178.800781 227.75 177.855469 C 227.359375 176.90625 227.0625 175.929688 226.863281 174.921875 C 226.664062 173.917969 226.5625 172.902344 226.5625 171.875 C 226.5625 170.847656 226.664062 169.832031 226.863281 168.828125 C 227.0625 167.820312 227.359375 166.84375 227.75 165.894531 C 228.144531 164.949219 228.625 164.046875 229.195312 163.195312 C 229.765625 162.339844 230.414062 161.550781 231.140625 160.828125 C 231.863281 160.101562 232.652344 159.453125 233.507812 158.882812 C 234.359375 158.3125 235.261719 157.832031 236.207031 157.4375 C 237.15625 157.046875 238.132812 156.75 239.140625 156.550781 C 240.144531 156.351562 241.160156 156.25 242.1875 156.25 C 243.214844 156.25 244.230469 156.351562 245.234375 156.550781 C 246.242188 156.75 247.21875 157.046875 248.167969 157.4375 C 249.113281 157.832031 250.015625 158.3125 250.867188 158.882812 C 251.722656 159.453125 252.511719 160.101562 253.234375 160.828125 C 253.960938 161.550781 254.609375 162.339844 255.179688 163.195312 C 255.75 164.046875 256.230469 164.949219 256.625 165.894531 C 257.015625 166.84375 257.3125 167.820312 257.511719 168.828125 C 257.710938 169.832031 257.8125 170.847656 257.8125 171.875 Z M 257.8125 171.875 " fill-opacity="1" fill-rule="nonzero"/><path stroke-linecap="square" transform="matrix(7.8125, 0, 0, 7.8125, 0.0000045, 0)" fill="none" stroke-linejoin="miter" d="M 9.330999 12 C 8.249999 8 8.999999 5.312 12.070999 2.613 C 11.931499 2.555 11.790499 2.5005 11.647999 2.4505 C 11.505499 2.4005 11.361499 2.354 11.215999 2.312 C 11.070999 2.27 10.924999 2.232 10.777499 2.1985 C 10.629999 2.1645 10.481999 2.135 10.332999 2.1095 C 10.183999 2.084 10.034499 2.063 9.883999 2.046 C 9.733999 2.029 9.583499 2.0165 9.432499 2.008 C 9.281499 1.9995 9.130499 1.9955 8.979499 1.9955 C 8.828499 1.9955 8.676999 2 8.526499 2.0085 C 8.375499 2.017 8.224999 2.03 8.074499 2.047 C 7.924499 2.0645 7.774999 2.0855 7.625999 2.1115 C 7.476999 2.137 7.328999 2.1665 7.181499 2.2005 C 7.034499 2.2345 6.887999 2.273 6.742999 2.315 C 6.597999 2.3575 6.453999 2.4035 6.311499 2.454 C 6.168999 2.5045 6.027999 2.5585 5.888499 2.617 C 5.748999 2.6755 5.611499 2.7375 5.475499 2.804 C 5.339499 2.87 5.205999 2.94 5.073999 3.0135 C 4.941999 3.087 4.811999 3.1645 4.684499 3.2455 C 4.556999 3.3265 4.431499 3.4115 4.308999 3.4995 C 4.185999 3.5875 4.065999 3.679 3.947999 3.774 C 3.830499 3.869 3.715999 3.967 3.603499 4.0685 C 3.491499 4.17 3.382499 4.2745 3.276499 4.382 C 3.169999 4.4895 3.066999 4.6 2.966999 4.7135 C 2.866999 4.827 2.770499 4.943 2.676999 5.062 C 2.583999 5.181 2.493999 5.302 2.407499 5.426 C 2.320999 5.55 2.237999 5.6765 2.158499 5.805 C 2.079499 5.9335 2.003499 6.0645 1.931499 6.1975 C 1.859999 6.3305 1.791499 6.465 1.727499 6.602 C 1.662999 6.7385 1.602499 6.877 1.545999 7.0175 C 1.489499 7.1575 1.436999 7.2995 1.388499 7.4425 C 1.339999 7.5855 1.295499 7.73 1.255499 7.8755 C 1.214999 8.0215 1.178999 8.168 1.146999 8.316 C 1.114999 8.4635 1.086999 8.612 1.063499 8.7615 C 1.039499 8.9105 1.020499 9.0605 1.004999 9.211 C 0.989999 9.361 0.978999 9.512 0.972499 9.663 C 0.965999 9.814 0.963499 9.965 0.965499 10.116 C 0.966999 10.2675 0.973499 10.418 0.983999 10.569 C 0.993999 10.72 1.008999 10.87 1.027999 11.02 C 1.046999 11.17 1.069999 11.3195 1.097499 11.468 C 1.124499 11.6165 1.156499 11.7645 1.191999 11.9115 C 1.227499 12.058 1.267499 12.204 1.311499 12.3485 C 1.355499 12.493 1.403499 12.6365 1.455499 12.7785 C 1.507499 12.92 1.563499 13.0605 1.623999 13.1995 C 1.683999 13.338 1.747499 13.475 1.815499 13.61 C 1.882999 13.745 1.954499 13.8785 2.029999 14.0095 C 2.104999 14.1405 2.183999 14.2695 2.266499 14.396 C 2.348999 14.5225 2.435499 14.6465 2.524999 14.7685 C 2.614499 14.89 2.707499 15.0095 2.803499 15.126 C 2.899999 15.2425 2.999499 15.356 3.102499 15.467 C 3.204999 15.5775 3.310999 15.6855 3.419499 15.7905 C 3.528499 15.8955 3.639999 15.997 3.754999 16.0955 C 3.869499 16.194 3.986499 16.2895 4.106499 16.3815 C 4.226499 16.4735 4.348999 16.562 4.473999 16.647 C 4.598999 16.732 4.726499 16.813 4.855999 16.891 C 4.985499 16.969 5.116999 17.043 5.250999 17.1135 C 5.384999 17.1835 5.520499 17.25 5.657999 17.313 C 5.795499 17.3755 5.934499 17.4345 6.075499 17.489 C 6.216499 17.544 6.358499 17.595 6.502499 17.6415 C 6.645999 17.6885 6.790999 17.731 6.936999 17.7695 C 7.083499 17.808 7.230499 17.8425 7.378499 17.873 C 7.526499 17.903 7.675499 17.929 7.824999 17.951 C 7.974499 17.973 8.124499 17.9905 8.275499 18.004 C 8.425999 18.0175 8.576499 18.0265 8.727499 18.031 C 8.878999 18.036 9.029999 18.0365 9.180999 18.033 C 9.331999 18.0295 9.482999 18.0215 9.633499 18.009 C 9.784499 17.997 9.934499 17.9805 10.083999 17.9595 C 10.233999 17.939 10.382999 17.914 10.530999 17.885 C 10.679499 17.8555 10.826999 17.8225 10.973499 17.785 C 11.119999 17.7475 11.264999 17.706 11.408999 17.66 C 11.552999 17.6145 11.695999 17.5645 11.836999 17.511 C 11.978499 17.457 12.117999 17.3995 12.255999 17.338 C 12.393999 17.276 12.529999 17.2105 12.664499 17.1415 C 12.798999 17.072 12.930999 16.999 13.060999 16.922 C 13.191499 16.845 13.319499 16.765 13.444999 16.6805 C 13.570499 16.5965 13.693499 16.509 13.814499 16.418 C 13.934999 16.327 14.052999 16.2325 14.168499 16.135 C 14.283499 16.0375 14.395999 15.9365 14.505999 15.8325 C 14.615499 15.7285 14.721999 15.621 14.825499 15.511 C 14.928999 15.401 15.029499 15.288 15.126999 15.1725 C 15.223999 15.0565 15.317999 14.938 15.408499 14.817 C 15.498999 14.696 15.585999 14.5725 15.669499 14.4465 C 15.752999 14.3205 15.832499 14.1925 15.908999 14.062 C 15.985499 13.9315 16.057999 13.799 16.126499 13.664 C 16.195499 13.5295 16.259999 13.393 16.321499 13.255 C 16.382499 13.1165 16.439499 12.9765 16.492499 12.835 C 16.545499 12.6935 16.594999 12.551 16.639999 12.4065 C 16.684999 12.2625 16.725999 12.117 16.762999 11.9705 C 16.799499 11.8235 16.832499 11.676 16.860999 11.5275 C 16.889499 11.3795 16.913499 11.23 16.933499 11.0805 C 16.953499 10.9305 16.969499 10.7805 16.980999 10.6295 C 16.992499 10.479 16.999999 10.328 17.002999 10.177 C 17.005999 10.0255 17.004999 9.8745 16.999499 9.7235 C 16.993999 9.5725 16.983999 9.4215 16.969999 9.271 C 16.955999 9.1205 16.937999 8.9705 16.915499 8.8215 C 16.892999 8.672 16.865999 8.523 16.834999 8.375 C 16.803999 8.227 16.768999 8.08 16.729999 7.934 C 16.690499 7.7885 16.647499 7.6435 16.599999 7.5 C 16.152999 8.077 15.658499 8.6095 15.115999 9.098 C 14.573999 9.586 13.992499 10.0225 13.371999 10.4065 C 12.751499 10.7905 12.101499 11.1165 11.422999 11.384 C 10.743999 11.652 10.046499 11.857 9.330999 12 Z M 9.330999 12 " stroke="#f7f7f7" stroke-width="2" stroke-opacity="1" stroke-miterlimit="10"/><path stroke-linecap="square" transform="matrix(7.8125, 0, 0, 7.8125, 0.0000045, 0)" fill="none" stroke-linejoin="miter" d="M 23.999999 26 C 16.763999 26 10.585999 29.192 8.132999 33.689999 C 8.101999 33.750499 8.073999 33.811999 8.048999 33.874999 C 8.023999 33.938499 8.002499 34.002499 7.984499 34.067999 C 7.965999 34.133499 7.950999 34.199499 7.939999 34.266499 C 7.928499 34.333499 7.920499 34.400999 7.915999 34.468499 C 7.911499 34.536499 7.910499 34.603999 7.912499 34.671999 C 7.914999 34.739999 7.920999 34.807499 7.930499 34.874499 C 7.939999 34.941999 7.952499 35.008499 7.968999 35.074499 C 7.984999 35.140499 8.004499 35.205499 8.027499 35.268999 C 8.050499 35.332999 8.076499 35.395499 8.105999 35.456999 C 8.135499 35.517999 8.167499 35.577499 8.202999 35.635499 C 8.238499 35.693499 8.276999 35.749499 8.317999 35.803499 C 8.359499 35.857499 8.402999 35.908999 8.449999 35.958499 C 8.496499 36.007999 8.544999 36.054999 8.596499 36.099499 C 8.647999 36.143999 8.701499 36.185499 8.756999 36.224499 C 8.812499 36.263499 8.869999 36.299499 8.929499 36.332499 C 8.988499 36.365499 9.049499 36.394999 9.111999 36.421999 L 23.191999 42.642999 C 23.319499 42.698999 23.450999 42.741499 23.586999 42.770499 C 23.722999 42.798999 23.860999 42.813499 23.999999 42.813499 C 24.138999 42.813499 24.276999 42.798999 24.412999 42.770499 C 24.548999 42.741499 24.680499 42.698999 24.807999 42.642999 L 38.887999 36.421999 C 38.950499 36.394999 39.011499 36.365499 39.070499 36.332499 C 39.129999 36.299499 39.187499 36.263499 39.242999 36.224499 C 39.298499 36.185499 39.351999 36.143999 39.403499 36.099499 C 39.454999 36.054999 39.503499 36.007999 39.549999 35.958499 C 39.596999 35.908999 39.640499 35.857499 39.681999 35.803499 C 39.722999 35.749499 39.761499 35.693499 39.796999 35.635499 C 39.832499 35.577499 39.864499 35.517999 39.893999 35.456999 C 39.923499 35.395499 39.949499 35.332999 39.972499 35.268999 C 39.995499 35.205499 40.014999 35.140499 40.030999 35.074499 C 40.047499 35.008499 40.059999 34.941999 40.069499 34.874499 C 40.078999 34.807499 40.084999 34.739999 40.087499 34.671999 C 40.089499 34.603999 40.088499 34.536499 40.083999 34.468499 C 40.079499 34.400999 40.071499 34.333499 40.059999 34.266499 C 40.048999 34.199499 40.033999 34.133499 40.015499 34.067999 C 39.997499 34.002499 39.975999 33.938499 39.950999 33.874999 C 39.925999 33.811999 39.897999 33.750499 39.866999 33.689999 C 37.413999 29.192 31.235999 26 23.999999 26 Z M 23.999999 26 " stroke="#f7f7f7" stroke-width="2" stroke-opacity="1" stroke-miterlimit="10"/><path stroke-linecap="butt" transform="matrix(7.8125, 0, 0, 7.8125, 0.0000045, 0)" fill="none" stroke-linejoin="miter" d="M 15.999999 45.999999 C 15.999499 45.487499 16.047499 44.979499 16.144499 44.476499 C 16.241999 43.973499 16.386499 43.483999 16.577999 43.008999 C 16.769499 42.533499 17.004999 42.080999 17.283499 41.650999 C 17.562499 41.220999 17.879999 40.821499 18.235999 40.452999 " stroke="#f7f7f7" stroke-width="2" stroke-opacity="1" stroke-miterlimit="10"/><path stroke-linecap="butt" transform="matrix(7.8125, 0, 0, 7.8125, 0.0000045, 0)" fill="none" stroke-linejoin="miter" d="M 9.999999 45.999999 C 9.998999 45.283499 10.052499 44.570999 10.161499 43.862499 C 10.270499 43.153999 10.432999 42.457999 10.648999 41.774999 C 10.864999 41.091499 11.132499 40.428499 11.450999 39.786499 C 11.768999 39.144499 12.134999 38.530499 12.547999 37.944999 " stroke="#f7f7f7" stroke-width="2" stroke-opacity="1" stroke-miterlimit="10"/><path stroke-linecap="butt" transform="matrix(7.8125, 0, 0, 7.8125, 0.0000045, 0)" fill="none" stroke-linejoin="miter" d="M 31.999999 45.999999 C 32.000499 45.487499 31.952499 44.979499 31.855499 44.476499 C 31.757999 43.973499 31.613499 43.483999 31.421999 43.008999 C 31.230499 42.533499 30.994999 42.080999 30.716499 41.650999 C 30.437499 41.220999 30.119999 40.821499 29.763999 40.452999 " stroke="#f7f7f7" stroke-width="2" stroke-opacity="1" stroke-miterlimit="10"/><path stroke-linecap="butt" transform="matrix(7.8125, 0, 0, 7.8125, 0.0000045, 0)" fill="none" stroke-linejoin="miter" d="M 37.999999 45.999999 C 38.000999 45.283499 37.947499 44.570999 37.838499 43.862499 C 37.729499 43.153999 37.566999 42.457999 37.350999 41.774999 C 37.134999 41.091499 36.867499 40.428499 36.548999 39.786499 C 36.230999 39.144499 35.864999 38.530499 35.451999 37.944999 " stroke="#f7f7f7" stroke-width="2" stroke-opacity="1" stroke-miterlimit="10"/><path stroke-linecap="butt" transform="matrix(7.8125, 0, 0, 7.8125, 0.0000045, 0)" fill="none" stroke-linejoin="miter" d="M 4.999999 17 C 4.999999 17 2.999999 25 9.999999 27 " stroke="#f7f7f7" stroke-width="2" stroke-opacity="1" stroke-miterlimit="10"/><path stroke-linecap="square" transform="matrix(7.8125, 0, 0, 7.8125, 0.0000045, 0)" fill="none" stroke-linejoin="miter" d="M 38.668999 12 C 39.749999 8 38.999999 5.313 35.928999 2.613 C 36.068499 2.555 36.209499 2.5005 36.351999 2.4505 C 36.494499 2.4005 36.638499 2.354 36.783999 2.312 C 36.928999 2.27 37.074999 2.232 37.222499 2.1985 C 37.369999 2.1645 37.517999 2.135 37.666999 2.1095 C 37.815999 2.084 37.965499 2.063 38.115999 2.046 C 38.265999 2.029 38.416499 2.0165 38.567499 2.008 C 38.718499 1.9995 38.869499 1.9955 39.020499 1.9955 C 39.171499 1.9955 39.322999 2 39.473499 2.0085 C 39.624499 2.017 39.774999 2.03 39.925499 2.047 C 40.075499 2.0645 40.224999 2.0855 40.373999 2.1115 C 40.522999 2.137 40.670999 2.1665 40.818499 2.2005 C 40.965499 2.2345 41.111999 2.273 41.256999 2.315 C 41.401999 2.3575 41.545999 2.4035 41.688499 2.454 C 41.830999 2.5045 41.971999 2.5585 42.111499 2.617 C 42.250999 2.6755 42.388499 2.7375 42.524499 2.804 C 42.660499 2.87 42.793999 2.94 42.925999 3.0135 C 43.057999 3.087 43.187999 3.1645 43.315499 3.2455 C 43.442999 3.3265 43.568499 3.4115 43.690999 3.4995 C 43.813999 3.5875 43.933999 3.679 44.051999 3.774 C 44.169499 3.869 44.283999 3.967 44.396499 4.0685 C 44.508499 4.17 44.617499 4.2745 44.723499 4.382 C 44.829999 4.4895 44.932999 4.6 45.032999 4.7135 C 45.132999 4.827 45.229499 4.943 45.322999 5.062 C 45.415999 5.181 45.505999 5.302 45.592499 5.426 C 45.678999 5.55 45.761999 5.6765 45.841499 5.805 C 45.920499 5.9335 45.996499 6.0645 46.068499 6.1975 C 46.139999 6.3305 46.208499 6.465 46.272499 6.602 C 46.336999 6.7385 46.397499 6.877 46.453999 7.0175 C 46.510499 7.1575 46.562999 7.2995 46.611499 7.4425 C 46.659999 7.5855 46.704499 7.73 46.744499 7.8755 C 46.784999 8.0215 46.820999 8.168 46.852999 8.316 C 46.884999 8.4635 46.912999 8.612 46.936499 8.7615 C 46.960499 8.9105 46.979499 9.0605 46.994999 9.211 C 47.009999 9.361 47.020999 9.512 47.027499 9.663 C 47.033999 9.814 47.036499 9.965 47.034499 10.116 C 47.032999 10.2675 47.026499 10.418 47.015999 10.569 C 47.005999 10.72 46.990999 10.87 46.971999 11.02 C 46.952999 11.17 46.929999 11.3195 46.902499 11.468 C 46.875499 11.6165 46.843499 11.7645 46.807999 11.9115 C 46.772499 12.058 46.732499 12.204 46.688499 12.3485 C 46.644499 12.493 46.596499 12.6365 46.544499 12.7785 C 46.492499 12.92 46.436499 13.0605 46.376499 13.1995 C 46.315999 13.338 46.252499 13.475 46.184499 13.61 C 46.116999 13.745 46.045499 13.8785 45.969999 14.0095 C 45.894999 14.1405 45.815999 14.2695 45.733499 14.396 C 45.650999 14.5225 45.564499 14.6465 45.474999 14.7685 C 45.385499 14.89 45.292499 15.0095 45.196499 15.126 C 45.099999 15.2425 45.000499 15.356 44.897499 15.467 C 44.794999 15.5775 44.688999 15.6855 44.580499 15.7905 C 44.471499 15.8955 44.359999 15.997 44.244999 16.0955 C 44.130499 16.194 44.013499 16.2895 43.893499 16.3815 C 43.773499 16.4735 43.650999 16.5615 43.525999 16.647 C 43.400999 16.732 43.273499 16.813 43.143999 16.891 C 43.014499 16.969 42.882999 17.043 42.748999 17.1135 C 42.614999 17.1835 42.479499 17.25 42.341999 17.313 C 42.204499 17.3755 42.065499 17.4345 41.924499 17.489 C 41.783499 17.544 41.641499 17.595 41.497499 17.6415 C 41.353999 17.6885 41.208999 17.731 41.062999 17.7695 C 40.916499 17.808 40.769499 17.8425 40.621499 17.873 C 40.473499 17.903 40.324499 17.929 40.174999 17.951 C 40.025499 17.973 39.875499 17.9905 39.724499 18.004 C 39.573999 18.0175 39.423499 18.0265 39.272499 18.031 C 39.120999 18.036 38.969999 18.0365 38.818999 18.033 C 38.667999 18.0295 38.516999 18.0215 38.366499 18.009 C 38.215499 17.997 38.065499 17.9805 37.915999 17.9595 C 37.765999 17.939 37.616999 17.914 37.468999 17.885 C 37.320499 17.8555 37.172999 17.8225 37.026499 17.785 C 36.879999 17.7475 36.734999 17.706 36.590999 17.66 C 36.446999 17.6145 36.303999 17.5645 36.162999 17.511 C 36.021499 17.457 35.881999 17.3995 35.743999 17.338 C 35.605999 17.276 35.469999 17.2105 35.335499 17.1415 C 35.200999 17.072 35.068999 16.999 34.938999 16.922 C 34.808499 16.845 34.680499 16.765 34.554999 16.6805 C 34.429499 16.5965 34.306499 16.509 34.185499 16.418 C 34.064999 16.327 33.946999 16.2325 33.831499 16.135 C 33.716499 16.0375 33.603999 15.9365 33.493999 15.8325 C 33.384499 15.7285 33.277999 15.621 33.174499 15.511 C 33.070999 15.401 32.970499 15.288 32.872999 15.1725 C 32.775999 15.0565 32.681999 14.938 32.591499 14.817 C 32.500999 14.696 32.413999 14.5725 32.330499 14.4465 C 32.246999 14.3205 32.167499 14.1925 32.090999 14.062 C 32.014499 13.9315 31.941999 13.799 31.873499 13.664 C 31.804499 13.5295 31.739999 13.393 31.678499 13.255 C 31.617499 13.1165 31.560499 12.9765 31.507499 12.835 C 31.454499 12.6935 31.404999 12.551 31.359999 12.4065 C 31.314999 12.2625 31.273999 12.117 31.236999 11.9705 C 31.200499 11.8235 31.167499 11.676 31.138999 11.5275 C 31.110499 11.3795 31.086499 11.23 31.066499 11.0805 C 31.046499 10.9305 31.030499 10.7805 31.018999 10.6295 C 31.007499 10.479 30.999999 10.328 30.996999 10.177 C 30.993999 10.0255 30.994999 9.8745 31.000499 9.7235 C 31.005999 9.5725 31.015999 9.4215 31.029999 9.271 C 31.043999 9.1205 31.061999 8.9705 31.084499 8.8215 C 31.106999 8.672 31.133999 8.523 31.164999 8.375 C 31.195999 8.227 31.230999 8.08 31.269999 7.934 C 31.309499 7.7885 31.352499 7.6435 31.399999 7.5 C 31.846999 8.077 32.341499 8.6095 32.883999 9.098 C 33.425999 9.586 34.007499 10.0225 34.627999 10.4065 C 35.248499 10.7905 35.898499 11.1165 36.576999 11.384 C 37.255999 11.652 37.953499 11.857 38.668999 12 Z M 38.668999 12 " stroke="#f7f7f7" stroke-width="2" stroke-opacity="1" stroke-miterlimit="10"/><path stroke-linecap="butt" transform="matrix(7.8125, 0, 0, 7.8125, 0.0000045, 0)" fill="none" stroke-linejoin="miter" d="M 42.999999 17 C 42.999999 17 44.999999 25 37.999999 27 " stroke="#f7f7f7" stroke-width="2" stroke-opacity="1" stroke-miterlimit="10"/></svg>