<svg xmlns="http://www.w3.org/2000/svg" xmlns:xlink="http://www.w3.org/1999/xlink" width="500" zoomAndPan="magnify" viewBox="0 0 375 374.999991" height="500" preserveAspectRatio="xMidYMid meet" version="1.0"><defs><filter x="0%" y="0%" width="100%" height="100%" id="f7705d8d9d"><feColorMatrix values="0 0 0 0 1 0 0 0 0 1 0 0 0 0 1 0 0 0 1 0" color-interpolation-filters="sRGB"/></filter><mask id="2e844d6683"><g filter="url(#f7705d8d9d)"><rect x="-37.5" width="450" fill="#000000" y="-37.499999" height="449.999989" fill-opacity="0.3"/></g></mask><clipPath id="321c4dc54c"><path d="M 0.28125 0.679688 L 156.761719 0.679688 L 156.761719 133.640625 L 0.28125 133.640625 Z M 0.28125 0.679688 " clip-rule="nonzero"/></clipPath><clipPath id="c7070fb9d7"><rect x="0" width="157" y="0" height="134"/></clipPath><mask id="57a0c7db27"><g filter="url(#f7705d8d9d)"><rect x="-37.5" width="450" fill="#000000" y="-37.499999" height="449.999989" fill-opacity="0.3"/></g></mask><clipPath id="c7d844a891"><path d="M 0.121094 0.679688 L 156.601562 0.679688 L 156.601562 133.640625 L 0.121094 133.640625 Z M 0.121094 0.679688 " clip-rule="nonzero"/></clipPath><clipPath id="58e4fad19c"><rect x="0" width="157" y="0" height="134"/></clipPath></defs><rect x="-37.5" width="450" fill="#ffffff" y="-37.499999" height="449.999989" fill-opacity="1"/><rect x="-37.5" width="450" fill="#d7dedc" y="-37.499999" height="449.999989" fill-opacity="1"/><g mask="url(#2e844d6683)"><g transform="matrix(1, 0, 0, 1, 23, 7)"><g clip-path="url(#c7070fb9d7)"><g clip-path="url(#321c4dc54c)"><path fill="#595959" d="M 156.6875 125.8125 C 148.875 78.9375 125.4375 0.8125 47.3125 0.8125 C 8.25 0.8125 0.4375 16.4375 0.4375 16.4375 C 94.1875 24.25 86.375 133.625 86.375 133.625 " fill-opacity="1" fill-rule="nonzero"/></g></g></g></g><g mask="url(#57a0c7db27)"><g transform="matrix(1, 0, 0, 1, 195, 7)"><g clip-path="url(#58e4fad19c)"><g clip-path="url(#c7d844a891)"><path fill="#595959" d="M 0.3125 125.8125 C 8.125 78.9375 31.5625 0.8125 109.6875 0.8125 C 148.75 0.8125 156.5625 16.4375 156.5625 16.4375 C 62.8125 24.25 70.625 133.625 70.625 133.625 " fill-opacity="1" fill-rule="nonzero"/></g></g></g></g><path fill="#595959" d="M 156.25 226.5625 C 156.25 227.589844 156.148438 228.605469 155.949219 229.609375 C 155.75 230.617188 155.453125 231.59375 155.0625 232.542969 C 154.667969 233.488281 154.1875 234.390625 153.617188 235.242188 C 153.046875 236.097656 152.398438 236.886719 151.671875 237.609375 C 150.949219 238.335938 150.160156 238.984375 149.304688 239.554688 C 148.453125 240.125 147.550781 240.605469 146.605469 241 C 145.65625 241.390625 144.679688 241.6875 143.671875 241.886719 C 142.667969 242.085938 141.652344 242.1875 140.625 242.1875 C 139.597656 242.1875 138.582031 242.085938 137.578125 241.886719 C 136.570312 241.6875 135.59375 241.390625 134.644531 241 C 133.699219 240.605469 132.796875 240.125 131.945312 239.554688 C 131.089844 238.984375 130.300781 238.335938 129.578125 237.609375 C 128.851562 236.886719 128.203125 236.097656 127.632812 235.242188 C 127.0625 234.390625 126.582031 233.488281 126.1875 232.542969 C 125.796875 231.59375 125.5 230.617188 125.300781 229.609375 C 125.101562 228.605469 125 227.589844 125 226.5625 C 125 225.535156 125.101562 224.519531 125.300781 223.515625 C 125.5 222.507812 125.796875 221.53125 126.1875 220.582031 C 126.582031 219.636719 127.0625 218.734375 127.632812 217.882812 C 128.203125 217.027344 128.851562 216.238281 129.578125 215.515625 C 130.300781 214.789062 131.089844 214.140625 131.945312 213.570312 C 132.796875 213 133.699219 212.519531 134.644531 212.125 C 135.59375 211.734375 136.570312 211.4375 137.578125 211.238281 C 138.582031 211.039062 139.597656 210.9375 140.625 210.9375 C 141.652344 210.9375 142.667969 211.039062 143.671875 211.238281 C 144.679688 211.4375 145.65625 211.734375 146.605469 212.125 C 147.550781 212.519531 148.453125 213 149.304688 213.570312 C 150.160156 214.140625 150.949219 214.789062 151.671875 215.515625 C 152.398438 216.238281 153.046875 217.027344 153.617188 217.882812 C 154.1875 218.734375 154.667969 219.636719 155.0625 220.582031 C 155.453125 221.53125 155.75 222.507812 155.949219 223.515625 C 156.148438 224.519531 156.25 225.535156 156.25 226.5625 Z M 156.25 226.5625 " fill-opacity="1" fill-rule="nonzero"/><path fill="#595959" d="M 250 226.5625 C 250 227.589844 249.898438 228.605469 249.699219 229.609375 C 249.5 230.617188 249.203125 231.59375 248.8125 232.542969 C 248.417969 233.488281 247.9375 234.390625 247.367188 235.242188 C 246.796875 236.097656 246.148438 236.886719 245.421875 237.609375 C 244.699219 238.335938 243.910156 238.984375 243.054688 239.554688 C 242.203125 240.125 241.300781 240.605469 240.355469 241 C 239.40625 241.390625 238.429688 241.6875 237.421875 241.886719 C 236.417969 242.085938 235.402344 242.1875 234.375 242.1875 C 233.347656 242.1875 232.332031 242.085938 231.328125 241.886719 C 230.320312 241.6875 229.34375 241.390625 228.394531 241 C 227.449219 240.605469 226.546875 240.125 225.695312 239.554688 C 224.839844 238.984375 224.050781 238.335938 223.328125 237.609375 C 222.601562 236.886719 221.953125 236.097656 221.382812 235.242188 C 220.8125 234.390625 220.332031 233.488281 219.9375 232.542969 C 219.546875 231.59375 219.25 230.617188 219.050781 229.609375 C 218.851562 228.605469 218.75 227.589844 218.75 226.5625 C 218.75 225.535156 218.851562 224.519531 219.050781 223.515625 C 219.25 222.507812 219.546875 221.53125 219.9375 220.582031 C 220.332031 219.636719 220.8125 218.734375 221.382812 217.882812 C 221.953125 217.027344 222.601562 216.238281 223.328125 215.515625 C 224.050781 214.789062 224.839844 214.140625 225.695312 213.570312 C 226.546875 213 227.449219 212.519531 228.394531 212.125 C 229.34375 211.734375 230.320312 211.4375 231.328125 211.238281 C 232.332031 211.039062 233.347656 210.9375 234.375 210.9375 C 235.402344 210.9375 236.417969 211.039062 237.421875 211.238281 C 238.429688 211.4375 239.40625 211.734375 240.355469 212.125 C 241.300781 212.519531 242.203125 213 243.054688 213.570312 C 243.910156 214.140625 244.699219 214.789062 245.421875 215.515625 C 246.148438 216.238281 246.796875 217.027344 247.367188 217.882812 C 247.9375 218.734375 248.417969 219.636719 248.8125 220.582031 C 249.203125 221.53125 249.5 222.507812 249.699219 223.515625 C 249.898438 224.519531 250 225.535156 250 226.5625 Z M 250 226.5625 " fill-opacity="1" fill-rule="nonzero"/><path stroke-linecap="butt" transform="matrix(7.8125, 0, 0, 7.8125, 0.0000045, 0)" fill="none" stroke-linejoin="miter" d="M 12.999999 19 L 12.999999 29.343 C 12.999999 29.6055 13.025499 29.866 13.076999 30.1235 C 13.127999 30.381 13.203999 30.6315 13.304499 30.873999 C 13.404999 31.116999 13.528499 31.347499 13.674499 31.565999 C 13.820499 31.783999 13.985999 31.986499 14.171999 32.171999 L 16.999999 34.999999 L 19.029999 43.118999 C 19.064499 43.256499 19.104499 43.391999 19.149999 43.525999 C 19.195499 43.659999 19.246499 43.791999 19.302999 43.921999 C 19.359499 44.051999 19.421499 44.178999 19.488499 44.303499 C 19.555499 44.428499 19.627499 44.549999 19.704499 44.668999 C 19.781999 44.787499 19.863999 44.902999 19.950499 45.014999 C 20.037499 45.126999 20.128499 45.234999 20.223999 45.339499 C 20.319999 45.443499 20.419499 45.543999 20.523499 45.639999 C 20.627499 45.735999 20.735499 45.827499 20.846999 45.914999 C 20.958499 46.001999 21.073499 46.084499 21.191999 46.161999 C 21.310499 46.239499 21.431999 46.311999 21.556499 46.379499 C 21.680999 46.446999 21.807999 46.509499 21.937499 46.566499 C 22.066999 46.623499 22.198999 46.674999 22.332999 46.720999 C 22.466499 46.766999 22.601999 46.807499 22.739499 46.842499 C 22.876499 46.877499 23.014999 46.906499 23.154999 46.929999 C 23.294499 46.952999 23.434999 46.970499 23.575999 46.982499 C 23.716999 46.993999 23.858499 46.999999 23.999999 46.999999 C 24.141499 46.999999 24.282999 46.993999 24.423999 46.982499 C 24.564999 46.970499 24.705499 46.952999 24.844999 46.929999 C 24.984999 46.906499 25.123499 46.877499 25.260499 46.842499 C 25.397999 46.807499 25.533499 46.766999 25.666999 46.720999 C 25.800999 46.674999 25.932999 46.623499 26.062499 46.566499 C 26.191999 46.509499 26.318999 46.446999 26.443499 46.379499 C 26.567999 46.311999 26.689499 46.239499 26.807999 46.161999 C 26.926499 46.084499 27.041499 46.001999 27.152999 45.914999 C 27.264499 45.827499 27.372499 45.735999 27.476499 45.639999 C 27.580499 45.543999 27.679999 45.443499 27.775999 45.339499 C 27.871499 45.234999 27.962499 45.126499 28.049499 45.014999 C 28.135999 44.902999 28.217999 44.787499 28.295499 44.668999 C 28.372499 44.549999 28.444499 44.428499 28.511499 44.303499 C 28.578499 44.178999 28.640499 44.051999 28.696999 43.921999 C 28.753499 43.791999 28.804499 43.659999 28.849999 43.525999 C 28.895499 43.391999 28.935499 43.256499 28.969999 43.118999 L 30.999999 34.999999 L 33.827999 32.171999 C 34.013999 31.986499 34.179499 31.783999 34.325499 31.565999 C 34.471499 31.347499 34.594999 31.116999 34.695499 30.873999 C 34.795999 30.6315 34.871999 30.381 34.922999 30.1235 C 34.974499 29.866 34.999999 29.6055 34.999999 29.343 L 34.999999 19 C 34.122499 18.67 33.231999 18.38 32.328499 18.1305 C 31.425499 17.8805 30.512499 17.6715 29.589999 17.504 C 28.667999 17.3365 27.739999 17.2105 26.806499 17.1265 C 25.872999 17.042 24.937499 17 23.999999 17 C 23.062499 17 22.126999 17.042 21.193499 17.1265 C 20.259999 17.2105 19.331999 17.3365 18.409999 17.504 C 17.487499 17.6715 16.574499 17.8805 15.671499 18.1305 C 14.767999 18.38 13.877499 18.67 12.999999 19 Z M 12.999999 19 " stroke="#f7f7f7" stroke-width="2" stroke-opacity="1" stroke-miterlimit="10"/><path stroke-linecap="butt" transform="matrix(7.8125, 0, 0, 7.8125, 0.0000045, 0)" fill="none" stroke-linejoin="miter" d="M 26.999999 39.676999 C 26.956999 39.841999 26.900999 40.001999 26.831499 40.157999 C 26.761999 40.313499 26.680499 40.462499 26.586499 40.604499 C 26.492999 40.746499 26.387999 40.879999 26.271999 41.004999 C 26.155999 41.129999 26.030499 41.244499 25.895999 41.348499 C 25.760999 41.452999 25.618499 41.545499 25.468499 41.625999 C 25.318499 41.706499 25.162999 41.774499 25.001499 41.829499 C 24.840499 41.884499 24.675999 41.925999 24.507499 41.953999 C 24.339499 41.981999 24.170499 41.995999 23.999999 41.995999 C 23.829499 41.995999 23.660499 41.981999 23.492499 41.953999 C 23.323999 41.925999 23.159499 41.884499 22.998499 41.829499 C 22.836999 41.774499 22.681499 41.706499 22.531499 41.625999 C 22.381499 41.545499 22.238999 41.452999 22.103999 41.348499 C 21.969499 41.244499 21.843999 41.129999 21.727999 41.004999 C 21.611999 40.879999 21.506999 40.746499 21.413499 40.604499 C 21.319499 40.462499 21.237999 40.313499 21.168499 40.157999 C 21.098999 40.001999 21.042999 39.841999 20.999999 39.676999 " stroke="#f7f7f7" stroke-width="2" stroke-opacity="1" stroke-miterlimit="10"/><path stroke-linecap="butt" transform="matrix(7.8125, 0, 0, 7.8125, 0.0000045, 0)" fill="none" stroke-linejoin="miter" d="M 23.999999 41.999999 L 23.999999 46.999999 " stroke="#f7f7f7" stroke-width="2" stroke-opacity="1" stroke-miterlimit="10"/><path stroke-linecap="butt" transform="matrix(7.8125, 0, 0, 7.8125, 0.0000045, 0)" fill="none" stroke-linejoin="miter" d="M 9.999999 21.8 C 9.720499 21.743 9.443499 21.674 9.169499 21.593 C 8.895999 21.5125 8.625999 21.42 8.359999 21.316 C 8.093999 21.212 7.832999 21.097 7.576999 20.9705 C 7.320999 20.8445 7.070499 20.7075 6.826499 20.5595 C 6.581999 20.412 6.344499 20.254 6.113499 20.086 C 5.882999 19.918 5.659499 19.7405 5.443999 19.553 C 5.228499 19.366 5.020999 19.17 4.822499 18.965 C 4.623499 18.76 4.433999 18.547 4.253499 18.326 C 4.072999 18.1045 3.901999 17.876 3.740999 17.6405 C 3.579999 17.4045 3.429499 17.1625 3.289499 16.9135 C 3.148999 16.665 3.019499 16.4105 2.900999 16.151 C 2.782999 15.891 2.675499 15.6265 2.579999 15.3575 C 2.483999 15.0885 2.399999 14.816 2.327499 14.54 C 2.254999 14.264 2.194499 13.985 2.145999 13.7035 C 2.097499 13.4225 2.060999 13.1395 2.036499 12.855 C 2.011999 12.5705 1.999999 12.2855 1.999999 12 L 7.999999 12 C 8.163999 12 8.326999 12.008 8.489999 12.024 C 8.652999 12.04 8.814999 12.064 8.975499 12.096 C 9.135999 12.128 9.294499 12.168 9.451499 12.2155 C 9.607999 12.263 9.761999 12.318 9.913499 12.3805 C 10.064499 12.4435 10.212499 12.513 10.356999 12.5905 C 10.501499 12.6675 10.641499 12.7515 10.777999 12.8425 C 10.913999 12.9335 11.045499 13.031 11.171999 13.135 C 11.298499 13.239 11.419499 13.3485 11.535499 13.4645 C 11.651499 13.5805 11.760999 13.7015 11.864999 13.828 C 11.968999 13.9545 12.066499 14.086 12.157499 14.222 C 12.248499 14.3585 12.332499 14.4985 12.409499 14.643 C 12.486999 14.7875 12.556499 14.9355 12.619499 15.0865 C 12.681999 15.238 12.736999 15.392 12.784499 15.5485 C 12.831999 15.7055 12.871999 15.864 12.903999 16.0245 C 12.935999 16.185 12.959999 16.347 12.975999 16.51 C 12.991999 16.673 12.999999 16.836 12.999999 17 L 12.999999 22 " stroke="#f7f7f7" stroke-width="2" stroke-opacity="1" stroke-miterlimit="10"/><path stroke-linecap="butt" transform="matrix(7.8125, 0, 0, 7.8125, 0.0000045, 0)" fill="none" stroke-linejoin="miter" d="M 37.999999 21.8 C 38.279499 21.743 38.556499 21.674 38.830499 21.593 C 39.103999 21.5125 39.373999 21.42 39.639999 21.316 C 39.905999 21.212 40.166999 21.097 40.422999 20.9705 C 40.678999 20.8445 40.929499 20.7075 41.173499 20.5595 C 41.417999 20.412 41.655499 20.254 41.886499 20.086 C 42.116999 19.918 42.340499 19.7405 42.555999 19.553 C 42.771499 19.366 42.978999 19.17 43.177499 18.965 C 43.376499 18.76 43.565999 18.547 43.746499 18.326 C 43.926999 18.1045 44.097999 17.876 44.258999 17.6405 C 44.419999 17.4045 44.570499 17.1625 44.710499 16.9135 C 44.850999 16.665 44.980499 16.4105 45.098999 16.151 C 45.216999 15.891 45.324499 15.6265 45.419999 15.3575 C 45.515999 15.0885 45.599999 14.816 45.672499 14.54 C 45.744999 14.264 45.805499 13.985 45.853999 13.7035 C 45.902499 13.4225 45.938999 13.1395 45.963499 12.855 C 45.987999 12.5705 45.999999 12.2855 45.999999 12 L 39.999999 12 C 39.835999 12 39.672999 12.008 39.509999 12.024 C 39.346999 12.04 39.184999 12.064 39.024499 12.096 C 38.863999 12.128 38.705499 12.168 38.548499 12.2155 C 38.391999 12.263 38.237999 12.318 38.086499 12.3805 C 37.935499 12.4435 37.787499 12.513 37.642999 12.5905 C 37.498499 12.6675 37.358499 12.7515 37.221999 12.8425 C 37.085999 12.9335 36.954499 13.031 36.827999 13.135 C 36.701499 13.239 36.580499 13.3485 36.464499 13.4645 C 36.348499 13.5805 36.238999 13.7015 36.134999 13.828 C 36.030999 13.9545 35.933499 14.086 35.842499 14.222 C 35.751499 14.3585 35.667499 14.4985 35.590499 14.643 C 35.512999 14.7875 35.443499 14.9355 35.380499 15.0865 C 35.317999 15.238 35.262999 15.392 35.215499 15.5485 C 35.167999 15.7055 35.127999 15.864 35.095999 16.0245 C 35.063999 16.185 35.039999 16.347 35.023999 16.51 C 35.007999 16.673 34.999999 16.836 34.999999 17 L 34.999999 22 " stroke="#f7f7f7" stroke-width="2" stroke-opacity="1" stroke-miterlimit="10"/><path stroke-linecap="butt" transform="matrix(7.8125, 0, 0, 7.8125, 0.0000045, 0)" fill="none" stroke-linejoin="miter" d="M 22.999999 17 C 21.999999 11 18.999999 1 8.999999 1 C 3.999999 1 2.999999 3 2.999999 3 C 14.999999 4 13.999999 18 13.999999 18 " stroke="#f7f7f7" stroke-width="2" stroke-opacity="1" stroke-miterlimit="10"/><path stroke-linecap="butt" transform="matrix(7.8125, 0, 0, 7.8125, 0.0000045, 0)" fill="none" stroke-linejoin="miter" d="M 24.999999 17 C 25.999999 11 28.999999 1 38.999999 1 C 43.999999 1 44.999999 3 44.999999 3 C 32.999999 4 33.999999 18 33.999999 18 " stroke="#f7f7f7" stroke-width="2" stroke-opacity="1" stroke-miterlimit="10"/></svg>