<svg xmlns="http://www.w3.org/2000/svg" xmlns:xlink="http://www.w3.org/1999/xlink" width="500" zoomAndPan="magnify" viewBox="0 0 375 374.999991" height="500" preserveAspectRatio="xMidYMid meet" version="1.0"><defs><filter x="0%" y="0%" width="100%" height="100%" id="5f7c90709e"><feColorMatrix values="0 0 0 0 1 0 0 0 0 1 0 0 0 0 1 0 0 0 1 0" color-interpolation-filters="sRGB"/></filter><mask id="6c92ac9ba7"><g filter="url(#5f7c90709e)"><rect x="-37.5" width="450" fill="#000000" y="-37.499999" height="449.999989" fill-opacity="0.3"/></g></mask><clipPath id="f22a071690"><rect x="0" width="345" y="0" height="368"/></clipPath></defs><rect x="-37.5" width="450" fill="#ffffff" y="-37.499999" height="449.999989" fill-opacity="1"/><rect x="-37.5" width="450" fill="#d7dedc" y="-37.499999" height="449.999989" fill-opacity="1"/><g mask="url(#6c92ac9ba7)"><g transform="matrix(1, 0, 0, 1, 15, 0)"><g clip-path="url(#f22a071690)"><path fill="#595959" d="M 318.335938 106.117188 C 322.421875 106.839844 326.34375 108.085938 330.097656 109.855469 C 333.851562 111.621094 337.308594 113.851562 340.46875 116.539062 C 337.867188 72.265625 297.828125 77.476562 274.0625 38.414062 C 274.0625 38.414062 285.78125 39.390625 289.6875 23.4375 C 271.460938 23.539062 250.625 0 211.5625 15.625 C 205.402344 12.953125 199.03125 10.960938 192.445312 9.644531 C 185.863281 8.328125 179.214844 7.714844 172.5 7.8125 C 165.785156 7.714844 159.136719 8.328125 152.554688 9.644531 C 145.96875 10.960938 139.597656 12.953125 133.4375 15.625 C 94.375 0 73.539062 23.539062 55.3125 23.4375 C 59.21875 39.390625 70.9375 38.414062 70.9375 38.414062 C 47.171875 77.476562 7.132812 72.265625 4.53125 116.539062 C 7.691406 113.851562 11.148438 111.621094 14.902344 109.855469 C 18.65625 108.085938 22.578125 106.839844 26.664062 106.117188 C -41.695312 250 52.039062 329.429688 52.039062 329.429688 C 52.742188 318.351562 54.703125 307.5 57.914062 296.875 C 80.054688 363.28125 144.507812 339.84375 172.5 365.882812 C 200.492188 339.84375 264.945312 363.28125 287.085938 296.875 C 290.296875 307.5 292.257812 318.351562 292.960938 329.429688 C 292.960938 329.429688 386.695312 250 318.335938 106.117188 Z M 285.6875 188.414062 L 254.90625 231.9375 L 254.804688 231.9375 C 256.378906 234.285156 257.683594 236.777344 258.71875 239.410156 C 259.753906 242.042969 260.492188 244.753906 260.933594 247.546875 C 261.378906 250.339844 261.515625 253.148438 261.347656 255.972656 C 261.179688 258.796875 260.710938 261.566406 259.9375 264.289062 L 257.101562 274.210938 C 256.636719 275.832031 256.046875 277.40625 255.328125 278.933594 C 254.609375 280.457031 253.773438 281.917969 252.820312 283.308594 C 251.867188 284.699219 250.804688 286.003906 249.640625 287.222656 C 248.476562 288.441406 247.21875 289.558594 245.871094 290.574219 C 244.527344 291.589844 243.105469 292.488281 241.613281 293.277344 C 240.121094 294.0625 238.578125 294.722656 236.976562 295.257812 C 235.378906 295.792969 233.746094 296.195312 232.082031 296.46875 C 230.417969 296.738281 228.742188 296.875 227.054688 296.875 L 219.375 296.875 L 219.375 304.6875 C 219.375 305.457031 219.335938 306.222656 219.261719 306.984375 C 219.1875 307.75 219.074219 308.507812 218.925781 309.261719 C 218.773438 310.011719 218.589844 310.757812 218.367188 311.492188 C 218.144531 312.226562 217.882812 312.949219 217.589844 313.65625 C 217.296875 314.367188 216.96875 315.058594 216.609375 315.734375 C 216.246094 316.414062 215.851562 317.070312 215.425781 317.707031 C 215 318.347656 214.542969 318.960938 214.054688 319.554688 C 213.566406 320.148438 213.054688 320.71875 212.511719 321.261719 C 211.96875 321.804688 211.398438 322.316406 210.804688 322.804688 C 210.210938 323.292969 209.597656 323.75 208.957031 324.175781 C 208.320312 324.601562 207.664062 324.996094 206.984375 325.359375 C 206.308594 325.71875 205.617188 326.046875 204.90625 326.339844 C 204.199219 326.632812 203.476562 326.894531 202.742188 327.117188 C 202.007812 327.339844 201.261719 327.523438 200.511719 327.675781 C 199.757812 327.824219 199 327.9375 198.234375 328.011719 C 197.472656 328.085938 196.707031 328.125 195.9375 328.125 L 149.0625 328.125 C 148.292969 328.125 147.527344 328.085938 146.765625 328.011719 C 146 327.9375 145.242188 327.824219 144.488281 327.675781 C 143.738281 327.523438 142.992188 327.339844 142.257812 327.117188 C 141.523438 326.894531 140.800781 326.632812 140.09375 326.339844 C 139.382812 326.046875 138.691406 325.71875 138.015625 325.359375 C 137.335938 324.996094 136.679688 324.601562 136.042969 324.175781 C 135.402344 323.75 134.789062 323.292969 134.195312 322.804688 C 133.601562 322.316406 133.03125 321.804688 132.488281 321.261719 C 131.945312 320.71875 131.433594 320.148438 130.945312 319.554688 C 130.457031 318.960938 130 318.347656 129.574219 317.707031 C 129.148438 317.070312 128.753906 316.414062 128.390625 315.734375 C 128.03125 315.058594 127.703125 314.367188 127.410156 313.65625 C 127.117188 312.949219 126.855469 312.226562 126.632812 311.492188 C 126.410156 310.757812 126.226562 310.011719 126.074219 309.261719 C 125.925781 308.507812 125.8125 307.75 125.738281 306.984375 C 125.664062 306.222656 125.625 305.457031 125.625 304.6875 L 125.625 296.875 L 117.945312 296.875 C 116.257812 296.875 114.582031 296.738281 112.917969 296.46875 C 111.253906 296.199219 109.625 295.792969 108.023438 295.257812 C 106.425781 294.722656 104.878906 294.0625 103.386719 293.277344 C 101.894531 292.492188 100.476562 291.59375 99.128906 290.578125 C 97.78125 289.5625 96.527344 288.445312 95.359375 287.226562 C 94.195312 286.007812 93.136719 284.703125 92.179688 283.3125 C 91.226562 281.921875 90.390625 280.464844 89.671875 278.9375 C 88.953125 277.414062 88.363281 275.839844 87.898438 274.21875 L 85.0625 264.296875 C 84.289062 261.574219 83.820312 258.804688 83.652344 255.980469 C 83.484375 253.15625 83.621094 250.347656 84.066406 247.554688 C 84.507812 244.761719 85.246094 242.050781 86.28125 239.417969 C 87.316406 236.785156 88.621094 234.292969 90.195312 231.945312 L 90.101562 231.945312 L 59.3125 188.414062 C 58.402344 187.140625 57.574219 185.820312 56.824219 184.449219 C 56.074219 183.074219 55.410156 181.664062 54.828125 180.210938 C 54.25 178.761719 53.757812 177.277344 53.355469 175.769531 C 52.953125 174.257812 52.640625 172.726562 52.421875 171.179688 C 52.203125 169.632812 52.078125 168.074219 52.046875 166.511719 C 52.015625 164.949219 52.078125 163.390625 52.230469 161.835938 C 52.386719 160.277344 52.632812 158.738281 52.976562 157.210938 C 53.316406 155.683594 53.746094 154.183594 54.265625 152.710938 L 75.703125 91.960938 C 75.996094 91.136719 76.308594 90.320312 76.640625 89.511719 C 76.976562 88.703125 77.332031 87.90625 77.707031 87.117188 C 78.085938 86.324219 78.480469 85.546875 78.898438 84.777344 C 79.316406 84.011719 79.757812 83.253906 80.214844 82.507812 C 80.671875 81.765625 81.148438 81.03125 81.644531 80.3125 C 82.144531 79.589844 82.660156 78.886719 83.191406 78.191406 C 83.726562 77.5 84.28125 76.824219 84.851562 76.160156 C 85.421875 75.496094 86.007812 74.847656 86.613281 74.214844 C 87.214844 73.585938 87.835938 72.96875 88.472656 72.371094 C 89.113281 71.769531 89.765625 71.1875 90.433594 70.625 C 91.101562 70.058594 91.78125 69.511719 92.480469 68.984375 C 93.175781 68.457031 93.886719 67.945312 94.609375 67.457031 C 95.335938 66.964844 96.070312 66.492188 96.820312 66.042969 C 97.570312 65.589844 98.328125 65.15625 99.101562 64.746094 C 99.871094 64.335938 100.65625 63.945312 101.445312 63.574219 C 102.238281 63.203125 103.042969 62.855469 103.851562 62.527344 C 104.664062 62.199219 105.480469 61.894531 106.308594 61.609375 C 107.136719 61.324219 107.96875 61.0625 108.8125 60.824219 C 109.652344 60.582031 110.5 60.367188 111.351562 60.171875 C 112.203125 59.976562 113.0625 59.804688 113.921875 59.652344 C 114.785156 59.503906 115.648438 59.375 116.519531 59.273438 C 117.386719 59.167969 118.257812 59.085938 119.128906 59.03125 C 120.003906 58.972656 120.875 58.9375 121.75 58.925781 C 122.625 58.914062 123.5 58.925781 124.375 58.960938 C 125.246094 58.996094 126.121094 59.054688 126.992188 59.132812 C 127.863281 59.214844 128.730469 59.320312 129.59375 59.445312 C 130.460938 59.574219 131.320312 59.722656 132.179688 59.894531 C 133.035156 60.070312 133.890625 60.265625 134.734375 60.480469 C 135.582031 60.699219 136.425781 60.941406 137.257812 61.203125 C 138.09375 61.464844 138.917969 61.75 139.738281 62.054688 C 140.558594 62.363281 141.367188 62.6875 142.171875 63.039062 C 142.972656 63.386719 143.765625 63.757812 144.546875 64.148438 C 146.710938 65.230469 148.925781 66.183594 151.199219 67.007812 C 153.472656 67.832031 155.785156 68.519531 158.140625 69.074219 C 160.492188 69.632812 162.871094 70.046875 165.269531 70.328125 C 167.671875 70.609375 170.082031 70.746094 172.5 70.746094 C 174.917969 70.746094 177.328125 70.609375 179.730469 70.328125 C 182.128906 70.046875 184.507812 69.632812 186.859375 69.074219 C 189.214844 68.519531 191.527344 67.832031 193.800781 67.007812 C 196.074219 66.183594 198.289062 65.230469 200.453125 64.148438 C 201.234375 63.757812 202.027344 63.386719 202.828125 63.039062 C 203.632812 62.6875 204.441406 62.363281 205.261719 62.054688 C 206.082031 61.75 206.90625 61.464844 207.742188 61.203125 C 208.574219 60.941406 209.417969 60.699219 210.265625 60.480469 C 211.109375 60.265625 211.964844 60.070312 212.820312 59.894531 C 213.679688 59.722656 214.539062 59.574219 215.40625 59.445312 C 216.269531 59.320312 217.136719 59.214844 218.007812 59.132812 C 218.878906 59.054688 219.753906 58.996094 220.625 58.960938 C 221.5 58.925781 222.375 58.914062 223.25 58.925781 C 224.125 58.9375 224.996094 58.972656 225.871094 59.03125 C 226.742188 59.085938 227.613281 59.167969 228.480469 59.273438 C 229.351562 59.375 230.214844 59.503906 231.078125 59.652344 C 231.9375 59.804688 232.796875 59.976562 233.648438 60.171875 C 234.5 60.367188 235.347656 60.582031 236.1875 60.824219 C 237.03125 61.0625 237.863281 61.324219 238.691406 61.609375 C 239.519531 61.894531 240.335938 62.199219 241.148438 62.527344 C 241.957031 62.855469 242.761719 63.203125 243.554688 63.574219 C 244.34375 63.945312 245.128906 64.335938 245.898438 64.746094 C 246.671875 65.15625 247.429688 65.589844 248.179688 66.042969 C 248.929688 66.492188 249.664062 66.964844 250.390625 67.457031 C 251.113281 67.945312 251.824219 68.457031 252.519531 68.984375 C 253.21875 69.511719 253.898438 70.058594 254.566406 70.625 C 255.234375 71.1875 255.886719 71.769531 256.527344 72.371094 C 257.164062 72.96875 257.785156 73.585938 258.386719 74.214844 C 258.992188 74.847656 259.578125 75.496094 260.148438 76.160156 C 260.71875 76.824219 261.273438 77.5 261.808594 78.191406 C 262.339844 78.886719 262.855469 79.589844 263.355469 80.3125 C 263.851562 81.03125 264.328125 81.765625 264.785156 82.507812 C 265.242188 83.253906 265.683594 84.011719 266.101562 84.777344 C 266.519531 85.546875 266.914062 86.324219 267.292969 87.117188 C 267.667969 87.90625 268.023438 88.703125 268.359375 89.511719 C 268.691406 90.320312 269.003906 91.136719 269.296875 91.960938 L 290.734375 152.710938 C 291.253906 154.183594 291.683594 155.683594 292.023438 157.210938 C 292.367188 158.738281 292.613281 160.277344 292.769531 161.835938 C 292.921875 163.390625 292.984375 164.949219 292.953125 166.511719 C 292.921875 168.074219 292.796875 169.632812 292.578125 171.179688 C 292.359375 172.726562 292.046875 174.257812 291.644531 175.769531 C 291.242188 177.277344 290.75 178.761719 290.171875 180.210938 C 289.589844 181.664062 288.925781 183.074219 288.175781 184.449219 C 287.425781 185.820312 286.597656 187.140625 285.6875 188.414062 Z M 285.6875 188.414062 " fill-opacity="1" fill-rule="nonzero"/></g></g></g><path stroke-linecap="butt" transform="matrix(7.8125, 0, 0, 7.8125, 0.0000045, 0)" fill="none" stroke-linejoin="miter" d="M 18.999999 30 L 20.999999 22 " stroke="#f7f7f7" stroke-width="2" stroke-opacity="1" stroke-miterlimit="10"/><path fill="#595959" d="M 164.0625 179.6875 L 148.148438 179.6875 C 147.003906 179.6875 145.859375 179.609375 144.726562 179.449219 C 143.589844 179.292969 142.472656 179.054688 141.367188 178.742188 C 140.265625 178.429688 139.191406 178.042969 138.140625 177.578125 C 137.09375 177.117188 136.078125 176.585938 135.105469 175.980469 C 134.128906 175.378906 133.199219 174.714844 132.316406 173.980469 C 131.433594 173.25 130.605469 172.460938 129.832031 171.617188 C 129.058594 170.769531 128.347656 169.875 127.699219 168.929688 C 127.046875 167.984375 126.464844 167 125.953125 165.976562 L 117.1875 148.4375 L 154.0625 148.4375 C 154.644531 148.4375 155.226562 148.464844 155.808594 148.523438 C 156.390625 148.582031 156.964844 148.664062 157.539062 148.78125 C 158.109375 148.894531 158.675781 149.035156 159.234375 149.203125 C 159.792969 149.375 160.339844 149.570312 160.878906 149.792969 C 161.417969 150.015625 161.945312 150.265625 162.460938 150.539062 C 162.972656 150.816406 163.472656 151.117188 163.957031 151.4375 C 164.445312 151.761719 164.910156 152.109375 165.363281 152.480469 C 165.8125 152.851562 166.246094 153.242188 166.65625 153.65625 C 167.070312 154.066406 167.460938 154.5 167.832031 154.949219 C 168.203125 155.402344 168.550781 155.867188 168.871094 156.355469 C 169.195312 156.839844 169.496094 157.339844 169.773438 157.851562 C 170.046875 158.367188 170.296875 158.894531 170.519531 159.433594 C 170.742188 159.972656 170.9375 160.519531 171.109375 161.078125 C 171.277344 161.636719 171.417969 162.203125 171.53125 162.773438 C 171.648438 163.347656 171.730469 163.921875 171.789062 164.503906 C 171.847656 165.085938 171.875 165.667969 171.875 166.25 L 171.875 171.875 C 171.875 172.386719 171.824219 172.894531 171.726562 173.398438 C 171.625 173.902344 171.476562 174.390625 171.28125 174.863281 C 171.085938 175.339844 170.84375 175.789062 170.558594 176.214844 C 170.273438 176.640625 169.949219 177.035156 169.585938 177.398438 C 169.222656 177.761719 168.828125 178.085938 168.402344 178.371094 C 167.976562 178.65625 167.527344 178.898438 167.050781 179.09375 C 166.578125 179.289062 166.089844 179.4375 165.585938 179.539062 C 165.082031 179.636719 164.574219 179.6875 164.0625 179.6875 Z M 164.0625 179.6875 " fill-opacity="1" fill-rule="nonzero"/><path stroke-linecap="butt" transform="matrix(7.8125, 0, 0, 7.8125, 0.0000045, 0)" fill="none" stroke-linejoin="miter" d="M 28.999999 30 L 26.999999 22 " stroke="#f7f7f7" stroke-width="2" stroke-opacity="1" stroke-miterlimit="10"/><path fill="#595959" d="M 210.9375 179.6875 L 226.851562 179.6875 C 227.996094 179.6875 229.140625 179.609375 230.273438 179.449219 C 231.410156 179.292969 232.527344 179.054688 233.632812 178.742188 C 234.734375 178.429688 235.808594 178.042969 236.859375 177.578125 C 237.90625 177.117188 238.921875 176.585938 239.894531 175.980469 C 240.871094 175.378906 241.800781 174.714844 242.683594 173.980469 C 243.566406 173.25 244.394531 172.460938 245.167969 171.617188 C 245.941406 170.769531 246.652344 169.875 247.300781 168.929688 C 247.953125 167.984375 248.535156 167 249.046875 165.976562 L 257.8125 148.4375 L 220.9375 148.4375 C 220.355469 148.4375 219.773438 148.464844 219.191406 148.523438 C 218.609375 148.582031 218.035156 148.664062 217.460938 148.78125 C 216.890625 148.894531 216.324219 149.035156 215.765625 149.203125 C 215.207031 149.375 214.660156 149.570312 214.121094 149.792969 C 213.582031 150.015625 213.054688 150.265625 212.539062 150.539062 C 212.027344 150.816406 211.527344 151.117188 211.042969 151.4375 C 210.554688 151.761719 210.089844 152.109375 209.636719 152.480469 C 209.1875 152.851562 208.753906 153.242188 208.34375 153.65625 C 207.929688 154.066406 207.539062 154.5 207.167969 154.949219 C 206.796875 155.402344 206.449219 155.867188 206.128906 156.355469 C 205.804688 156.839844 205.503906 157.339844 205.226562 157.851562 C 204.953125 158.367188 204.703125 158.894531 204.480469 159.433594 C 204.257812 159.972656 204.0625 160.519531 203.890625 161.078125 C 203.722656 161.636719 203.582031 162.203125 203.46875 162.773438 C 203.351562 163.347656 203.269531 163.921875 203.210938 164.503906 C 203.152344 165.085938 203.125 165.667969 203.125 166.25 L 203.125 171.875 C 203.125 172.386719 203.175781 172.894531 203.273438 173.398438 C 203.375 173.902344 203.523438 174.390625 203.71875 174.863281 C 203.914062 175.339844 204.15625 175.789062 204.441406 176.214844 C 204.726562 176.640625 205.050781 177.035156 205.414062 177.398438 C 205.777344 177.761719 206.171875 178.085938 206.597656 178.371094 C 207.023438 178.65625 207.472656 178.898438 207.949219 179.09375 C 208.421875 179.289062 208.910156 179.4375 209.414062 179.539062 C 209.917969 179.636719 210.425781 179.6875 210.9375 179.6875 Z M 210.9375 179.6875 " fill-opacity="1" fill-rule="nonzero"/><path stroke-linecap="butt" transform="matrix(7.8125, 0, 0, 7.8125, 0.0000045, 0)" fill-opacity="1" fill="#595959" fill-rule="nonzero" stroke-linejoin="miter" d="M 19.424999 29 L 28.574999 29 C 28.626499 29 28.676999 29.008 28.726499 29.024 C 28.775999 29.0395 28.821499 29.0625 28.863499 29.0925 C 28.905999 29.1225 28.942499 29.158 28.973499 29.1995 C 29.004499 29.2405 29.028999 29.286 29.045999 29.3345 C 29.062999 29.3835 29.072499 29.4335 29.073999 29.4855 C 29.075499 29.537 29.068999 29.588 29.054999 29.6375 C 29.040499 29.6875 29.018999 29.7335 28.990499 29.777 C 28.961999 29.82 28.927499 29.8575 28.886999 29.89 L 25.273999 32.780999 C 25.091499 32.926999 24.882999 32.999999 24.648999 32.999999 L 23.348999 32.999999 C 23.114999 32.999999 22.906499 32.926999 22.723999 32.780999 L 19.112999 29.89 C 19.072499 29.8575 19.037999 29.82 19.009499 29.777 C 18.980999 29.7335 18.959499 29.6875 18.944999 29.6375 C 18.930999 29.588 18.924499 29.537 18.925999 29.4855 C 18.927499 29.4335 18.936999 29.3835 18.953999 29.3345 C 18.970999 29.286 18.995499 29.2405 19.026499 29.1995 C 19.057499 29.158 19.093999 29.1225 19.136499 29.0925 C 19.178499 29.0625 19.223999 29.0395 19.273499 29.024 C 19.322999 29.008 19.373499 29 19.424999 29 Z M 19.424999 29 " stroke="#f7f7f7" stroke-width="2" stroke-opacity="1" stroke-miterlimit="10"/><path stroke-linecap="butt" transform="matrix(7.8125, 0, 0, 7.8125, 0.0000045, 0)" fill="none" stroke-linejoin="miter" d="M 29.999999 37.999999 L 29.999999 38.999999 C 29.999999 39.098499 29.994999 39.196499 29.985499 39.293999 C 29.975999 39.391999 29.961499 39.488999 29.942499 39.585499 C 29.922999 39.681499 29.899499 39.776999 29.870999 39.870999 C 29.842499 39.964999 29.808999 40.057499 29.771499 40.147999 C 29.733999 40.238999 29.691999 40.327499 29.645999 40.413999 C 29.599499 40.500999 29.548999 40.584999 29.494499 40.666499 C 29.439999 40.748499 29.381499 40.826999 29.318999 40.902999 C 29.256499 40.978999 29.190999 41.051999 29.121499 41.121499 C 29.051999 41.190999 28.978999 41.256499 28.902999 41.318999 C 28.826999 41.381499 28.748499 41.439999 28.666499 41.494499 C 28.584999 41.548999 28.500999 41.599499 28.413999 41.645999 C 28.327499 41.691999 28.238999 41.733999 28.147999 41.771499 C 28.057499 41.808999 27.964999 41.842499 27.870999 41.870999 C 27.776999 41.899499 27.681499 41.922999 27.585499 41.942499 C 27.488999 41.961499 27.391999 41.975999 27.293999 41.985499 C 27.196499 41.994999 27.098499 41.999999 26.999999 41.999999 L 20.999999 41.999999 C 20.901499 41.999999 20.803499 41.994999 20.705999 41.985499 C 20.607999 41.975999 20.510999 41.961499 20.414499 41.942499 C 20.318499 41.922999 20.222999 41.899499 20.128999 41.870999 C 20.034999 41.842499 19.942499 41.808999 19.851999 41.771499 C 19.760999 41.733999 19.672499 41.691999 19.585999 41.645999 C 19.498999 41.599499 19.414999 41.548999 19.333499 41.494499 C 19.251499 41.439999 19.172999 41.381499 19.096999 41.318999 C 19.020999 41.256499 18.947999 41.190999 18.878499 41.121499 C 18.808999 41.051999 18.743499 40.978999 18.680999 40.902999 C 18.618499 40.826999 18.559999 40.748499 18.505499 40.666499 C 18.450999 40.584999 18.400499 40.500999 18.353999 40.413999 C 18.307999 40.327499 18.265999 40.238999 18.228499 40.147999 C 18.190999 40.057499 18.157499 39.964999 18.128999 39.870999 C 18.100499 39.776999 18.076999 39.681499 18.057499 39.585499 C 18.038499 39.488999 18.023999 39.391999 18.014499 39.293999 C 18.004999 39.196499 17.999999 39.098499 17.999999 38.999999 L 17.999999 37.999999 " stroke="#f7f7f7" stroke-width="2" stroke-opacity="1" stroke-miterlimit="10"/><path stroke-linecap="butt" transform="matrix(7.8125, 0, 0, 7.8125, 0.0000045, 0)" fill="none" stroke-linejoin="miter" d="M 23.999999 34.999999 L 23.999999 32.999999 " stroke="#f7f7f7" stroke-width="2" stroke-opacity="1" stroke-miterlimit="10"/><path stroke-linecap="butt" transform="matrix(7.8125, 0, 0, 7.8125, 0.0000045, 0)" fill="none" stroke-linejoin="miter" d="M 23.999999 32.999999 L 23.999999 33.999999 C 23.999999 34.130999 23.993499 34.261499 23.980499 34.391999 C 23.967999 34.522499 23.948499 34.651999 23.922999 34.780499 C 23.897499 34.908999 23.865999 35.035999 23.827999 35.160999 C 23.789499 35.286499 23.745499 35.409499 23.695499 35.530499 C 23.645499 35.651999 23.589499 35.769999 23.527499 35.885499 C 23.465999 36.000999 23.398499 36.113499 23.325999 36.222499 C 23.252999 36.330999 23.174999 36.436499 23.091999 36.537499 C 23.008999 36.638999 22.920999 36.735999 22.828499 36.828499 C 22.735999 36.920999 22.638999 37.008999 22.537499 37.091999 C 22.436499 37.174999 22.330999 37.252999 22.222499 37.325999 C 22.113499 37.398499 22.000999 37.465999 21.885499 37.527499 C 21.769999 37.589499 21.651999 37.645499 21.530499 37.695499 C 21.409499 37.745499 21.286499 37.789499 21.160999 37.827999 C 21.035999 37.865999 20.908999 37.897499 20.780499 37.922999 C 20.651999 37.948499 20.522499 37.967999 20.391999 37.980499 C 20.261499 37.993499 20.130999 37.999999 19.999999 37.999999 L 17.016999 37.999999 C 16.800999 37.999999 16.586499 37.982499 16.373499 37.947999 C 16.160499 37.913499 15.951999 37.861499 15.746999 37.792999 C 15.542499 37.724499 15.344499 37.639999 15.153499 37.539499 C 14.962499 37.438999 14.780999 37.323999 14.608499 37.193999 C 14.435999 37.063999 14.275499 36.920999 14.125999 36.764999 C 13.976999 36.608999 13.841499 36.441999 13.718999 36.263999 C 13.596999 36.085999 13.489999 35.899499 13.397999 35.703999 C 13.305999 35.508999 13.230499 35.307499 13.170999 35.099999 L 12.807999 33.829999 C 12.746999 33.616499 12.700499 33.399999 12.667999 33.180499 C 12.635999 32.960999 12.618499 32.739999 12.615999 32.517999 C 12.612999 32.295999 12.624999 32.074999 12.651499 31.854499 C 12.678499 31.633999 12.719499 31.416499 12.774999 31.201499 C 12.830999 30.986999 12.900499 30.776499 12.983999 30.571 C 13.067999 30.3655 13.164999 30.1665 13.274999 29.9735 C 13.384999 29.781 13.507499 29.5965 13.642499 29.42 C 13.776999 29.2435 13.922999 29.077 14.079999 28.92 L 15.999999 27 " stroke="#f7f7f7" stroke-width="2" stroke-opacity="1" stroke-miterlimit="10"/><path stroke-linecap="butt" transform="matrix(7.8125, 0, 0, 7.8125, 0.0000045, 0)" fill="none" stroke-linejoin="miter" d="M 23.999999 32.999999 L 23.999999 33.999999 C 23.999999 34.130999 24.006499 34.261499 24.019499 34.391999 C 24.031999 34.522499 24.051499 34.651999 24.076999 34.780499 C 24.102499 34.908999 24.133999 35.035999 24.171999 35.160999 C 24.210499 35.286499 24.254499 35.409499 24.304499 35.530499 C 24.354499 35.651999 24.410499 35.769999 24.472499 35.885499 C 24.533999 36.000999 24.601499 36.113499 24.673999 36.222499 C 24.746999 36.330999 24.824999 36.436499 24.907999 36.537499 C 24.990999 36.638999 25.078999 36.735999 25.171499 36.828499 C 25.263999 36.920999 25.360999 37.008999 25.462499 37.091999 C 25.563499 37.174999 25.668999 37.252999 25.777499 37.325999 C 25.886499 37.398499 25.998999 37.465999 26.114499 37.527499 C 26.229999 37.589499 26.347999 37.645499 26.469499 37.695499 C 26.590499 37.745499 26.713499 37.789499 26.838999 37.827999 C 26.963999 37.865999 27.090999 37.897499 27.219499 37.922999 C 27.347999 37.948499 27.477499 37.967999 27.607999 37.980499 C 27.738499 37.993499 27.868999 37.999999 27.999999 37.999999 L 30.982999 37.999999 C 31.198999 37.999999 31.413499 37.982499 31.626499 37.947999 C 31.839499 37.913499 32.047999 37.861499 32.252999 37.792999 C 32.457499 37.724499 32.655499 37.639999 32.846499 37.539499 C 33.037499 37.438999 33.218999 37.323999 33.391499 37.193999 C 33.563999 37.063999 33.724499 36.920999 33.873999 36.764999 C 34.022999 36.608999 34.158499 36.441999 34.280999 36.263999 C 34.402999 36.085999 34.509999 35.899499 34.601999 35.703999 C 34.693999 35.508999 34.769499 35.307499 34.828999 35.099999 L 35.191999 33.829999 C 35.252999 33.616499 35.299499 33.399999 35.331999 33.180499 C 35.363999 32.960999 35.381499 32.739999 35.383999 32.517999 C 35.386999 32.295999 35.374999 32.074999 35.348499 31.854499 C 35.321499 31.633999 35.280499 31.416499 35.224999 31.201499 C 35.168999 30.986999 35.099499 30.776499 35.015999 30.571 C 34.931999 30.3655 34.834999 30.1665 34.724999 29.9735 C 34.614999 29.781 34.492499 29.5965 34.357499 29.42 C 34.222999 29.2435 34.076999 29.077 33.919999 28.92 L 31.999999 27 " stroke="#f7f7f7" stroke-width="2" stroke-opacity="1" stroke-miterlimit="10"/><path stroke-linecap="butt" transform="matrix(7.8125, 0, 0, 7.8125, 0.0000045, 0)" fill="none" stroke-linejoin="miter" d="M 34.547999 29.688 L 38.487999 24.117 C 38.604499 23.954 38.710499 23.785 38.806499 23.6095 C 38.902499 23.4335 38.987499 23.253 39.061999 23.067 C 39.135999 22.8815 39.198999 22.6915 39.250499 22.4985 C 39.301999 22.305 39.341999 22.109 39.369999 21.911 C 39.397999 21.713 39.413999 21.5135 39.417999 21.3135 C 39.421999 21.1135 39.413999 20.914 39.394499 20.715 C 39.374499 20.5155 39.342999 20.3185 39.298999 20.123 C 39.255499 19.9275 39.200499 19.7355 39.133999 19.547 L 36.389999 11.771 C 36.352499 11.6655 36.312499 11.561 36.269999 11.4575 C 36.226999 11.354 36.181499 11.252 36.133499 11.151 C 36.084999 11.0495 36.034499 10.95 35.980999 10.8515 C 35.927499 10.7535 35.870999 10.6565 35.812499 10.561 C 35.753999 10.466 35.692999 10.372 35.629499 10.28 C 35.565499 10.1875 35.499499 10.0975 35.431499 10.0085 C 35.362999 9.92 35.291999 9.8335 35.218999 9.7485 C 35.145999 9.6635 35.070999 9.5805 34.993499 9.4995 C 34.916499 9.419 34.836999 9.34 34.755499 9.2635 C 34.673499 9.1865 34.589999 9.112 34.504499 9.04 C 34.418999 8.9675 34.331999 8.8975 34.242499 8.83 C 34.153499 8.7625 34.062499 8.697 33.969999 8.6345 C 33.876999 8.5715 33.782999 8.511 33.686999 8.4535 C 33.590999 8.3955 33.493999 8.34 33.394999 8.2875 C 33.296499 8.235 33.195999 8.185 33.094999 8.1375 C 32.993499 8.09 32.890499 8.0455 32.786999 8.0035 C 32.682999 7.9615 32.578499 7.9225 32.472499 7.886 C 32.366499 7.8495 32.259999 7.816 32.151999 7.7855 C 32.044499 7.7545 31.935999 7.727 31.826999 7.702 C 31.717999 7.677 31.607999 7.655 31.497999 7.6355 C 31.387499 7.6165 31.276999 7.6 31.165499 7.587 C 31.054499 7.5735 30.942999 7.563 30.831499 7.556 C 30.719499 7.5485 30.607999 7.544 30.495999 7.5425 C 30.383999 7.541 30.271999 7.5425 30.159999 7.547 C 30.048499 7.5515 29.936499 7.559 29.824999 7.5695 C 29.713499 7.5795 29.602499 7.593 29.491999 7.609 C 29.380999 7.6255 29.270999 7.6445 29.160999 7.6665 C 29.051499 7.689 28.941999 7.714 28.833999 7.7415 C 28.725499 7.7695 28.617499 7.8005 28.510999 7.834 C 28.403999 7.8675 28.298499 7.904 28.193499 7.943 C 28.088499 7.9825 27.984999 8.024 27.881999 8.069 C 27.779499 8.1135 27.677999 8.161 27.577999 8.211 C 27.300999 8.3495 27.017499 8.4715 26.726499 8.577 C 26.435499 8.6825 26.139499 8.7705 25.837999 8.8415 C 25.536999 8.913 25.232499 8.966 24.925499 9.002 C 24.617999 9.038 24.309499 9.0555 23.999999 9.0555 C 23.690499 9.0555 23.381999 9.038 23.074499 9.002 C 22.767499 8.966 22.462999 8.913 22.161999 8.8415 C 21.860499 8.7705 21.564499 8.6825 21.273499 8.577 C 20.982499 8.4715 20.698999 8.3495 20.421999 8.211 C 20.321999 8.161 20.220499 8.1135 20.117999 8.069 C 20.014999 8.024 19.911499 7.9825 19.806499 7.943 C 19.701499 7.904 19.595999 7.8675 19.488999 7.834 C 19.382499 7.8005 19.274499 7.7695 19.165999 7.7415 C 19.057999 7.714 18.948499 7.689 18.838999 7.6665 C 18.728999 7.6445 18.618999 7.6255 18.507999 7.609 C 18.397499 7.593 18.286499 7.5795 18.174999 7.569 C 18.063499 7.559 17.951499 7.5515 17.839999 7.547 C 17.727999 7.5425 17.615999 7.541 17.503999 7.5425 C 17.391999 7.544 17.280499 7.5485 17.168499 7.556 C 17.056999 7.563 16.945499 7.5735 16.834499 7.587 C 16.722999 7.6 16.612499 7.6165 16.501999 7.6355 C 16.391999 7.655 16.281999 7.677 16.172999 7.702 C 16.063999 7.727 15.955499 7.7545 15.847999 7.7855 C 15.739999 7.816 15.633499 7.8495 15.527499 7.886 C 15.421499 7.9225 15.316999 7.9615 15.212999 8.0035 C 15.109499 8.0455 15.006499 8.09 14.904999 8.1375 C 14.803999 8.185 14.703499 8.235 14.604999 8.2875 C 14.505999 8.34 14.408999 8.3955 14.312999 8.4535 C 14.216999 8.511 14.122999 8.5715 14.029999 8.6345 C 13.937499 8.697 13.846499 8.7625 13.757499 8.83 C 13.667999 8.8975 13.580999 8.9675 13.495499 9.04 C 13.409999 9.112 13.326499 9.1865 13.244499 9.2635 C 13.162999 9.34 13.083499 9.419 13.006499 9.4995 C 12.928999 9.5805 12.853999 9.6635 12.780999 9.7485 C 12.707999 9.8335 12.636999 9.92 12.568499 10.0085 C 12.500499 10.0975 12.434499 10.1875 12.370499 10.28 C 12.306999 10.372 12.245999 10.466 12.187499 10.561 C 12.128999 10.6565 12.072499 10.7535 12.018999 10.8515 C 11.965499 10.95 11.914999 11.0495 11.866499 11.151 C 11.818499 11.252 11.772999 11.354 11.729999 11.4575 C 11.687499 11.561 11.647499 11.6655 11.609999 11.771 L 8.865999 19.547 C 8.799499 19.7355 8.744499 19.9275 8.700999 20.123 C 8.656999 20.3185 8.625499 20.5155 8.605499 20.715 C 8.585999 20.914 8.577999 21.1135 8.581999 21.3135 C 8.585999 21.5135 8.601999 21.713 8.629999 21.911 C 8.657999 22.109 8.697999 22.305 8.749499 22.4985 C 8.800999 22.6915 8.863999 22.8815 8.937999 23.067 C 9.012499 23.253 9.097499 23.4335 9.193499 23.6095 C 9.289499 23.785 9.395499 23.954 9.511999 24.117 L 13.452999 29.688 " stroke="#f7f7f7" stroke-width="2" stroke-opacity="1" stroke-miterlimit="10"/><path stroke-linecap="butt" transform="matrix(7.8125, 0, 0, 7.8125, 0.0000045, 0)" fill="none" stroke-linejoin="miter" d="M 23.999999 46.832999 C 27.582999 43.499999 35.832999 46.499999 38.666999 37.999999 C 39.077999 39.359999 39.328999 40.748999 39.418999 42.166999 C 39.418999 42.166999 51.418999 31.999999 42.666999 13.583 C 43.189999 13.6755 43.691999 13.835 44.172499 14.0615 C 44.652999 14.2875 45.095499 14.573 45.499999 14.917 C 45.166999 9.25 40.041999 9.917 36.999999 4.917 C 36.999999 4.917 38.499999 5.042 38.999999 3 C 36.666999 3.013 33.999999 0 28.999999 2 C 28.211499 1.658 27.395999 1.403 26.552999 1.2345 C 25.710499 1.066 24.859499 0.9875 23.999999 1 C 23.140499 0.9875 22.289499 1.066 21.446999 1.2345 C 20.603999 1.403 19.788499 1.658 18.999999 2 C 13.999999 0 11.332999 3.013 8.999999 3 C 9.499999 5.042 10.999999 4.917 10.999999 4.917 C 7.957999 9.917 2.832999 9.25 2.499999 14.917 C 2.904499 14.573 3.346999 14.2875 3.827499 14.0615 C 4.307999 13.835 4.809999 13.6755 5.332999 13.583 C -3.417001 31.999999 8.580999 42.166999 8.580999 42.166999 C 8.670999 40.748999 8.921999 39.359999 9.332999 37.999999 C 12.166999 46.499999 20.416999 43.499999 23.999999 46.832999 Z M 23.999999 46.832999 " stroke="#f7f7f7" stroke-width="2" stroke-opacity="1" stroke-miterlimit="10"/></svg>