<svg xmlns="http://www.w3.org/2000/svg" xmlns:xlink="http://www.w3.org/1999/xlink" width="500" zoomAndPan="magnify" viewBox="0 0 375 374.999991" height="500" preserveAspectRatio="xMidYMid meet" version="1.0"><defs><filter x="0%" y="0%" width="100%" height="100%" id="ca0330ccfe"><feColorMatrix values="0 0 0 0 1 0 0 0 0 1 0 0 0 0 1 0 0 0 1 0" color-interpolation-filters="sRGB"/></filter><mask id="1c02deb7dd"><g filter="url(#ca0330ccfe)"><rect x="-37.5" width="450" fill="#000000" y="-37.499999" height="449.999989" fill-opacity="0.3"/></g></mask><clipPath id="b374fb8b6b"><path d="M 0.679688 0.441406 L 125.960938 0.441406 L 125.960938 63 L 0.679688 63 Z M 0.679688 0.441406 " clip-rule="nonzero"/></clipPath><clipPath id="dff27ebad5"><rect x="0" width="126" y="0" height="64"/></clipPath><mask id="508c5609e5"><g filter="url(#ca0330ccfe)"><rect x="-37.5" width="450" fill="#000000" y="-37.499999" height="449.999989" fill-opacity="0.3"/></g></mask><clipPath id="34cc294236"><path d="M 0.160156 0.441406 L 125.199219 0.441406 L 125.199219 63 L 0.160156 63 Z M 0.160156 0.441406 " clip-rule="nonzero"/></clipPath><clipPath id="b0dd17781d"><rect x="0" width="126" y="0" height="64"/></clipPath></defs><rect x="-37.5" width="450" fill="#ffffff" y="-37.499999" height="449.999989" fill-opacity="1"/><rect x="-37.5" width="450" fill="#d7dedc" y="-37.499999" height="449.999989" fill-opacity="1"/><g mask="url(#1c02deb7dd)"><g transform="matrix(1, 0, 0, 1, 7, 187)"><g clip-path="url(#dff27ebad5)"><g clip-path="url(#b374fb8b6b)"><path fill="#595959" d="M 63.3125 63 C 65.359375 63 67.402344 62.898438 69.4375 62.699219 C 71.476562 62.5 73.496094 62.199219 75.503906 61.800781 C 77.511719 61.398438 79.496094 60.902344 81.457031 60.308594 C 83.414062 59.714844 85.339844 59.027344 87.230469 58.242188 C 89.121094 57.460938 90.96875 56.585938 92.773438 55.621094 C 94.578125 54.65625 96.332031 53.605469 98.035156 52.46875 C 99.738281 51.328125 101.378906 50.113281 102.960938 48.8125 C 104.542969 47.515625 106.058594 46.140625 107.507812 44.695312 C 108.953125 43.246094 110.328125 41.730469 111.625 40.148438 C 112.925781 38.566406 114.140625 36.925781 115.28125 35.222656 C 116.417969 33.519531 117.46875 31.765625 118.433594 29.960938 C 119.398438 28.15625 120.273438 26.308594 121.054688 24.417969 C 121.839844 22.527344 122.527344 20.601562 123.121094 18.644531 C 123.714844 16.683594 124.210938 14.699219 124.613281 12.691406 C 125.011719 10.683594 125.3125 8.664062 125.511719 6.625 C 125.710938 4.589844 125.8125 2.546875 125.8125 0.5 L 0.8125 0.5 C 0.8125 2.546875 0.914062 4.589844 1.113281 6.625 C 1.3125 8.664062 1.613281 10.683594 2.011719 12.691406 C 2.414062 14.699219 2.910156 16.683594 3.503906 18.644531 C 4.097656 20.601562 4.785156 22.527344 5.570312 24.417969 C 6.351562 26.308594 7.226562 28.15625 8.191406 29.960938 C 9.15625 31.765625 10.207031 33.519531 11.34375 35.222656 C 12.484375 36.925781 13.699219 38.566406 15 40.148438 C 16.296875 41.730469 17.671875 43.246094 19.117188 44.695312 C 20.566406 46.140625 22.082031 47.515625 23.664062 48.8125 C 25.246094 50.113281 26.886719 51.328125 28.589844 52.46875 C 30.292969 53.605469 32.046875 54.65625 33.851562 55.621094 C 35.65625 56.585938 37.503906 57.460938 39.394531 58.242188 C 41.285156 59.027344 43.210938 59.714844 45.167969 60.308594 C 47.128906 60.902344 49.113281 61.398438 51.121094 61.800781 C 53.128906 62.199219 55.148438 62.5 57.1875 62.699219 C 59.222656 62.898438 61.265625 63 63.3125 63 Z M 63.3125 63 " fill-opacity="1" fill-rule="nonzero"/></g></g></g></g><g mask="url(#508c5609e5)"><g transform="matrix(1, 0, 0, 1, 242, 187)"><g clip-path="url(#b0dd17781d)"><g clip-path="url(#34cc294236)"><path fill="#595959" d="M 62.6875 63 C 60.640625 63 58.597656 62.898438 56.5625 62.699219 C 54.523438 62.5 52.503906 62.199219 50.496094 61.800781 C 48.488281 61.398438 46.503906 60.902344 44.542969 60.308594 C 42.585938 59.714844 40.660156 59.027344 38.769531 58.242188 C 36.878906 57.460938 35.03125 56.585938 33.226562 55.621094 C 31.417969 54.65625 29.667969 53.605469 27.964844 52.46875 C 26.261719 51.328125 24.621094 50.113281 23.039062 48.8125 C 21.457031 47.515625 19.941406 46.140625 18.492188 44.695312 C 17.046875 43.246094 15.671875 41.730469 14.375 40.148438 C 13.074219 38.566406 11.859375 36.925781 10.71875 35.222656 C 9.582031 33.519531 8.53125 31.765625 7.566406 29.960938 C 6.601562 28.15625 5.726562 26.308594 4.945312 24.417969 C 4.160156 22.527344 3.472656 20.601562 2.878906 18.644531 C 2.285156 16.683594 1.789062 14.699219 1.386719 12.691406 C 0.988281 10.683594 0.6875 8.664062 0.488281 6.625 C 0.289062 4.589844 0.1875 2.546875 0.1875 0.5 L 125.1875 0.5 C 125.1875 2.546875 125.085938 4.589844 124.886719 6.625 C 124.6875 8.664062 124.386719 10.683594 123.988281 12.691406 C 123.585938 14.699219 123.089844 16.683594 122.496094 18.644531 C 121.902344 20.601562 121.214844 22.527344 120.429688 24.417969 C 119.648438 26.308594 118.773438 28.15625 117.808594 29.960938 C 116.84375 31.765625 115.792969 33.519531 114.65625 35.222656 C 113.515625 36.925781 112.300781 38.566406 111 40.148438 C 109.703125 41.730469 108.328125 43.246094 106.882812 44.695312 C 105.433594 46.140625 103.917969 47.515625 102.335938 48.8125 C 100.753906 50.113281 99.113281 51.328125 97.410156 52.46875 C 95.707031 53.605469 93.953125 54.65625 92.148438 55.621094 C 90.34375 56.585938 88.496094 57.460938 86.605469 58.242188 C 84.714844 59.027344 82.789062 59.714844 80.832031 60.308594 C 78.871094 60.902344 76.886719 61.398438 74.878906 61.800781 C 72.871094 62.199219 70.851562 62.5 68.8125 62.699219 C 66.777344 62.898438 64.734375 63 62.6875 63 Z M 62.6875 63 " fill-opacity="1" fill-rule="nonzero"/></g></g></g></g><path stroke-linecap="square" transform="matrix(7.8125, 0, 0, 7.8125, 0.0000045, 0)" fill="none" stroke-linejoin="miter" d="M 23.999999 10 L 23.999999 33.999999 " stroke="#f7f7f7" stroke-width="2" stroke-opacity="1" stroke-miterlimit="10"/><path stroke-linecap="square" transform="matrix(7.8125, 0, 0, 7.8125, 0.0000045, 0)" fill="none" stroke-linejoin="miter" d="M 26.999999 7 C 26.999999 7.0985 26.994999 7.1965 26.985499 7.294 C 26.975999 7.392 26.961499 7.489 26.942499 7.5855 C 26.922999 7.6815 26.899499 7.777 26.870999 7.871 C 26.842499 7.965 26.808999 8.0575 26.771499 8.148 C 26.733999 8.239 26.691999 8.3275 26.645999 8.414 C 26.599499 8.501 26.548999 8.585 26.494499 8.6665 C 26.439999 8.7485 26.381499 8.827 26.318999 8.903 C 26.256499 8.979 26.190999 9.052 26.121499 9.1215 C 26.051999 9.191 25.978999 9.2565 25.902999 9.319 C 25.826999 9.3815 25.748499 9.44 25.666499 9.4945 C 25.584999 9.549 25.500999 9.5995 25.413999 9.646 C 25.327499 9.692 25.238999 9.734 25.147999 9.7715 C 25.057499 9.809 24.964999 9.8425 24.870999 9.871 C 24.776999 9.8995 24.681499 9.923 24.585499 9.9425 C 24.488999 9.9615 24.391999 9.976 24.293999 9.9855 C 24.196499 9.995 24.098499 10 23.999999 10 C 23.901499 10 23.803499 9.995 23.705999 9.9855 C 23.607999 9.976 23.510999 9.9615 23.414499 9.9425 C 23.318499 9.923 23.222999 9.8995 23.128999 9.871 C 23.034999 9.8425 22.942499 9.809 22.851999 9.7715 C 22.760999 9.734 22.672499 9.692 22.585999 9.646 C 22.498999 9.5995 22.414999 9.549 22.333499 9.4945 C 22.251499 9.44 22.172999 9.3815 22.096999 9.319 C 22.020999 9.2565 21.947999 9.191 21.878499 9.1215 C 21.808999 9.052 21.743499 8.979 21.680999 8.903 C 21.618499 8.827 21.559999 8.7485 21.505499 8.6665 C 21.450999 8.585 21.400499 8.501 21.353999 8.414 C 21.307999 8.3275 21.265999 8.239 21.228499 8.148 C 21.190999 8.0575 21.157499 7.965 21.128999 7.871 C 21.100499 7.777 21.076999 7.6815 21.057499 7.5855 C 21.038499 7.489 21.023999 7.392 21.014499 7.294 C 21.004999 7.1965 20.999999 7.0985 20.999999 7 C 20.999999 6.9015 21.004999 6.8035 21.014499 6.706 C 21.023999 6.608 21.038499 6.511 21.057499 6.4145 C 21.076999 6.3185 21.100499 6.223 21.128999 6.129 C 21.157499 6.035 21.190999 5.9425 21.228499 5.852 C 21.265999 5.761 21.307999 5.6725 21.353999 5.586 C 21.400499 5.499 21.450999 5.415 21.505499 5.3335 C 21.559999 5.2515 21.618499 5.173 21.680999 5.097 C 21.743499 5.021 21.808999 4.948 21.878499 4.8785 C 21.947999 4.809 22.020999 4.7435 22.096999 4.681 C 22.172999 4.6185 22.251499 4.56 22.333499 4.5055 C 22.414999 4.451 22.498999 4.4005 22.585999 4.354 C 22.672499 4.308 22.760999 4.266 22.851999 4.2285 C 22.942499 4.191 23.034999 4.1575 23.128999 4.129 C 23.222999 4.1005 23.318499 4.077 23.414499 4.0575 C 23.510999 4.0385 23.607999 4.024 23.705999 4.0145 C 23.803499 4.005 23.901499 4 23.999999 4 C 24.098499 4 24.196499 4.005 24.293999 4.0145 C 24.391999 4.024 24.488999 4.0385 24.585499 4.0575 C 24.681499 4.077 24.776999 4.1005 24.870999 4.129 C 24.964999 4.1575 25.057499 4.191 25.147999 4.2285 C 25.238999 4.266 25.327499 4.308 25.413999 4.354 C 25.500999 4.4005 25.584999 4.451 25.666499 4.5055 C 25.748499 4.56 25.826999 4.6185 25.902999 4.681 C 25.978999 4.7435 26.051999 4.809 26.121499 4.8785 C 26.190999 4.948 26.256499 5.021 26.318999 5.097 C 26.381499 5.173 26.439999 5.2515 26.494499 5.3335 C 26.548999 5.415 26.599499 5.499 26.645999 5.586 C 26.691999 5.6725 26.733999 5.761 26.771499 5.852 C 26.808999 5.9425 26.842499 6.035 26.870999 6.129 C 26.899499 6.223 26.922999 6.3185 26.942499 6.4145 C 26.961499 6.511 26.975999 6.608 26.985499 6.706 C 26.994999 6.8035 26.999999 6.9015 26.999999 7 Z M 26.999999 7 " stroke="#f7f7f7" stroke-width="2" stroke-opacity="1" stroke-miterlimit="10"/><path stroke-linecap="square" transform="matrix(7.8125, 0, 0, 7.8125, 0.0000045, 0)" fill="none" stroke-linejoin="miter" d="M 16.999999 24 C 16.999999 24.262 16.986999 24.5235 16.961499 24.784 C 16.935999 25.045 16.897499 25.3035 16.846499 25.5605 C 16.794999 25.8175 16.731499 26.0715 16.655499 26.3225 C 16.579499 26.573 16.491499 26.8195 16.390999 27.0615 C 16.290999 27.3035 16.178999 27.54 16.055499 27.771 C 15.931999 28.002 15.797499 28.2265 15.651999 28.4445 C 15.505999 28.6625 15.350499 28.8725 15.183999 29.075 C 15.017999 29.2775 14.841999 29.4715 14.656999 29.657 C 14.471499 29.842 14.277499 30.018 14.074999 30.184 C 13.872499 30.3505 13.662499 30.506 13.444499 30.652 C 13.226499 30.797499 13.001999 30.931999 12.770999 31.055499 C 12.539999 31.178999 12.303499 31.290999 12.061499 31.390999 C 11.819499 31.491499 11.572999 31.579499 11.322499 31.655499 C 11.071499 31.731499 10.817499 31.794999 10.560499 31.846499 C 10.303499 31.897499 10.044999 31.935999 9.783999 31.961499 C 9.523499 31.986999 9.261999 31.999999 8.999999 31.999999 C 8.737999 31.999999 8.476499 31.986999 8.215999 31.961499 C 7.954999 31.935999 7.696499 31.897499 7.439499 31.846499 C 7.182499 31.794999 6.928499 31.731499 6.677499 31.655499 C 6.426999 31.579499 6.180499 31.491499 5.938499 31.390999 C 5.696499 31.290999 5.459999 31.178999 5.228999 31.055499 C 4.997999 30.931999 4.773499 30.797499 4.555499 30.652 C 4.337499 30.506 4.127499 30.3505 3.924999 30.184 C 3.722499 30.018 3.528499 29.842 3.342999 29.657 C 3.157999 29.4715 2.981999 29.2775 2.815999 29.075 C 2.649499 28.8725 2.493999 28.6625 2.347999 28.4445 C 2.202499 28.2265 2.067999 28.002 1.944499 27.771 C 1.820999 27.54 1.708999 27.3035 1.608999 27.0615 C 1.508499 26.8195 1.420499 26.573 1.344499 26.3225 C 1.268499 26.0715 1.204999 25.8175 1.153499 25.5605 C 1.102499 25.3035 1.063999 25.045 1.038499 24.784 C 1.012999 24.5235 0.999999 24.262 0.999999 24 L 8.999999 14 Z M 16.999999 24 " stroke="#f7f7f7" stroke-width="2" stroke-opacity="1" stroke-miterlimit="10"/><path stroke-linecap="butt" transform="matrix(7.8125, 0, 0, 7.8125, 0.0000045, 0)" fill="none" stroke-linejoin="miter" d="M 0.999999 24 L 16.999999 24 " stroke="#f7f7f7" stroke-width="2" stroke-opacity="1" stroke-miterlimit="10"/><path stroke-linecap="butt" transform="matrix(7.8125, 0, 0, 7.8125, 0.0000045, 0)" fill="none" stroke-linejoin="miter" d="M 23.999999 37.999999 C 24.196499 37.999999 24.392499 38.009499 24.587999 38.028999 C 24.783499 38.047999 24.977999 38.076999 25.170499 38.115499 C 25.363499 38.153499 25.553499 38.201499 25.741499 38.258499 C 25.929999 38.315499 26.114499 38.381499 26.295999 38.456499 C 26.477499 38.531999 26.654999 38.615999 26.828499 38.708499 C 27.001499 38.800999 27.169999 38.901999 27.333499 39.010999 C 27.496999 39.120499 27.654499 39.237499 27.806499 39.361999 C 27.958499 39.486499 28.103499 39.618499 28.242499 39.757499 C 28.381499 39.896499 28.513499 40.041499 28.637999 40.193499 C 28.762499 40.345499 28.879499 40.502999 28.988999 40.666499 C 29.097999 40.829999 29.198999 40.998499 29.291499 41.171499 C 29.383999 41.344999 29.467999 41.522499 29.543499 41.703999 C 29.618499 41.885499 29.684499 42.069999 29.741499 42.258499 C 29.798499 42.446499 29.846499 42.636499 29.884499 42.829499 C 29.922999 43.021999 29.951999 43.216499 29.970999 43.411999 C 29.990499 43.607499 29.999999 43.803499 29.999999 43.999999 L 17.999999 43.999999 C 17.999999 43.803499 18.009499 43.607499 18.028999 43.411999 C 18.047999 43.216499 18.076999 43.021999 18.115499 42.829499 C 18.153499 42.636499 18.201499 42.446499 18.258499 42.258499 C 18.315499 42.070499 18.381499 41.885499 18.456499 41.703999 C 18.531999 41.522499 18.615999 41.344999 18.708499 41.171499 C 18.800999 40.998499 18.901999 40.829999 19.010999 40.666499 C 19.120499 40.502999 19.237499 40.345499 19.361999 40.193499 C 19.486499 40.041499 19.618499 39.896499 19.757499 39.757499 C 19.896499 39.618499 20.041499 39.486499 20.193499 39.361999 C 20.345499 39.237499 20.502999 39.120499 20.666499 39.010999 C 20.829999 38.901999 20.998499 38.800999 21.171499 38.708499 C 21.344999 38.615999 21.522499 38.531999 21.703999 38.456499 C 21.885499 38.381499 22.069999 38.315499 22.258499 38.258499 C 22.446499 38.201499 22.636499 38.153499 22.829499 38.115499 C 23.021999 38.076999 23.216499 38.047999 23.411999 38.028999 C 23.607499 38.009499 23.803499 37.999999 23.999999 37.999999 Z M 23.999999 37.999999 " stroke="#f7f7f7" stroke-width="2" stroke-opacity="1" stroke-miterlimit="10"/><path stroke-linecap="square" transform="matrix(7.8125, 0, 0, 7.8125, 0.0000045, 0)" fill="none" stroke-linejoin="miter" d="M 21.057999 7.588 L 11.741999 9.452 C 11.312499 9.538 10.878999 9.576 10.441499 9.567 C 10.003499 9.5575 9.571999 9.5015 9.146499 9.3975 C 8.720999 9.294 8.311999 9.1455 7.918999 8.9525 C 7.525999 8.759 7.158999 8.5255 6.816999 8.252 L 3.999999 6 " stroke="#f7f7f7" stroke-width="2" stroke-opacity="1" stroke-miterlimit="10"/><path stroke-linecap="square" transform="matrix(7.8125, 0, 0, 7.8125, 0.0000045, 0)" fill="none" stroke-linejoin="miter" d="M 30.999999 24 C 30.999999 24.262 31.012999 24.5235 31.038499 24.784 C 31.063999 25.045 31.102499 25.3035 31.153499 25.5605 C 31.204999 25.8175 31.268499 26.0715 31.344499 26.3225 C 31.420499 26.573 31.508499 26.8195 31.608999 27.0615 C 31.708999 27.3035 31.820999 27.54 31.944499 27.771 C 32.067999 28.002 32.202499 28.2265 32.347999 28.4445 C 32.493999 28.6625 32.649499 28.8725 32.815999 29.075 C 32.981999 29.2775 33.157999 29.4715 33.342999 29.657 C 33.528499 29.842 33.722499 30.018 33.924999 30.184 C 34.127499 30.3505 34.337499 30.506 34.555499 30.652 C 34.773499 30.797499 34.997499 30.931999 35.228999 31.055499 C 35.459999 31.178999 35.696499 31.290999 35.938499 31.390999 C 36.180499 31.491499 36.426999 31.579499 36.677499 31.655499 C 36.928499 31.731499 37.182499 31.794999 37.439499 31.846499 C 37.696499 31.897499 37.954999 31.935999 38.215999 31.961499 C 38.476499 31.986999 38.737999 31.999999 38.999999 31.999999 C 39.261999 31.999999 39.523499 31.986999 39.783999 31.961499 C 40.044999 31.935999 40.303499 31.897499 40.560499 31.846499 C 40.817499 31.794999 41.071499 31.731499 41.322499 31.655499 C 41.572999 31.579499 41.819499 31.491499 42.061499 31.390999 C 42.303499 31.290999 42.539999 31.178999 42.770999 31.055499 C 43.001999 30.931999 43.226499 30.797499 43.444499 30.652 C 43.662499 30.506 43.872499 30.3505 44.074999 30.184 C 44.277499 30.018 44.471499 29.842 44.656999 29.657 C 44.841999 29.4715 45.017999 29.2775 45.183999 29.075 C 45.350499 28.8725 45.505999 28.6625 45.651999 28.4445 C 45.797499 28.2265 45.931999 28.002 46.055499 27.771 C 46.178999 27.54 46.290999 27.3035 46.390999 27.0615 C 46.491499 26.8195 46.579499 26.573 46.655499 26.3225 C 46.731499 26.0715 46.794999 25.8175 46.846499 25.5605 C 46.897499 25.3035 46.935999 25.045 46.961499 24.784 C 46.986999 24.5235 46.999999 24.262 46.999999 24 L 38.999999 14 Z M 30.999999 24 " stroke="#f7f7f7" stroke-width="2" stroke-opacity="1" stroke-miterlimit="10"/><path stroke-linecap="butt" transform="matrix(7.8125, 0, 0, 7.8125, 0.0000045, 0)" fill="none" stroke-linejoin="miter" d="M 46.999999 24 L 30.999999 24 " stroke="#f7f7f7" stroke-width="2" stroke-opacity="1" stroke-miterlimit="10"/><path stroke-linecap="square" transform="matrix(7.8125, 0, 0, 7.8125, 0.0000045, 0)" fill="none" stroke-linejoin="miter" d="M 26.941999 7.588 L 36.257999 9.452 C 36.687499 9.538 37.120999 9.576 37.558499 9.567 C 37.996499 9.5575 38.427999 9.5015 38.853499 9.3975 C 39.278999 9.294 39.687999 9.1455 40.080999 8.9525 C 40.473999 8.759 40.840999 8.5255 41.182999 8.252 L 43.999999 6 " stroke="#f7f7f7" stroke-width="2" stroke-opacity="1" stroke-miterlimit="10"/></svg>