<svg xmlns="http://www.w3.org/2000/svg" xmlns:xlink="http://www.w3.org/1999/xlink" width="500" zoomAndPan="magnify" viewBox="0 0 375 374.999991" height="500" preserveAspectRatio="xMidYMid meet" version="1.0"><defs><filter x="0%" y="0%" width="100%" height="100%" id="d58bd5f363"><feColorMatrix values="0 0 0 0 1 0 0 0 0 1 0 0 0 0 1 0 0 0 1 0" color-interpolation-filters="sRGB"/></filter><mask id="003339a1f0"><g filter="url(#d58bd5f363)"><rect x="-37.5" width="450" fill="#000000" y="-37.499999" height="449.999989" fill-opacity="0.3"/></g></mask><clipPath id="0d5e185400"><path d="M 0.199219 5 L 141 5 L 141 172.199219 L 0.199219 172.199219 Z M 0.199219 5 " clip-rule="nonzero"/></clipPath><clipPath id="117e7ef763"><rect x="0" width="142" y="0" height="173"/></clipPath><mask id="d5f1598a78"><g filter="url(#d58bd5f363)"><rect x="-37.5" width="450" fill="#000000" y="-37.499999" height="449.999989" fill-opacity="0.3"/></g></mask><clipPath id="c29f5dca9e"><path d="M 0.0390625 0.921875 L 140.921875 0.921875 L 140.921875 168 L 0.0390625 168 Z M 0.0390625 0.921875 " clip-rule="nonzero"/></clipPath><clipPath id="53a5cb68f7"><rect x="0" width="141" y="0" height="173"/></clipPath></defs><rect x="-37.5" width="450" fill="#ffffff" y="-37.499999" height="449.999989" fill-opacity="1"/><rect x="-37.5" width="450" fill="#d7dedc" y="-37.499999" height="449.999989" fill-opacity="1"/><g mask="url(#003339a1f0)"><g transform="matrix(1, 0, 0, 1, 31, 117)"><g clip-path="url(#117e7ef763)"><g clip-path="url(#0d5e185400)"><path fill="#595959" d="M 70.5625 47.0625 C 67.019531 47.0625 63.492188 46.820312 59.984375 46.339844 C 56.472656 45.859375 53.011719 45.140625 49.597656 44.191406 C 46.1875 43.238281 42.855469 42.058594 39.601562 40.652344 C 36.351562 39.25 33.207031 37.628906 30.175781 35.796875 C 27.144531 33.964844 24.25 31.933594 21.492188 29.707031 C 18.738281 27.480469 16.144531 25.078125 13.714844 22.5 C 11.289062 19.921875 9.042969 17.1875 6.988281 14.304688 C 4.929688 11.421875 3.078125 8.410156 1.429688 5.273438 C 0.667969 11.367188 0.273438 17.484375 0.25 23.625 C 0.25 111.515625 70.5625 172.0625 70.5625 172.0625 C 70.5625 172.0625 140.875 111.515625 140.875 23.625 C 140.851562 17.484375 140.457031 11.367188 139.695312 5.273438 C 138.046875 8.410156 136.195312 11.421875 134.136719 14.304688 C 132.082031 17.1875 129.835938 19.921875 127.410156 22.5 C 124.980469 25.078125 122.386719 27.480469 119.632812 29.707031 C 116.875 31.933594 113.980469 33.964844 110.949219 35.796875 C 107.917969 37.628906 104.773438 39.25 101.523438 40.652344 C 98.269531 42.058594 94.9375 43.238281 91.527344 44.191406 C 88.113281 45.140625 84.652344 45.859375 81.140625 46.339844 C 77.632812 46.820312 74.105469 47.0625 70.5625 47.0625 Z M 70.5625 47.0625 " fill-opacity="1" fill-rule="nonzero"/></g></g></g></g><g mask="url(#d5f1598a78)"><g transform="matrix(1, 0, 0, 1, 203, 85)"><g clip-path="url(#53a5cb68f7)"><g clip-path="url(#c29f5dca9e)"><path fill="#595959" d="M 70.4375 125.9375 C 73.980469 125.9375 77.507812 126.179688 81.015625 126.660156 C 84.527344 127.140625 87.988281 127.859375 91.402344 128.808594 C 94.8125 129.761719 98.144531 130.941406 101.398438 132.347656 C 104.648438 133.75 107.792969 135.371094 110.824219 137.203125 C 113.855469 139.035156 116.75 141.066406 119.507812 143.292969 C 122.261719 145.519531 124.855469 147.921875 127.285156 150.5 C 129.710938 153.078125 131.957031 155.8125 134.011719 158.695312 C 136.070312 161.578125 137.921875 164.589844 139.570312 167.726562 C 140.332031 161.632812 140.726562 155.515625 140.75 149.375 C 140.75 61.484375 70.4375 0.9375 70.4375 0.9375 C 70.4375 0.9375 0.125 61.484375 0.125 149.375 C 0.148438 155.515625 0.542969 161.632812 1.304688 167.726562 C 2.953125 164.589844 4.804688 161.578125 6.863281 158.695312 C 8.917969 155.8125 11.164062 153.078125 13.589844 150.5 C 16.019531 147.921875 18.613281 145.519531 21.367188 143.292969 C 24.125 141.066406 27.019531 139.035156 30.050781 137.203125 C 33.082031 135.371094 36.226562 133.75 39.476562 132.347656 C 42.730469 130.941406 46.0625 129.761719 49.472656 128.808594 C 52.886719 127.859375 56.347656 127.140625 59.859375 126.660156 C 63.367188 126.179688 66.894531 125.9375 70.4375 125.9375 Z M 70.4375 125.9375 " fill-opacity="1" fill-rule="nonzero"/></g></g></g></g><path stroke-linecap="square" transform="matrix(7.8125, 0, 0, 7.8125, 0.0000045, 0)" fill="none" stroke-linejoin="miter" d="M 12.999999 36.999999 C 12.999999 36.999999 21.999999 29.25 21.999999 18 C 22.012999 17.615 22.012499 17.2295 21.997499 16.8445 C 21.982999 16.4595 21.954499 16.075 21.912499 15.692 C 21.870499 15.309 21.814499 14.928 21.744999 14.5485 C 21.675499 14.1695 21.591999 13.7935 21.495499 13.4205 C 21.398999 13.047 21.288999 12.678 21.165999 12.313 C 21.042999 11.9475 20.906999 11.587 20.757999 11.2315 C 20.608999 10.876 20.447499 10.5265 20.273499 10.1825 C 20.099499 9.839 19.912999 9.5015 19.714999 9.171 C 19.516499 8.8405 19.306499 8.5175 19.084999 8.202 C 18.863499 7.8865 18.630999 7.5795 18.387499 7.281 C 18.143999 6.982 17.889999 6.6925 17.625499 6.412 C 17.361499 6.1315 17.087499 5.861 16.803499 5.6 C 16.519499 5.3395 16.226999 5.089 15.924999 4.8495 C 15.623499 4.6095 15.313499 4.381 14.995499 4.1635 C 14.676999 3.946 14.351499 3.74 14.018499 3.546 C 13.685499 3.3515 13.345999 3.17 12.999999 3 C 12.653999 3.17 12.314499 3.3515 11.981499 3.546 C 11.648499 3.74 11.322999 3.946 11.004499 4.1635 C 10.686499 4.381 10.376499 4.6095 10.074999 4.8495 C 9.772999 5.089 9.480499 5.3395 9.196499 5.6 C 8.912499 5.861 8.638499 6.1315 8.374499 6.412 C 8.109999 6.6925 7.855999 6.982 7.612499 7.281 C 7.368999 7.5795 7.136499 7.8865 6.914999 8.202 C 6.693499 8.5175 6.483499 8.8405 6.284999 9.171 C 6.086999 9.5015 5.900499 9.839 5.726499 10.1825 C 5.552499 10.5265 5.390999 10.876 5.241999 11.2315 C 5.092999 11.587 4.956999 11.9475 4.833999 12.313 C 4.710999 12.678 4.600999 13.047 4.504499 13.4205 C 4.407999 13.7935 4.324499 14.1695 4.254999 14.5485 C 4.185499 14.928 4.129499 15.309 4.087499 15.692 C 4.045499 16.075 4.016999 16.4595 4.002499 16.8445 C 3.987499 17.2295 3.986999 17.615 3.999999 18 C 3.999999 29.25 12.999999 36.999999 12.999999 36.999999 Z M 12.999999 36.999999 " stroke="#f7f7f7" stroke-width="2" stroke-opacity="1" stroke-miterlimit="10"/><path fill="#595959" d="M 39.0625 359.375 L 39.0625 343.75 C 39.0625 341.703125 39.164062 339.660156 39.363281 337.625 C 39.5625 335.585938 39.863281 333.566406 40.261719 331.558594 C 40.664062 329.550781 41.160156 327.566406 41.753906 325.605469 C 42.347656 323.648438 43.035156 321.722656 43.820312 319.832031 C 44.601562 317.941406 45.476562 316.09375 46.441406 314.289062 C 47.40625 312.484375 48.457031 310.730469 49.59375 309.027344 C 50.734375 307.324219 51.949219 305.683594 53.25 304.101562 C 54.546875 302.519531 55.921875 301.003906 57.367188 299.554688 C 58.816406 298.109375 60.332031 296.734375 61.914062 295.4375 C 63.496094 294.136719 65.136719 292.921875 66.839844 291.78125 C 68.542969 290.644531 70.296875 289.59375 72.101562 288.628906 C 73.90625 287.664062 75.753906 286.789062 77.644531 286.007812 C 79.535156 285.222656 81.460938 284.535156 83.417969 283.941406 C 85.378906 283.347656 87.363281 282.851562 89.371094 282.449219 C 91.378906 282.050781 93.398438 281.75 95.4375 281.550781 C 97.472656 281.351562 99.515625 281.25 101.5625 281.25 L 101.5625 296.875 C 101.5625 298.921875 101.460938 300.964844 101.261719 303 C 101.0625 305.039062 100.761719 307.058594 100.363281 309.066406 C 99.960938 311.074219 99.464844 313.058594 98.871094 315.019531 C 98.277344 316.976562 97.589844 318.902344 96.804688 320.792969 C 96.023438 322.683594 95.148438 324.53125 94.183594 326.335938 C 93.21875 328.140625 92.167969 329.894531 91.03125 331.597656 C 89.890625 333.300781 88.675781 334.941406 87.375 336.523438 C 86.078125 338.105469 84.703125 339.621094 83.257812 341.070312 C 81.808594 342.515625 80.292969 343.890625 78.710938 345.1875 C 77.128906 346.488281 75.488281 347.703125 73.785156 348.84375 C 72.082031 349.980469 70.328125 351.03125 68.523438 351.996094 C 66.71875 352.960938 64.871094 353.835938 62.980469 354.617188 C 61.089844 355.402344 59.164062 356.089844 57.207031 356.683594 C 55.246094 357.277344 53.261719 357.773438 51.253906 358.175781 C 49.246094 358.574219 47.226562 358.875 45.1875 359.074219 C 43.152344 359.273438 41.109375 359.375 39.0625 359.375 Z M 39.0625 359.375 " fill-opacity="1" fill-rule="nonzero"/><path fill="#595959" d="M 101.5625 281.25 C 103.609375 281.25 105.652344 281.351562 107.6875 281.550781 C 109.726562 281.75 111.746094 282.050781 113.753906 282.449219 C 115.761719 282.851562 117.746094 283.347656 119.707031 283.941406 C 121.664062 284.535156 123.589844 285.222656 125.480469 286.007812 C 127.371094 286.789062 129.21875 287.664062 131.023438 288.628906 C 132.828125 289.59375 134.582031 290.644531 136.285156 291.78125 C 137.988281 292.921875 139.628906 294.136719 141.210938 295.4375 C 142.792969 296.734375 144.308594 298.109375 145.757812 299.554688 C 147.203125 301.003906 148.578125 302.519531 149.875 304.101562 C 151.175781 305.683594 152.390625 307.324219 153.53125 309.027344 C 154.667969 310.730469 155.71875 312.480469 156.683594 314.289062 C 157.648438 316.09375 158.523438 317.941406 159.304688 319.832031 C 160.089844 321.722656 160.777344 323.648438 161.371094 325.605469 C 161.964844 327.566406 162.460938 329.550781 162.863281 331.558594 C 163.261719 333.566406 163.5625 335.585938 163.761719 337.625 C 163.960938 339.660156 164.0625 341.703125 164.0625 343.75 L 164.0625 359.375 C 162.015625 359.375 159.972656 359.273438 157.9375 359.074219 C 155.898438 358.875 153.878906 358.574219 151.871094 358.175781 C 149.863281 357.773438 147.878906 357.277344 145.917969 356.683594 C 143.960938 356.089844 142.035156 355.402344 140.144531 354.617188 C 138.253906 353.835938 136.40625 352.960938 134.601562 351.996094 C 132.796875 351.03125 131.042969 349.980469 129.339844 348.84375 C 127.636719 347.703125 125.996094 346.488281 124.414062 345.1875 C 122.832031 343.890625 121.316406 342.515625 119.867188 341.070312 C 118.421875 339.621094 117.046875 338.105469 115.75 336.523438 C 114.449219 334.941406 113.234375 333.300781 112.09375 331.597656 C 110.957031 329.894531 109.90625 328.140625 108.941406 326.335938 C 107.976562 324.53125 107.101562 322.683594 106.320312 320.792969 C 105.535156 318.902344 104.847656 316.976562 104.253906 315.019531 C 103.660156 313.058594 103.164062 311.074219 102.761719 309.066406 C 102.363281 307.058594 102.0625 305.039062 101.863281 303 C 101.664062 300.964844 101.5625 298.921875 101.5625 296.875 Z M 101.5625 281.25 " fill-opacity="1" fill-rule="nonzero"/><path fill="#595959" d="M 335.9375 15.625 L 335.9375 31.25 C 335.9375 33.296875 335.835938 35.339844 335.636719 37.375 C 335.4375 39.414062 335.136719 41.433594 334.738281 43.441406 C 334.335938 45.449219 333.839844 47.433594 333.246094 49.394531 C 332.652344 51.351562 331.964844 53.277344 331.179688 55.167969 C 330.398438 57.058594 329.523438 58.90625 328.558594 60.710938 C 327.59375 62.515625 326.542969 64.269531 325.40625 65.972656 C 324.265625 67.675781 323.050781 69.316406 321.75 70.898438 C 320.453125 72.480469 319.078125 73.996094 317.632812 75.445312 C 316.183594 76.890625 314.667969 78.265625 313.085938 79.5625 C 311.503906 80.863281 309.863281 82.078125 308.160156 83.21875 C 306.457031 84.355469 304.703125 85.40625 302.898438 86.371094 C 301.09375 87.335938 299.246094 88.210938 297.355469 88.992188 C 295.464844 89.777344 293.539062 90.464844 291.582031 91.058594 C 289.621094 91.652344 287.636719 92.148438 285.628906 92.550781 C 283.621094 92.949219 281.601562 93.25 279.5625 93.449219 C 277.527344 93.648438 275.484375 93.75 273.4375 93.75 L 273.4375 78.125 C 273.4375 76.078125 273.539062 74.035156 273.738281 72 C 273.9375 69.960938 274.238281 67.941406 274.636719 65.933594 C 275.039062 63.925781 275.535156 61.941406 276.128906 59.980469 C 276.722656 58.023438 277.410156 56.097656 278.195312 54.207031 C 278.976562 52.316406 279.851562 50.46875 280.816406 48.664062 C 281.78125 46.859375 282.832031 45.105469 283.96875 43.402344 C 285.109375 41.699219 286.324219 40.058594 287.625 38.476562 C 288.921875 36.894531 290.296875 35.378906 291.742188 33.929688 C 293.191406 32.484375 294.707031 31.109375 296.289062 29.8125 C 297.871094 28.511719 299.511719 27.296875 301.214844 26.15625 C 302.917969 25.019531 304.671875 23.96875 306.476562 23.003906 C 308.28125 22.039062 310.128906 21.164062 312.019531 20.382812 C 313.910156 19.597656 315.835938 18.910156 317.792969 18.316406 C 319.753906 17.722656 321.738281 17.226562 323.746094 16.824219 C 325.753906 16.425781 327.773438 16.125 329.8125 15.925781 C 331.847656 15.726562 333.890625 15.625 335.9375 15.625 Z M 335.9375 15.625 " fill-opacity="1" fill-rule="nonzero"/><path fill="#595959" d="M 273.4375 93.75 C 271.390625 93.75 269.347656 93.648438 267.3125 93.449219 C 265.273438 93.25 263.25 92.949219 261.246094 92.550781 C 259.238281 92.148438 257.253906 91.652344 255.292969 91.058594 C 253.335938 90.464844 251.410156 89.777344 249.519531 88.992188 C 247.628906 88.210938 245.78125 87.335938 243.976562 86.371094 C 242.167969 85.40625 240.417969 84.355469 238.714844 83.21875 C 237.011719 82.078125 235.371094 80.863281 233.789062 79.5625 C 232.207031 78.265625 230.691406 76.890625 229.242188 75.445312 C 227.796875 73.996094 226.421875 72.480469 225.125 70.898438 C 223.824219 69.316406 222.609375 67.675781 221.46875 65.972656 C 220.332031 64.269531 219.28125 62.515625 218.316406 60.710938 C 217.351562 58.90625 216.476562 57.058594 215.695312 55.167969 C 214.910156 53.277344 214.222656 51.351562 213.628906 49.394531 C 213.035156 47.433594 212.539062 45.449219 212.136719 43.441406 C 211.738281 41.433594 211.4375 39.414062 211.238281 37.375 C 211.039062 35.339844 210.9375 33.296875 210.9375 31.25 L 210.9375 15.625 C 212.984375 15.625 215.027344 15.726562 217.0625 15.925781 C 219.101562 16.125 221.121094 16.425781 223.128906 16.824219 C 225.136719 17.226562 227.121094 17.722656 229.082031 18.316406 C 231.039062 18.910156 232.964844 19.597656 234.855469 20.382812 C 236.746094 21.164062 238.59375 22.039062 240.398438 23.003906 C 242.203125 23.96875 243.957031 25.019531 245.660156 26.15625 C 247.363281 27.296875 249.003906 28.511719 250.585938 29.8125 C 252.167969 31.109375 253.683594 32.484375 255.132812 33.929688 C 256.578125 35.378906 257.953125 36.894531 259.25 38.476562 C 260.550781 40.058594 261.765625 41.699219 262.90625 43.402344 C 264.042969 45.105469 265.09375 46.859375 266.058594 48.664062 C 267.023438 50.46875 267.898438 52.316406 268.679688 54.207031 C 269.464844 56.097656 270.152344 58.023438 270.746094 59.980469 C 271.339844 61.941406 271.835938 63.925781 272.238281 65.933594 C 272.636719 67.941406 272.9375 69.960938 273.136719 72 C 273.335938 74.035156 273.4375 76.078125 273.4375 78.125 Z M 273.4375 93.75 " fill-opacity="1" fill-rule="nonzero"/><path fill="#595959" d="M 101.5625 85.9375 C 101.5625 86.964844 101.460938 87.980469 101.261719 88.984375 C 101.0625 89.992188 100.765625 90.96875 100.375 91.917969 C 99.980469 92.863281 99.5 93.765625 98.929688 94.617188 C 98.359375 95.472656 97.710938 96.261719 96.984375 96.984375 C 96.261719 97.710938 95.472656 98.359375 94.617188 98.929688 C 93.765625 99.5 92.863281 99.980469 91.917969 100.375 C 90.96875 100.765625 89.992188 101.0625 88.984375 101.261719 C 87.980469 101.460938 86.964844 101.5625 85.9375 101.5625 C 84.910156 101.5625 83.894531 101.460938 82.890625 101.261719 C 81.882812 101.0625 80.90625 100.765625 79.957031 100.375 C 79.011719 99.980469 78.109375 99.5 77.257812 98.929688 C 76.402344 98.359375 75.613281 97.710938 74.890625 96.984375 C 74.164062 96.261719 73.515625 95.472656 72.945312 94.617188 C 72.375 93.765625 71.894531 92.863281 71.5 91.917969 C 71.109375 90.96875 70.8125 89.992188 70.613281 88.984375 C 70.414062 87.980469 70.3125 86.964844 70.3125 85.9375 C 70.3125 84.910156 70.414062 83.894531 70.613281 82.890625 C 70.8125 81.882812 71.109375 80.90625 71.5 79.957031 C 71.894531 79.011719 72.375 78.109375 72.945312 77.257812 C 73.515625 76.402344 74.164062 75.613281 74.890625 74.890625 C 75.613281 74.164062 76.402344 73.515625 77.257812 72.945312 C 78.109375 72.375 79.011719 71.894531 79.957031 71.5 C 80.90625 71.109375 81.882812 70.8125 82.890625 70.613281 C 83.894531 70.414062 84.910156 70.3125 85.9375 70.3125 C 86.964844 70.3125 87.980469 70.414062 88.984375 70.613281 C 89.992188 70.8125 90.96875 71.109375 91.917969 71.5 C 92.863281 71.894531 93.765625 72.375 94.617188 72.945312 C 95.472656 73.515625 96.261719 74.164062 96.984375 74.890625 C 97.710938 75.613281 98.359375 76.402344 98.929688 77.257812 C 99.5 78.109375 99.980469 79.011719 100.375 79.957031 C 100.765625 80.90625 101.0625 81.882812 101.261719 82.890625 C 101.460938 83.894531 101.5625 84.910156 101.5625 85.9375 Z M 101.5625 85.9375 " fill-opacity="1" fill-rule="nonzero"/><path stroke-linecap="butt" transform="matrix(7.8125, 0, 0, 7.8125, 0.0000045, 0)" fill="none" stroke-linejoin="miter" d="M 4.150999 15.651 C 4.361499 16.0525 4.598499 16.438 4.861999 16.8075 C 5.124999 17.177 5.412499 17.527 5.722999 17.8575 C 6.033999 18.1875 6.365999 18.4955 6.718499 18.7805 C 7.071499 19.0655 7.441999 19.3255 7.829999 19.56 C 8.217999 19.795 8.620499 20.0025 9.036999 20.182 C 9.453499 20.362 9.879999 20.513 10.316999 20.635 C 10.753999 20.7565 11.196999 20.8485 11.646499 20.91 C 12.095999 20.971 12.547499 21.002 13.000999 21.002 C 13.454499 21.002 13.905999 20.971 14.355499 20.91 C 14.804999 20.8485 15.247999 20.7565 15.684999 20.635 C 16.121999 20.513 16.548499 20.362 16.964999 20.182 C 17.381499 20.0025 17.783999 19.795 18.171999 19.56 C 18.559999 19.3255 18.930499 19.0655 19.283499 18.7805 C 19.635999 18.4955 19.967999 18.1875 20.278999 17.8575 C 20.589999 17.527 20.876999 17.177 21.139999 16.8075 C 21.403499 16.438 21.640499 16.0525 21.850999 15.651 " stroke="#f7f7f7" stroke-width="2" stroke-opacity="1" stroke-miterlimit="10"/><path fill="#595959" d="M 23.4375 140.625 L 23.4375 234.375 L 62.5 234.375 C 39.0625 195.3125 31.25 140.625 31.25 140.625 Z M 23.4375 140.625 " fill-opacity="1" fill-rule="nonzero"/><path stroke-linecap="square" transform="matrix(7.8125, 0, 0, 7.8125, 0.0000045, 0)" fill="none" stroke-linejoin="miter" d="M 34.999999 11 C 34.999999 11 25.999999 18.75 25.999999 30 C 25.986999 30.385 25.987499 30.770499 26.002499 31.155499 C 26.016999 31.540499 26.045499 31.924999 26.087499 32.307999 C 26.129499 32.690999 26.185499 33.071999 26.254999 33.451499 C 26.324499 33.830499 26.407999 34.206499 26.504499 34.579499 C 26.600999 34.952999 26.710999 35.321999 26.833999 35.686999 C 26.956999 36.052499 27.092999 36.412999 27.241999 36.768499 C 27.390999 37.123999 27.552499 37.473499 27.726499 37.817499 C 27.900499 38.160999 28.086999 38.498499 28.284999 38.828999 C 28.483499 39.159499 28.693499 39.482499 28.914999 39.797999 C 29.136499 40.113499 29.368999 40.420499 29.612499 40.718999 C 29.855999 41.017999 30.109999 41.307499 30.374499 41.587999 C 30.638499 41.868499 30.912499 42.138999 31.196499 42.399999 C 31.480499 42.660499 31.772999 42.910999 32.074999 43.150499 C 32.376499 43.390499 32.686499 43.618999 33.004999 43.836499 C 33.322999 44.053999 33.648499 44.259999 33.981499 44.453999 C 34.314499 44.648499 34.653999 44.829999 34.999999 44.999999 C 35.345999 44.829999 35.685499 44.648499 36.018499 44.453999 C 36.351499 44.259999 36.676999 44.053999 36.995499 43.836499 C 37.313499 43.618999 37.623499 43.390499 37.924999 43.150499 C 38.226999 42.910999 38.519499 42.660499 38.803499 42.399999 C 39.087499 42.138999 39.361499 41.868499 39.625499 41.587999 C 39.889999 41.307499 40.143999 41.017999 40.387499 40.718999 C 40.630999 40.420499 40.863499 40.113499 41.084999 39.797999 C 41.306499 39.482499 41.516499 39.159499 41.714999 38.828999 C 41.912999 38.498499 42.099499 38.160999 42.273499 37.817499 C 42.447499 37.473499 42.608999 37.123999 42.757999 36.768499 C 42.906999 36.412999 43.042999 36.052499 43.165999 35.686999 C 43.288999 35.321999 43.398999 34.952999 43.495499 34.579499 C 43.591999 34.206499 43.675499 33.830499 43.744999 33.451499 C 43.814499 33.071999 43.870499 32.690999 43.912499 32.307999 C 43.954499 31.924999 43.982999 31.540499 43.997499 31.155499 C 44.012499 30.770499 44.012999 30.385 43.999999 30 C 43.999999 18.75 34.999999 11 34.999999 11 Z M 34.999999 11 " stroke="#f7f7f7" stroke-width="2" stroke-opacity="1" stroke-miterlimit="10"/><path fill="#595959" d="M 304.6875 289.0625 C 304.6875 290.089844 304.585938 291.105469 304.386719 292.109375 C 304.1875 293.117188 303.890625 294.09375 303.5 295.042969 C 303.105469 295.988281 302.625 296.890625 302.054688 297.742188 C 301.484375 298.597656 300.835938 299.386719 300.109375 300.109375 C 299.386719 300.835938 298.597656 301.484375 297.742188 302.054688 C 296.890625 302.625 295.988281 303.105469 295.042969 303.5 C 294.09375 303.890625 293.117188 304.1875 292.109375 304.386719 C 291.105469 304.585938 290.089844 304.6875 289.0625 304.6875 C 288.035156 304.6875 287.019531 304.585938 286.015625 304.386719 C 285.007812 304.1875 284.03125 303.890625 283.082031 303.5 C 282.136719 303.105469 281.234375 302.625 280.382812 302.054688 C 279.527344 301.484375 278.738281 300.835938 278.015625 300.109375 C 277.289062 299.386719 276.640625 298.597656 276.070312 297.742188 C 275.5 296.890625 275.019531 295.988281 274.625 295.042969 C 274.234375 294.09375 273.9375 293.117188 273.738281 292.109375 C 273.539062 291.105469 273.4375 290.089844 273.4375 289.0625 C 273.4375 288.035156 273.539062 287.019531 273.738281 286.015625 C 273.9375 285.007812 274.234375 284.03125 274.625 283.082031 C 275.019531 282.136719 275.5 281.234375 276.070312 280.382812 C 276.640625 279.527344 277.289062 278.738281 278.015625 278.015625 C 278.738281 277.289062 279.527344 276.640625 280.382812 276.070312 C 281.234375 275.5 282.136719 275.019531 283.082031 274.625 C 284.03125 274.234375 285.007812 273.9375 286.015625 273.738281 C 287.019531 273.539062 288.035156 273.4375 289.0625 273.4375 C 290.089844 273.4375 291.105469 273.539062 292.109375 273.738281 C 293.117188 273.9375 294.09375 274.234375 295.042969 274.625 C 295.988281 275.019531 296.890625 275.5 297.742188 276.070312 C 298.597656 276.640625 299.386719 277.289062 300.109375 278.015625 C 300.835938 278.738281 301.484375 279.527344 302.054688 280.382812 C 302.625 281.234375 303.105469 282.136719 303.5 283.082031 C 303.890625 284.03125 304.1875 285.007812 304.386719 286.015625 C 304.585938 287.019531 304.6875 288.035156 304.6875 289.0625 Z M 304.6875 289.0625 " fill-opacity="1" fill-rule="nonzero"/><path stroke-linecap="butt" transform="matrix(7.8125, 0, 0, 7.8125, 0.0000045, 0)" fill="none" stroke-linejoin="miter" d="M 43.848999 32.348999 C 43.638499 31.947499 43.401499 31.561999 43.137999 31.192499 C 42.874999 30.822999 42.587999 30.473 42.276999 30.1425 C 41.965999 29.8125 41.633999 29.5045 41.281499 29.2195 C 40.928499 28.9345 40.557999 28.6745 40.169999 28.4395 C 39.781999 28.205 39.379499 27.9975 38.962999 27.818 C 38.546499 27.638 38.119999 27.487 37.682999 27.365 C 37.245999 27.2435 36.802999 27.1515 36.353499 27.09 C 35.903999 27.0285 35.452499 26.998 34.998999 26.998 C 34.545499 26.998 34.093999 27.0285 33.644499 27.09 C 33.194999 27.1515 32.751999 27.2435 32.314999 27.365 C 31.877999 27.487 31.451499 27.638 31.034999 27.818 C 30.618499 27.9975 30.215999 28.205 29.827999 28.4395 C 29.439999 28.6745 29.069499 28.9345 28.716499 29.2195 C 28.363999 29.5045 28.031999 29.8125 27.720999 30.1425 C 27.410499 30.473 27.122999 30.822999 26.859999 31.192499 C 26.596499 31.561999 26.359499 31.947499 26.148999 32.348999 " stroke="#f7f7f7" stroke-width="2" stroke-opacity="1" stroke-miterlimit="10"/><path fill="#595959" d="M 351.5625 234.375 L 351.5625 140.625 L 312.5 140.625 C 335.9375 179.6875 343.75 234.375 343.75 234.375 Z M 351.5625 234.375 " fill-opacity="1" fill-rule="nonzero"/></svg>