<svg xmlns="http://www.w3.org/2000/svg" xmlns:xlink="http://www.w3.org/1999/xlink" width="500" zoomAndPan="magnify" viewBox="0 0 375 374.999991" height="500" preserveAspectRatio="xMidYMid meet" version="1.0"><defs><filter x="0%" y="0%" width="100%" height="100%" id="585cc84141"><feColorMatrix values="0 0 0 0 1 0 0 0 0 1 0 0 0 0 1 0 0 0 1 0" color-interpolation-filters="sRGB"/></filter><mask id="f52569b0a2"><g filter="url(#585cc84141)"><rect x="-37.5" width="450" fill="#000000" y="-37.499999" height="449.999989" fill-opacity="0.3"/></g></mask><clipPath id="d4ac17cff1"><path d="M 0.160156 0.199219 L 101.921875 0.199219 L 101.921875 101.960938 L 0.160156 101.960938 Z M 0.160156 0.199219 " clip-rule="nonzero"/></clipPath><clipPath id="3f1208409e"><rect x="0" width="102" y="0" height="102"/></clipPath></defs><rect x="-37.5" width="450" fill="#ffffff" y="-37.499999" height="449.999989" fill-opacity="1"/><rect x="-37.5" width="450" fill="#d7dedc" y="-37.499999" height="449.999989" fill-opacity="1"/><g mask="url(#f52569b0a2)"><g transform="matrix(1, 0, 0, 1, 242, 31)"><g clip-path="url(#3f1208409e)"><g clip-path="url(#d4ac17cff1)"><path fill="#595959" d="M 101.75 0.25 L 70.5 101.8125 L 47.0625 54.9375 L 0.1875 31.5 Z M 101.75 0.25 " fill-opacity="1" fill-rule="nonzero"/></g></g></g></g><path stroke-linecap="square" transform="matrix(7.8125, 0, 0, 7.8125, 0.0000045, 0)" fill="none" stroke-linejoin="miter" d="M 44.986999 40.799999 C 43.686999 40.921999 43.053999 40.529999 42.074999 38.817999 C 39.190999 33.770999 37.547999 24.548 30.499999 17.5 C 23.451999 10.452 14.228999 8.809 9.184999 5.925 C 7.472999 4.946 7.080999 4.31 7.199999 3.013 " stroke="#f7f7f7" stroke-width="2" stroke-opacity="1" stroke-miterlimit="10"/><path stroke-linecap="butt" transform="matrix(7.8125, 0, 0, 7.8125, 0.0000045, 0)" fill="none" stroke-linejoin="miter" d="M 13.999999 37.999999 L 41.636999 37.999999 " stroke="#f7f7f7" stroke-width="2" stroke-opacity="1" stroke-miterlimit="10"/><path stroke-linecap="butt" transform="matrix(7.8125, 0, 0, 7.8125, 0.0000045, 0)" fill="none" stroke-linejoin="miter" d="M 9.999999 6.363 L 9.999999 37.999999 " stroke="#f7f7f7" stroke-width="2" stroke-opacity="1" stroke-miterlimit="10"/><path stroke-linecap="butt" transform="matrix(7.8125, 0, 0, 7.8125, 0.0000045, 0)" fill="none" stroke-linejoin="miter" d="M 2.999999 44.999999 L 36.999999 11 " stroke="#f7f7f7" stroke-width="2" stroke-opacity="1" stroke-miterlimit="10"/><path stroke-linecap="square" transform="matrix(7.8125, 0, 0, 7.8125, 0.0000045, 0)" fill="none" stroke-linejoin="miter" d="M 3.999999 37.999999 L 9.999999 37.999999 L 9.999999 43.999999 " stroke="#f7f7f7" stroke-width="2" stroke-opacity="1" stroke-miterlimit="10"/><path stroke-linecap="square" transform="matrix(7.8125, 0, 0, 7.8125, 0.0000045, 0)" fill="none" stroke-linejoin="miter" d="M 43.999999 4 L 39.999999 17 L 36.999999 11 L 30.999999 8 Z M 43.999999 4 " stroke="#f7f7f7" stroke-width="2" stroke-opacity="1" stroke-miterlimit="10"/></svg>