<svg xmlns="http://www.w3.org/2000/svg" xmlns:xlink="http://www.w3.org/1999/xlink" width="500" zoomAndPan="magnify" viewBox="0 0 375 374.999991" height="500" preserveAspectRatio="xMidYMid meet" version="1.0"><defs><filter x="0%" y="0%" width="100%" height="100%" id="202a040e05"><feColorMatrix values="0 0 0 0 1 0 0 0 0 1 0 0 0 0 1 0 0 0 1 0" color-interpolation-filters="sRGB"/></filter><mask id="5a2ae2976c"><g filter="url(#202a040e05)"><rect x="-37.5" width="450" fill="#000000" y="-37.499999" height="449.999989" fill-opacity="0.3"/></g></mask><clipPath id="adfb2aad23"><path d="M 8 0.558594 L 55 0.558594 L 55 77 L 8 77 Z M 8 0.558594 " clip-rule="nonzero"/></clipPath><clipPath id="7e292e8f89"><rect x="0" width="63" y="0" height="79"/></clipPath><mask id="934389b4f5"><g filter="url(#202a040e05)"><rect x="-37.5" width="450" fill="#000000" y="-37.499999" height="449.999989" fill-opacity="0.3"/></g></mask><clipPath id="ae03c4cb54"><path d="M 0.679688 7 L 95 7 L 95 130 L 0.679688 130 Z M 0.679688 7 " clip-rule="nonzero"/></clipPath><clipPath id="e6dfe21b77"><rect x="0" width="103" y="0" height="133"/></clipPath><mask id="fa3d62c109"><g filter="url(#202a040e05)"><rect x="-37.5" width="450" fill="#000000" y="-37.499999" height="449.999989" fill-opacity="0.3"/></g></mask><clipPath id="851b295591"><path d="M 8 7 L 102.199219 7 L 102.199219 130 L 8 130 Z M 8 7 " clip-rule="nonzero"/></clipPath><clipPath id="952e3405a0"><rect x="0" width="103" y="0" height="133"/></clipPath></defs><rect x="-37.5" width="450" fill="#ffffff" y="-37.499999" height="449.999989" fill-opacity="1"/><rect x="-37.5" width="450" fill="#d7dedc" y="-37.499999" height="449.999989" fill-opacity="1"/><g mask="url(#5a2ae2976c)"><g transform="matrix(1, 0, 0, 1, 281, 226)"><g clip-path="url(#7e292e8f89)"><g clip-path="url(#adfb2aad23)"><path fill="#595959" d="M 10.554688 63.5 C 10.210938 62.8125 9.898438 62.113281 9.625 61.398438 C 9.347656 60.679688 9.105469 59.953125 8.902344 59.214844 C 8.699219 58.472656 8.53125 57.726562 8.398438 56.96875 C 8.269531 56.210938 8.175781 55.453125 8.117188 54.6875 C 8.0625 53.921875 8.042969 53.152344 8.0625 52.386719 C 8.082031 51.621094 8.136719 50.855469 8.234375 50.09375 C 8.328125 49.332031 8.457031 48.574219 8.625 47.828125 C 8.796875 47.078125 9 46.339844 9.242188 45.609375 C 9.480469 44.882812 9.757812 44.167969 10.070312 43.464844 C 10.378906 42.761719 10.726562 42.078125 11.105469 41.410156 C 11.480469 40.742188 11.894531 40.09375 12.335938 39.46875 C 12.777344 38.839844 13.25 38.238281 13.75 37.65625 C 14.25 37.074219 14.78125 36.519531 15.335938 35.988281 C 15.894531 35.460938 16.472656 34.960938 17.078125 34.488281 C 17.683594 34.015625 18.3125 33.574219 18.960938 33.164062 C 19.609375 32.753906 20.273438 32.375 20.960938 32.03125 C 26.328125 29.335938 38.390625 14.523438 31.367188 0.5625 L 52.460938 42.4375 C 52.804688 43.125 53.117188 43.824219 53.394531 44.539062 C 53.671875 45.257812 53.910156 45.984375 54.117188 46.726562 C 54.320312 47.464844 54.488281 48.214844 54.621094 48.96875 C 54.753906 49.726562 54.847656 50.488281 54.902344 51.253906 C 54.960938 52.019531 54.980469 52.785156 54.960938 53.550781 C 54.941406 54.320312 54.886719 55.085938 54.792969 55.847656 C 54.699219 56.609375 54.566406 57.363281 54.398438 58.113281 C 54.230469 58.863281 54.027344 59.601562 53.785156 60.332031 C 53.546875 61.0625 53.269531 61.777344 52.957031 62.476562 C 52.648438 63.179688 52.304688 63.867188 51.925781 64.535156 C 51.546875 65.203125 51.136719 65.851562 50.695312 66.476562 C 50.253906 67.105469 49.78125 67.710938 49.28125 68.292969 C 48.777344 68.875 48.25 69.429688 47.695312 69.957031 C 47.136719 70.488281 46.558594 70.988281 45.953125 71.460938 C 45.347656 71.933594 44.71875 72.375 44.070312 72.789062 C 43.421875 73.199219 42.757812 73.578125 42.070312 73.921875 C 41.382812 74.265625 40.683594 74.578125 39.96875 74.855469 C 39.25 75.132812 38.523438 75.371094 37.78125 75.578125 C 37.042969 75.78125 36.292969 75.949219 35.539062 76.082031 C 34.78125 76.214844 34.019531 76.308594 33.253906 76.363281 C 32.488281 76.421875 31.722656 76.441406 30.957031 76.421875 C 30.1875 76.402344 29.421875 76.347656 28.660156 76.253906 C 27.898438 76.160156 27.144531 76.027344 26.394531 75.859375 C 25.644531 75.691406 24.90625 75.488281 24.175781 75.246094 C 23.445312 75.007812 22.730469 74.730469 22.03125 74.417969 C 21.328125 74.109375 20.640625 73.765625 19.972656 73.386719 C 19.304688 73.007812 18.65625 72.597656 18.03125 72.15625 C 17.402344 71.714844 16.796875 71.242188 16.214844 70.742188 C 15.632812 70.238281 15.078125 69.710938 14.550781 69.15625 C 14.019531 68.597656 13.519531 68.019531 13.046875 67.414062 C 12.574219 66.808594 12.132812 66.179688 11.71875 65.53125 C 11.308594 64.882812 10.929688 64.21875 10.585938 63.53125 Z M 10.554688 63.5 " fill-opacity="1" fill-rule="nonzero"/></g></g></g></g><g mask="url(#934389b4f5)"><g transform="matrix(1, 0, 0, 1, 7, 0)"><g clip-path="url(#e6dfe21b77)"><g clip-path="url(#ae03c4cb54)"><path fill="#595959" d="M 54.898438 82.726562 C 38.617188 55.320312 35.429688 34.117188 44.382812 8.4375 C 41.421875 7.855469 38.4375 7.671875 35.429688 7.890625 C 32.421875 8.109375 29.492188 8.722656 26.648438 9.726562 C 3.460938 18.070312 -5.835938 51.210938 5.875 83.742188 C 17.585938 116.273438 45.882812 135.882812 69.070312 127.53125 C 92.257812 119.179688 101.546875 86.046875 89.835938 53.515625 C 87.601562 47.300781 84.691406 41.425781 81.101562 35.882812 C 76.71875 58.234375 68.867188 72.5 54.898438 82.726562 Z M 54.898438 82.726562 " fill-opacity="1" fill-rule="nonzero"/></g></g></g></g><g mask="url(#fa3d62c109)"><g transform="matrix(1, 0, 0, 1, 265, 0)"><g clip-path="url(#952e3405a0)"><g clip-path="url(#851b295591)"><path fill="#595959" d="M 48.101562 82.726562 C 64.382812 55.320312 67.570312 34.117188 58.617188 8.4375 C 61.578125 7.855469 64.5625 7.671875 67.570312 7.890625 C 70.578125 8.109375 73.507812 8.722656 76.351562 9.726562 C 99.539062 18.070312 108.835938 51.210938 97.125 83.742188 C 85.414062 116.273438 57.117188 135.882812 33.929688 127.53125 C 10.742188 119.179688 1.453125 86.046875 13.125 53.515625 C 15.359375 47.300781 18.269531 41.425781 21.859375 35.882812 C 26.28125 58.234375 34.132812 72.5 48.101562 82.726562 Z M 48.101562 82.726562 " fill-opacity="1" fill-rule="nonzero"/></g></g></g></g><path stroke-linecap="square" transform="matrix(7.8125, 0, 0, 7.8125, 0.0000045, 0)" fill="none" stroke-linejoin="miter" d="M 7.922999 10.589 C 5.838999 7.081 5.430999 4.367 6.576999 1.08 C 6.197999 1.0055 5.815999 0.982 5.430999 1.01 C 5.045999 1.038 4.670999 1.1165 4.306999 1.245 C 1.338999 2.313 0.148999 6.555 1.647999 10.719 C 3.146999 14.883 6.768999 17.393 9.736999 16.324 C 12.704999 15.255 13.893999 11.014 12.394999 6.85 C 12.108999 6.0545 11.736499 5.3025 11.276999 4.593 C 10.715999 7.454 9.710999 9.28 7.922999 10.589 Z M 7.922999 10.589 " stroke="#f7f7f7" stroke-width="2" stroke-opacity="1" stroke-miterlimit="10"/><path stroke-linecap="square" transform="matrix(7.8125, 0, 0, 7.8125, 0.0000045, 0)" fill="none" stroke-linejoin="miter" d="M 37.318999 37.055999 C 37.274999 36.967999 37.234999 36.878499 37.199999 36.786999 C 37.164499 36.694999 37.133499 36.601999 37.107499 36.507499 C 37.081499 36.412499 37.059999 36.316999 37.042999 36.219999 C 37.026499 36.122999 37.014499 36.025999 37.006999 35.927999 C 36.999999 35.829999 36.997499 35.731499 36.999999 35.633499 C 37.002499 35.535499 37.009499 35.437499 37.021999 35.339999 C 37.033999 35.242499 37.050499 35.145499 37.071999 35.049999 C 37.093999 34.953999 37.119999 34.859499 37.150999 34.765999 C 37.181499 34.672999 37.216999 34.581499 37.256999 34.491499 C 37.296499 34.401499 37.340999 34.313999 37.389499 34.228499 C 37.437499 34.142999 37.490499 34.059999 37.546999 33.979999 C 37.603499 33.899499 37.663999 33.822499 37.727999 33.747999 C 37.791999 33.673499 37.859999 33.602499 37.930999 33.534499 C 38.002499 33.466999 38.076499 33.402999 38.153999 33.342499 C 38.231499 33.281999 38.311999 33.225499 38.394999 33.172999 C 38.477999 33.120499 38.562999 33.071999 38.650999 33.027999 C 39.337999 32.682999 40.881999 30.786999 39.982999 29 L 42.682999 34.359999 C 42.726999 34.447999 42.766999 34.537499 42.802499 34.628999 C 42.837999 34.720999 42.868499 34.813999 42.894999 34.908999 C 42.920999 35.003499 42.942499 35.099499 42.959499 35.195999 C 42.976499 35.292999 42.988499 35.390499 42.995499 35.488499 C 43.002999 35.586499 43.005499 35.684499 43.002999 35.782499 C 43.000499 35.880999 42.993499 35.978999 42.981499 36.076499 C 42.969499 36.173999 42.952499 36.270499 42.930999 36.366499 C 42.909499 36.462499 42.883499 36.556999 42.852499 36.650499 C 42.821999 36.743999 42.786499 36.835499 42.746499 36.924999 C 42.706999 37.014999 42.662999 37.102999 42.614499 37.188499 C 42.565999 37.273999 42.513499 37.356999 42.456999 37.436999 C 42.400499 37.517499 42.339999 37.594999 42.275999 37.669499 C 42.211499 37.743999 42.143999 37.814999 42.072999 37.882499 C 42.001499 37.950499 41.927499 38.014499 41.849999 38.074999 C 41.772499 38.135499 41.691999 38.191999 41.608999 38.244999 C 41.525999 38.297499 41.440999 38.345999 41.352999 38.389999 C 41.264999 38.433999 41.175499 38.473999 41.083999 38.509499 C 40.991999 38.544999 40.898999 38.575499 40.803999 38.601999 C 40.709499 38.627999 40.613499 38.649499 40.516999 38.666499 C 40.419999 38.683499 40.322499 38.695499 40.224499 38.702499 C 40.126499 38.709999 40.028499 38.712499 39.930499 38.709999 C 39.831999 38.707499 39.733999 38.700499 39.636499 38.688499 C 39.538999 38.676499 39.442499 38.659499 39.346499 38.637999 C 39.250499 38.616499 39.155999 38.590499 39.062499 38.559499 C 38.968999 38.528999 38.877499 38.493499 38.787999 38.453499 C 38.697999 38.413999 38.609999 38.369999 38.524499 38.321499 C 38.438999 38.272999 38.355999 38.220499 38.275999 38.163999 C 38.195499 38.107499 38.117999 38.046999 38.043499 37.982999 C 37.968999 37.918499 37.897999 37.850999 37.830499 37.779999 C 37.762499 37.708499 37.698499 37.634499 37.637999 37.556999 C 37.577499 37.479499 37.520999 37.398999 37.467999 37.315999 C 37.415499 37.232999 37.366999 37.147999 37.322999 37.059999 Z M 37.318999 37.055999 " stroke="#f7f7f7" stroke-width="2" stroke-opacity="1" stroke-miterlimit="10"/><path stroke-linecap="square" transform="matrix(7.8125, 0, 0, 7.8125, 0.0000045, 0)" fill="none" stroke-linejoin="miter" d="M 22.625999 38.514999 C 22.718499 38.592499 22.816999 38.661999 22.921499 38.722499 C 23.025999 38.782999 23.134999 38.833499 23.248499 38.874999 C 23.361999 38.916499 23.477999 38.947499 23.596999 38.968499 C 23.715999 38.989499 23.835499 38.999999 23.956499 38.999999 C 24.077499 38.999999 24.196999 38.989499 24.315999 38.968499 C 24.434999 38.947499 24.550999 38.916499 24.664499 38.874999 C 24.777999 38.833499 24.886999 38.782999 24.991499 38.722499 C 25.095999 38.661999 25.194499 38.592499 25.286999 38.514999 C 27.305999 36.727999 30.912999 32.723999 30.912999 26.934 C 30.868499 24.6085 30.606499 22.308 30.126999 20.0325 C 29.647499 17.7565 28.959499 15.5455 28.061999 13.4 C 28.017999 13.296 27.965999 13.1955 27.906999 13.0995 C 27.847999 13.003 27.782499 12.9115 27.709999 12.8245 C 27.637499 12.738 27.558999 12.657 27.474499 12.5815 C 27.389999 12.5065 27.300499 12.438 27.205999 12.376 C 27.110999 12.314 27.012499 12.2595 26.909999 12.212 C 26.807499 12.1645 26.701499 12.125 26.593499 12.093 C 26.484999 12.061 26.374499 12.0375 26.262499 12.022 C 26.150499 12.0065 26.037999 11.999 25.924999 12 L 21.987999 12 C 21.874999 11.999 21.762499 12.0065 21.650499 12.022 C 21.538499 12.0375 21.427999 12.061 21.319499 12.093 C 21.211499 12.125 21.105499 12.1645 21.002999 12.212 C 20.900499 12.2595 20.801999 12.314 20.706999 12.376 C 20.612499 12.438 20.522999 12.5065 20.438499 12.5815 C 20.353999 12.657 20.275499 12.738 20.202999 12.8245 C 20.130499 12.9115 20.064999 13.003 20.005999 13.0995 C 19.946999 13.1955 19.894999 13.296 19.850999 13.4 C 18.953499 15.5455 18.265499 17.7565 17.785999 20.0325 C 17.306499 22.308 17.044499 24.6085 16.999999 26.934 C 16.999999 32.723999 20.606999 36.727999 22.625999 38.514999 Z M 22.625999 38.514999 " stroke="#f7f7f7" stroke-width="2" stroke-opacity="1" stroke-miterlimit="10"/><path stroke-linecap="square" transform="matrix(7.8125, 0, 0, 7.8125, 0.0000045, 0)" fill="none" stroke-linejoin="miter" d="M 39.999999 38.999999 C 39.999999 39.261999 39.986999 39.523499 39.961499 39.783999 C 39.935999 40.044999 39.897499 40.303499 39.846499 40.560499 C 39.794999 40.817499 39.731499 41.071499 39.655499 41.322499 C 39.579499 41.572999 39.491499 41.819499 39.390999 42.061499 C 39.290999 42.303499 39.178999 42.539999 39.055499 42.770999 C 38.931999 43.001999 38.797499 43.226499 38.651999 43.444499 C 38.505999 43.662499 38.350499 43.872499 38.183999 44.074999 C 38.017999 44.277499 37.841999 44.471499 37.656999 44.656999 C 37.471499 44.841999 37.277499 45.017999 37.074999 45.183999 C 36.872499 45.350499 36.662499 45.505999 36.444499 45.651499 C 36.226499 45.797499 36.001999 45.931999 35.770999 46.055499 C 35.539999 46.178999 35.303499 46.290999 35.061499 46.390999 C 34.819499 46.491499 34.572999 46.579499 34.322499 46.655499 C 34.071499 46.731499 33.817499 46.794999 33.560499 46.846499 C 33.303499 46.897499 33.044999 46.935999 32.783999 46.961499 C 32.523499 46.986999 32.261999 46.999999 31.999999 46.999999 C 31.737999 46.999999 31.476499 46.986999 31.215999 46.961499 C 30.954999 46.935999 30.696499 46.897499 30.439499 46.846499 C 30.182499 46.794999 29.928499 46.731499 29.677499 46.655499 C 29.426999 46.579499 29.180499 46.491499 28.938499 46.390999 C 28.696499 46.290999 28.459999 46.178999 28.228999 46.055499 C 27.997999 45.931999 27.773499 45.797499 27.555499 45.651499 C 27.337499 45.505999 27.127499 45.350499 26.924999 45.183999 C 26.722499 45.017999 26.528499 44.841999 26.342999 44.656999 C 26.157999 44.471499 25.981999 44.277499 25.815999 44.074999 C 25.649499 43.872499 25.493999 43.662499 25.347999 43.444499 C 25.202499 43.226499 25.067999 43.001999 24.944499 42.770999 C 24.820999 42.539999 24.708999 42.303499 24.608999 42.061499 C 24.508499 41.819499 24.420499 41.572999 24.344499 41.322499 C 24.268499 41.071499 24.204999 40.817499 24.153499 40.560499 C 24.102499 40.303499 24.063999 40.044999 24.038499 39.783999 C 24.012999 39.523499 23.999999 39.261999 23.999999 38.999999 " stroke="#f7f7f7" stroke-width="2" stroke-opacity="1" stroke-miterlimit="10"/><path stroke-linecap="square" transform="matrix(7.8125, 0, 0, 7.8125, 0.0000045, 0)" fill="none" stroke-linejoin="miter" d="M 21.999999 12 L 21.999999 10 " stroke="#f7f7f7" stroke-width="2" stroke-opacity="1" stroke-miterlimit="10"/><path stroke-linecap="square" transform="matrix(7.8125, 0, 0, 7.8125, 0.0000045, 0)" fill="none" stroke-linejoin="miter" d="M 25.999999 12 L 25.999999 10 " stroke="#f7f7f7" stroke-width="2" stroke-opacity="1" stroke-miterlimit="10"/><path stroke-linecap="butt" transform="matrix(7.8125, 0, 0, 7.8125, 0.0000045, 0)" fill="none" stroke-linejoin="miter" d="M 20.283999 12.734 C 15.624999 17.708 10.977999 23.065 3.165999 13.553 " stroke="#f7f7f7" stroke-width="2" stroke-opacity="1" stroke-miterlimit="10"/><path stroke-linecap="square" transform="matrix(7.8125, 0, 0, 7.8125, 0.0000045, 0)" fill="none" stroke-linejoin="miter" d="M 40.076999 10.589 C 42.160999 7.081 42.568999 4.367 41.422999 1.08 C 41.801999 1.0055 42.183999 0.982 42.568999 1.01 C 42.953999 1.038 43.328999 1.1165 43.692999 1.245 C 46.660999 2.313 47.850999 6.555 46.351999 10.719 C 44.852999 14.883 41.230999 17.393 38.262999 16.324 C 35.294999 15.255 34.105999 11.014 35.599999 6.85 C 35.885999 6.0545 36.258499 5.3025 36.717999 4.593 C 37.283999 7.454 38.288999 9.28 40.076999 10.589 Z M 40.076999 10.589 " stroke="#f7f7f7" stroke-width="2" stroke-opacity="1" stroke-miterlimit="10"/><path stroke-linecap="butt" transform="matrix(7.8125, 0, 0, 7.8125, 0.0000045, 0)" fill="none" stroke-linejoin="miter" d="M 27.715999 12.734 C 32.374999 17.708 37.021999 23.065 44.833999 13.553 " stroke="#f7f7f7" stroke-width="2" stroke-opacity="1" stroke-miterlimit="10"/><path stroke-linecap="butt" transform="matrix(7.8125, 0, 0, 7.8125, 0.0000045, 0)" fill="none" stroke-linejoin="miter" d="M 18.599999 33.399999 L 17.127999 34.871999 C 16.790499 35.209499 16.423499 35.510499 16.026999 35.775499 C 15.630499 36.040499 15.211999 36.264499 14.770999 36.446999 C 14.330499 36.629499 13.875999 36.767499 13.408499 36.860499 C 12.940499 36.953499 12.467999 36.999999 11.990999 36.999999 L 9.999999 36.999999 " stroke="#f7f7f7" stroke-width="2" stroke-opacity="1" stroke-miterlimit="10"/><path stroke-linecap="butt" transform="matrix(7.8125, 0, 0, 7.8125, 0.0000045, 0)" fill="none" stroke-linejoin="miter" d="M 17.075999 28.374 L 15.599999 29.691 C 15.397999 29.8705 15.186499 30.0385 14.965999 30.1945 C 14.744999 30.3505 14.516499 30.494 14.279499 30.6245 C 14.042999 30.755 13.799499 30.871999 13.549999 30.975499 C 13.299999 31.078499 13.045499 31.167999 12.785499 31.242999 C 12.525999 31.317999 12.262499 31.377999 11.995999 31.423499 C 11.729999 31.468999 11.461499 31.499999 11.191499 31.515499 C 10.921999 31.530999 10.651999 31.531999 10.381999 31.517499 C 10.111999 31.502999 9.843499 31.473499 9.576999 31.428999 L 6.999999 30.999999 " stroke="#f7f7f7" stroke-width="2" stroke-opacity="1" stroke-miterlimit="10"/><path stroke-linecap="butt" transform="matrix(7.8125, 0, 0, 7.8125, 0.0000045, 0)" fill="none" stroke-linejoin="miter" d="M 30.923999 28.374 L 32.403999 29.691 C 32.910999 30.1415 33.469499 30.514 34.080999 30.808499 C 34.691999 31.102499 35.331499 31.306999 35.999999 31.421999 " stroke="#f7f7f7" stroke-width="2" stroke-opacity="1" stroke-miterlimit="10"/><path stroke-linecap="butt" transform="matrix(7.8125, 0, 0, 7.8125, 0.0000045, 0)" fill="none" stroke-linejoin="miter" d="M 17.399999 22 L 14.454999 23.84 C 14.192499 24.0045 13.919999 24.1515 13.638499 24.281 C 13.356999 24.4105 13.068499 24.5215 12.772499 24.614 C 12.476999 24.7065 12.176499 24.7795 11.870999 24.834 C 11.565999 24.888 11.258499 24.9225 10.948999 24.937 C 10.639499 24.952 10.330499 24.9465 10.021499 24.922 C 9.712499 24.897 9.406499 24.8525 9.103499 24.7885 C 8.799999 24.7245 8.501999 24.6415 8.209499 24.539 C 7.916999 24.437 7.631999 24.3165 7.354999 24.178 L 4.999999 23 " stroke="#f7f7f7" stroke-width="2" stroke-opacity="1" stroke-miterlimit="10"/><path stroke-linecap="butt" transform="matrix(7.8125, 0, 0, 7.8125, 0.0000045, 0)" fill="none" stroke-linejoin="miter" d="M 29.399999 33.399999 L 30.871999 34.871999 C 31.306999 35.306999 31.788999 35.680499 32.318999 35.992999 C 32.848499 36.305499 33.408999 36.546999 33.999999 36.716999 " stroke="#f7f7f7" stroke-width="2" stroke-opacity="1" stroke-miterlimit="10"/><path stroke-linecap="butt" transform="matrix(7.8125, 0, 0, 7.8125, 0.0000045, 0)" fill="none" stroke-linejoin="miter" d="M 30.599999 22 L 33.544999 23.84 C 33.807499 24.0045 34.079999 24.1515 34.361499 24.281 C 34.642999 24.4105 34.931499 24.5215 35.227499 24.614 C 35.522999 24.7065 35.823499 24.7795 36.128999 24.834 C 36.433999 24.888 36.741499 24.9225 37.050999 24.937 C 37.360499 24.952 37.669499 24.9465 37.978499 24.922 C 38.287499 24.897 38.593499 24.8525 38.896499 24.7885 C 39.199999 24.7245 39.497999 24.6415 39.790499 24.539 C 40.082999 24.437 40.367999 24.3165 40.644999 24.178 L 42.999999 23 " stroke="#f7f7f7" stroke-width="2" stroke-opacity="1" stroke-miterlimit="10"/></svg>