<svg xmlns="http://www.w3.org/2000/svg" xmlns:xlink="http://www.w3.org/1999/xlink" width="500" zoomAndPan="magnify" viewBox="0 0 375 374.999991" height="500" preserveAspectRatio="xMidYMid meet" version="1.0"><defs><filter x="0%" y="0%" width="100%" height="100%" id="7d4c9be11a"><feColorMatrix values="0 0 0 0 1 0 0 0 0 1 0 0 0 0 1 0 0 0 1 0" color-interpolation-filters="sRGB"/></filter><mask id="9d61d134d3"><g filter="url(#7d4c9be11a)"><rect x="-37.5" width="450" fill="#000000" y="-37.499999" height="449.999989" fill-opacity="0.3"/></g></mask><clipPath id="d2e545d936"><path d="M 0.441406 0.601562 L 102.199219 0.601562 L 102.199219 110 L 0.441406 110 Z M 0.441406 0.601562 " clip-rule="nonzero"/></clipPath><clipPath id="80c83aaac7"><rect x="0" width="103" y="0" height="111"/></clipPath><mask id="12bdb3f162"><g filter="url(#7d4c9be11a)"><rect x="-37.5" width="450" fill="#000000" y="-37.499999" height="449.999989" fill-opacity="0.3"/></g></mask><clipPath id="92eb0124eb"><path d="M 0.679688 0.601562 L 102.441406 0.601562 L 102.441406 110 L 0.679688 110 Z M 0.679688 0.601562 " clip-rule="nonzero"/></clipPath><clipPath id="3845c9cac4"><rect x="0" width="103" y="0" height="111"/></clipPath></defs><rect x="-37.5" width="450" fill="#ffffff" y="-37.499999" height="449.999989" fill-opacity="1"/><rect x="-37.5" width="450" fill="#d7dedc" y="-37.499999" height="449.999989" fill-opacity="1"/><g mask="url(#9d61d134d3)"><g transform="matrix(1, 0, 0, 1, 265, 15)"><g clip-path="url(#80c83aaac7)"><g clip-path="url(#d2e545d936)"><path fill="#595959" d="M 31.875 110 L 47.5 110 C 49.292969 110 51.078125 109.914062 52.859375 109.738281 C 54.644531 109.5625 56.414062 109.296875 58.167969 108.949219 C 59.925781 108.601562 61.660156 108.164062 63.375 107.644531 C 65.089844 107.125 66.773438 106.523438 68.429688 105.835938 C 70.082031 105.152344 71.699219 104.386719 73.28125 103.542969 C 74.859375 102.699219 76.394531 101.777344 77.882812 100.785156 C 79.371094 99.789062 80.808594 98.722656 82.191406 97.585938 C 83.578125 96.449219 84.902344 95.25 86.167969 93.980469 C 87.4375 92.714844 88.636719 91.390625 89.773438 90.007812 C 90.910156 88.621094 91.976562 87.183594 92.972656 85.695312 C 93.964844 84.207031 94.886719 82.671875 95.730469 81.09375 C 96.574219 79.511719 97.339844 77.894531 98.023438 76.242188 C 98.710938 74.585938 99.3125 72.902344 99.832031 71.1875 C 100.351562 69.472656 100.789062 67.738281 101.136719 65.980469 C 101.484375 64.226562 101.75 62.457031 101.925781 60.671875 C 102.101562 58.890625 102.1875 57.105469 102.1875 55.3125 L 102.1875 0.625 L 101.5625 0.625 C 101.332031 2.234375 101.027344 3.832031 100.65625 5.414062 C 100.28125 6.996094 99.839844 8.558594 99.324219 10.101562 C 98.8125 11.648438 98.230469 13.164062 97.582031 14.65625 C 96.933594 16.148438 96.21875 17.605469 95.441406 19.035156 C 94.660156 20.460938 93.820312 21.851562 92.917969 23.203125 C 92.011719 24.554688 91.050781 25.867188 90.03125 27.132812 C 89.011719 28.398438 87.9375 29.617188 86.808594 30.789062 C 85.679688 31.960938 84.5 33.078125 83.269531 34.144531 C 82.042969 35.207031 80.769531 36.21875 79.449219 37.167969 C 78.132812 38.121094 76.773438 39.011719 75.375 39.839844 C 73.976562 40.671875 72.542969 41.4375 71.074219 42.140625 C 69.609375 42.84375 68.113281 43.480469 66.589844 44.046875 C 65.066406 44.617188 63.519531 45.117188 61.953125 45.546875 C 60.382812 45.976562 58.800781 46.339844 57.199219 46.628906 C 55.597656 46.917969 53.988281 47.136719 52.371094 47.28125 C 50.75 47.425781 49.125 47.5 47.5 47.5 L 0.625 47.5 Z M 31.875 110 " fill-opacity="1" fill-rule="nonzero"/></g></g></g></g><g mask="url(#12bdb3f162)"><g transform="matrix(1, 0, 0, 1, 7, 15)"><g clip-path="url(#3845c9cac4)"><g clip-path="url(#92eb0124eb)"><path fill="#595959" d="M 102.375 47.5 L 55.5 47.5 C 53.875 47.5 52.25 47.425781 50.628906 47.28125 C 49.011719 47.136719 47.402344 46.917969 45.800781 46.628906 C 44.199219 46.339844 42.617188 45.976562 41.046875 45.546875 C 39.480469 45.117188 37.933594 44.617188 36.410156 44.046875 C 34.886719 43.480469 33.390625 42.84375 31.925781 42.140625 C 30.457031 41.4375 29.023438 40.671875 27.625 39.839844 C 26.226562 39.011719 24.867188 38.121094 23.550781 37.167969 C 22.230469 36.21875 20.957031 35.207031 19.730469 34.144531 C 18.5 33.078125 17.320312 31.960938 16.191406 30.789062 C 15.0625 29.617188 13.988281 28.398438 12.96875 27.132812 C 11.949219 25.867188 10.988281 24.554688 10.082031 23.203125 C 9.179688 21.851562 8.339844 20.460938 7.558594 19.035156 C 6.78125 17.605469 6.066406 16.148438 5.417969 14.65625 C 4.769531 13.164062 4.1875 11.648438 3.675781 10.101562 C 3.160156 8.558594 2.71875 6.996094 2.34375 5.414062 C 1.972656 3.832031 1.667969 2.234375 1.4375 0.625 L 0.8125 0.625 L 0.8125 55.3125 C 0.8125 57.105469 0.898438 58.890625 1.074219 60.671875 C 1.25 62.457031 1.515625 64.226562 1.863281 65.980469 C 2.210938 67.738281 2.648438 69.472656 3.167969 71.1875 C 3.6875 72.902344 4.289062 74.585938 4.976562 76.242188 C 5.660156 77.894531 6.425781 79.511719 7.269531 81.09375 C 8.113281 82.671875 9.035156 84.207031 10.027344 85.695312 C 11.023438 87.183594 12.089844 88.621094 13.226562 90.007812 C 14.363281 91.390625 15.5625 92.714844 16.832031 93.980469 C 18.097656 95.25 19.421875 96.449219 20.804688 97.585938 C 22.191406 98.722656 23.628906 99.789062 25.117188 100.785156 C 26.605469 101.777344 28.140625 102.699219 29.71875 103.542969 C 31.300781 104.386719 32.917969 105.152344 34.570312 105.835938 C 36.226562 106.523438 37.910156 107.125 39.625 107.644531 C 41.339844 108.164062 43.074219 108.601562 44.832031 108.949219 C 46.585938 109.296875 48.355469 109.5625 50.140625 109.738281 C 51.921875 109.914062 53.707031 110 55.5 110 L 71.125 110 Z M 102.375 47.5 " fill-opacity="1" fill-rule="nonzero"/></g></g></g></g><path stroke-linecap="butt" transform="matrix(7.8125, 0, 0, 7.8125, 0.0000045, 0)" fill="none" stroke-linejoin="miter" d="M 17.999999 30.999999 L 19.999999 23 " stroke="#f7f7f7" stroke-width="2" stroke-opacity="1" stroke-miterlimit="10"/><path fill="#595959" d="M 156.25 187.5 L 140.335938 187.5 C 139.191406 187.5 138.046875 187.421875 136.914062 187.261719 C 135.777344 187.105469 134.660156 186.867188 133.554688 186.554688 C 132.453125 186.242188 131.378906 185.855469 130.328125 185.390625 C 129.28125 184.929688 128.265625 184.398438 127.292969 183.792969 C 126.316406 183.191406 125.386719 182.527344 124.503906 181.792969 C 123.621094 181.0625 122.792969 180.273438 122.019531 179.429688 C 121.246094 178.582031 120.535156 177.6875 119.886719 176.742188 C 119.234375 175.796875 118.652344 174.8125 118.140625 173.789062 L 109.375 156.25 L 146.25 156.25 C 146.832031 156.25 147.414062 156.277344 147.996094 156.335938 C 148.578125 156.394531 149.152344 156.476562 149.726562 156.59375 C 150.296875 156.707031 150.863281 156.847656 151.421875 157.015625 C 151.980469 157.1875 152.527344 157.382812 153.066406 157.605469 C 153.605469 157.828125 154.132812 158.078125 154.648438 158.351562 C 155.160156 158.628906 155.660156 158.929688 156.144531 159.25 C 156.632812 159.574219 157.097656 159.921875 157.550781 160.292969 C 158 160.664062 158.433594 161.054688 158.84375 161.46875 C 159.257812 161.878906 159.648438 162.3125 160.019531 162.761719 C 160.390625 163.214844 160.738281 163.679688 161.058594 164.167969 C 161.382812 164.652344 161.683594 165.152344 161.960938 165.664062 C 162.234375 166.179688 162.484375 166.707031 162.707031 167.246094 C 162.929688 167.785156 163.125 168.332031 163.296875 168.890625 C 163.464844 169.449219 163.605469 170.015625 163.71875 170.585938 C 163.835938 171.160156 163.917969 171.734375 163.976562 172.316406 C 164.035156 172.898438 164.0625 173.480469 164.0625 174.0625 L 164.0625 179.6875 C 164.0625 180.199219 164.011719 180.707031 163.914062 181.210938 C 163.8125 181.714844 163.664062 182.203125 163.46875 182.675781 C 163.269531 183.152344 163.03125 183.601562 162.746094 184.027344 C 162.460938 184.453125 162.136719 184.847656 161.773438 185.210938 C 161.410156 185.574219 161.015625 185.898438 160.589844 186.183594 C 160.164062 186.46875 159.714844 186.710938 159.238281 186.90625 C 158.765625 187.101562 158.277344 187.25 157.773438 187.351562 C 157.269531 187.449219 156.761719 187.5 156.25 187.5 Z M 156.25 187.5 " fill-opacity="1" fill-rule="nonzero"/><path stroke-linecap="butt" transform="matrix(7.8125, 0, 0, 7.8125, 0.0000045, 0)" fill="none" stroke-linejoin="miter" d="M 29.999999 30.999999 L 27.999999 23 " stroke="#f7f7f7" stroke-width="2" stroke-opacity="1" stroke-miterlimit="10"/><path fill="#595959" d="M 218.75 187.5 L 234.664062 187.5 C 235.808594 187.5 236.953125 187.421875 238.085938 187.261719 C 239.222656 187.105469 240.339844 186.867188 241.445312 186.554688 C 242.546875 186.242188 243.621094 185.855469 244.671875 185.390625 C 245.71875 184.929688 246.734375 184.398438 247.707031 183.792969 C 248.683594 183.191406 249.613281 182.527344 250.496094 181.792969 C 251.378906 181.0625 252.207031 180.273438 252.980469 179.429688 C 253.753906 178.582031 254.464844 177.6875 255.113281 176.742188 C 255.765625 175.796875 256.347656 174.8125 256.859375 173.789062 L 265.625 156.25 L 228.75 156.25 C 228.167969 156.25 227.585938 156.277344 227.003906 156.335938 C 226.421875 156.394531 225.847656 156.476562 225.273438 156.59375 C 224.703125 156.707031 224.136719 156.847656 223.578125 157.015625 C 223.019531 157.1875 222.472656 157.382812 221.933594 157.605469 C 221.394531 157.828125 220.867188 158.078125 220.351562 158.351562 C 219.839844 158.628906 219.339844 158.929688 218.855469 159.253906 C 218.367188 159.574219 217.902344 159.921875 217.449219 160.292969 C 217 160.664062 216.566406 161.054688 216.15625 161.46875 C 215.742188 161.878906 215.351562 162.3125 214.980469 162.761719 C 214.609375 163.214844 214.261719 163.679688 213.941406 164.167969 C 213.617188 164.652344 213.316406 165.152344 213.039062 165.664062 C 212.765625 166.179688 212.515625 166.707031 212.292969 167.246094 C 212.070312 167.785156 211.875 168.332031 211.703125 168.890625 C 211.535156 169.449219 211.394531 170.015625 211.28125 170.585938 C 211.164062 171.160156 211.082031 171.734375 211.023438 172.316406 C 210.964844 172.898438 210.9375 173.480469 210.9375 174.0625 L 210.9375 179.6875 C 210.9375 180.199219 210.988281 180.707031 211.085938 181.210938 C 211.1875 181.714844 211.335938 182.203125 211.53125 182.675781 C 211.726562 183.152344 211.96875 183.601562 212.253906 184.027344 C 212.539062 184.453125 212.863281 184.847656 213.226562 185.210938 C 213.589844 185.574219 213.984375 185.898438 214.410156 186.183594 C 214.835938 186.46875 215.285156 186.710938 215.761719 186.90625 C 216.234375 187.101562 216.722656 187.25 217.226562 187.351562 C 217.730469 187.449219 218.238281 187.5 218.75 187.5 Z M 218.75 187.5 " fill-opacity="1" fill-rule="nonzero"/><path stroke-linecap="butt" transform="matrix(7.8125, 0, 0, 7.8125, 0.0000045, 0)" fill="none" stroke-linejoin="miter" d="M 14.999999 34.999999 L 11.881999 30.012 C 11.736499 29.7795 11.605499 29.539 11.488499 29.291 C 11.371499 29.043 11.268999 28.7895 11.181999 28.5295 C 11.094499 28.2695 11.022999 28.005 10.966499 27.7365 C 10.910499 27.4685 10.869999 27.1975 10.845999 26.9245 C 10.821499 26.651 10.812999 26.3775 10.820999 26.1035 C 10.828499 25.8295 10.852499 25.5565 10.892499 25.2855 C 10.931999 25.014 10.987999 24.746 11.058999 24.481 C 11.130499 24.2165 11.216999 23.9565 11.318999 23.702 L 11.999999 22 L 9.999999 16 L 13.999999 8 L 33.999999 8 L 37.999999 16 L 35.999999 22 L 36.680999 23.7 C 36.782999 23.9545 36.869499 24.2145 36.940999 24.479 C 37.011999 24.744 37.067999 25.012 37.107499 25.2835 C 37.147499 25.5545 37.171499 25.8275 37.178999 26.1015 C 37.186999 26.3755 37.178499 26.649 37.153999 26.9225 C 37.129999 27.1955 37.089499 27.4665 37.033499 27.7345 C 36.976999 28.003 36.905499 28.2675 36.817999 28.5275 C 36.730999 28.7875 36.628499 29.041 36.511499 29.289 C 36.394499 29.537 36.263499 29.7775 36.117999 30.01 L 32.999999 34.999999 " stroke="#f7f7f7" stroke-width="2" stroke-opacity="1" stroke-miterlimit="10"/><path stroke-linecap="butt" transform="matrix(7.8125, 0, 0, 7.8125, 0.0000045, 0)" fill="none" stroke-linejoin="miter" d="M 30.999999 40.999999 L 30.999999 41.999999 C 30.999999 42.098499 30.994999 42.196499 30.985499 42.293999 C 30.975999 42.391999 30.961499 42.488999 30.942499 42.585499 C 30.922999 42.681499 30.899499 42.776999 30.870999 42.870999 C 30.842499 42.964999 30.808999 43.057499 30.771499 43.147999 C 30.733999 43.238999 30.691999 43.327499 30.645999 43.413999 C 30.599499 43.500999 30.548999 43.584999 30.494499 43.666499 C 30.439999 43.748499 30.381499 43.826999 30.318999 43.902999 C 30.256499 43.978999 30.190999 44.051999 30.121499 44.121499 C 30.051999 44.190999 29.978999 44.256499 29.902999 44.318999 C 29.826999 44.381499 29.748499 44.439999 29.666499 44.494499 C 29.584999 44.548999 29.500999 44.599499 29.413999 44.645999 C 29.327499 44.691999 29.238999 44.733999 29.147999 44.771499 C 29.057499 44.808999 28.964999 44.842499 28.870999 44.870999 C 28.776999 44.899499 28.681499 44.922999 28.585499 44.942499 C 28.488999 44.961499 28.391999 44.975999 28.293999 44.985499 C 28.196499 44.994999 28.098499 44.999999 27.999999 44.999999 L 19.999999 44.999999 C 19.901499 44.999999 19.803499 44.994999 19.705999 44.985499 C 19.607999 44.975999 19.510999 44.961499 19.414499 44.942499 C 19.318499 44.922999 19.222999 44.899499 19.128999 44.870999 C 19.034999 44.842499 18.942499 44.808999 18.851999 44.771499 C 18.760999 44.733999 18.672499 44.691999 18.585999 44.645999 C 18.498999 44.599499 18.414999 44.548999 18.333499 44.494499 C 18.251499 44.439999 18.172999 44.381499 18.096999 44.318999 C 18.020999 44.256499 17.947999 44.190999 17.878499 44.121499 C 17.808999 44.051999 17.743499 43.978999 17.680999 43.902999 C 17.618499 43.826999 17.559999 43.748499 17.505499 43.666499 C 17.450999 43.584999 17.400499 43.500999 17.353999 43.413999 C 17.307999 43.327499 17.265999 43.238999 17.228499 43.147999 C 17.190999 43.057499 17.157499 42.964999 17.128999 42.870999 C 17.100499 42.776999 17.076999 42.681499 17.057499 42.585499 C 17.038499 42.488999 17.023999 42.391999 17.014499 42.293999 C 17.004999 42.196499 16.999999 42.098499 16.999999 41.999999 L 16.999999 40.999999 " stroke="#f7f7f7" stroke-width="2" stroke-opacity="1" stroke-miterlimit="10"/><path stroke-linecap="square" transform="matrix(7.8125, 0, 0, 7.8125, 0.0000045, 0)" fill="none" stroke-linejoin="miter" d="M 18.458999 30.999999 L 29.540999 30.999999 C 29.712999 30.999999 29.883999 31.014999 30.053499 31.043999 C 30.222999 31.073499 30.388999 31.117499 30.550999 31.175499 C 30.712999 31.233499 30.868499 31.304499 31.018499 31.389499 C 31.167999 31.474499 31.309499 31.570999 31.442499 31.680499 C 31.575499 31.789499 31.698499 31.908999 31.810999 32.039499 C 31.923499 32.169499 32.023999 32.308499 32.112499 32.455999 C 32.200999 32.603499 32.276499 32.757499 32.338499 32.917999 C 32.400499 33.078499 32.448499 33.243499 32.481999 33.411999 L 33.281999 37.411999 C 33.303499 37.520499 33.319499 37.629999 33.328999 37.739999 C 33.338499 37.849999 33.341999 37.960499 33.339499 38.070999 C 33.336499 38.181499 33.327999 38.291499 33.312999 38.401499 C 33.298499 38.510999 33.277499 38.619499 33.250999 38.726499 C 33.223999 38.833999 33.191499 38.939499 33.152999 39.042999 C 33.114499 39.146999 33.070499 39.247999 33.020999 39.346999 C 32.970999 39.445999 32.915999 39.541499 32.855999 39.634499 C 32.795499 39.726999 32.730499 39.816499 32.660499 39.901999 C 32.590499 39.987499 32.515499 40.068499 32.436499 40.145999 C 32.357499 40.223499 32.274499 40.295999 32.186999 40.363999 C 32.099999 40.431999 32.009499 40.495499 31.914999 40.553499 C 31.820999 40.611499 31.723999 40.663999 31.623999 40.711499 C 31.523999 40.758499 31.421999 40.800499 31.316999 40.836499 C 31.212499 40.872499 31.106499 40.902499 30.998499 40.926999 C 30.890499 40.950999 30.781499 40.969499 30.671999 40.981499 C 30.561999 40.993999 30.451499 40.999999 30.340999 40.999999 L 17.658999 40.999999 C 17.548499 40.999999 17.437999 40.993999 17.327999 40.981499 C 17.218499 40.969499 17.109499 40.950999 17.001499 40.926999 C 16.893499 40.902499 16.787499 40.872499 16.682999 40.836499 C 16.577999 40.800499 16.475999 40.758499 16.375999 40.711499 C 16.275999 40.663999 16.178999 40.611499 16.084999 40.553499 C 15.990499 40.494999 15.899999 40.431999 15.812999 40.363999 C 15.725499 40.295999 15.642499 40.223499 15.563499 40.145999 C 15.484499 40.068499 15.409999 39.987499 15.339499 39.901999 C 15.269499 39.816499 15.204499 39.726999 15.143999 39.634499 C 15.083999 39.541499 15.028999 39.445999 14.978999 39.346999 C 14.929499 39.247999 14.885499 39.146999 14.846999 39.042999 C 14.808499 38.939499 14.775999 38.833999 14.748999 38.726499 C 14.722499 38.619499 14.701499 38.510999 14.686999 38.401499 C 14.671999 38.291499 14.663499 38.181499 14.660499 38.070999 C 14.657999 37.960499 14.661499 37.849999 14.670999 37.739999 C 14.680499 37.629999 14.696499 37.520499 14.717999 37.411999 L 15.517999 33.411999 C 15.551499 33.243499 15.599499 33.078499 15.661499 32.917999 C 15.723499 32.757499 15.798999 32.603499 15.887499 32.455999 C 15.975999 32.308499 16.076499 32.169499 16.188999 32.039499 C 16.301499 31.908999 16.424499 31.789499 16.557499 31.680499 C 16.690499 31.570999 16.831999 31.474499 16.981499 31.389499 C 17.131499 31.304499 17.286999 31.233499 17.448999 31.175499 C 17.610999 31.117499 17.776999 31.073499 17.946499 31.043999 C 18.115999 31.014999 18.286999 30.999999 18.458999 30.999999 Z M 18.458999 30.999999 " stroke="#f7f7f7" stroke-width="2" stroke-opacity="1" stroke-miterlimit="10"/><path fill="#595959" d="M 164.0625 285.15625 C 164.0625 285.925781 163.988281 286.6875 163.835938 287.441406 C 163.6875 288.195312 163.464844 288.929688 163.171875 289.640625 C 162.875 290.351562 162.515625 291.027344 162.085938 291.667969 C 161.660156 292.304688 161.175781 292.898438 160.628906 293.441406 C 160.085938 293.988281 159.492188 294.472656 158.855469 294.898438 C 158.214844 295.328125 157.539062 295.6875 156.828125 295.984375 C 156.117188 296.277344 155.382812 296.5 154.628906 296.648438 C 153.875 296.800781 153.113281 296.875 152.34375 296.875 C 151.574219 296.875 150.8125 296.800781 150.058594 296.648438 C 149.304688 296.5 148.570312 296.277344 147.859375 295.984375 C 147.148438 295.6875 146.472656 295.328125 145.832031 294.898438 C 145.191406 294.472656 144.601562 293.988281 144.058594 293.441406 C 143.511719 292.898438 143.027344 292.304688 142.601562 291.667969 C 142.171875 291.027344 141.8125 290.351562 141.515625 289.640625 C 141.222656 288.929688 141 288.195312 140.851562 287.441406 C 140.699219 286.6875 140.625 285.925781 140.625 285.15625 C 140.625 284.386719 140.699219 283.625 140.851562 282.871094 C 141 282.117188 141.222656 281.382812 141.515625 280.671875 C 141.8125 279.960938 142.171875 279.285156 142.601562 278.644531 C 143.027344 278.007812 143.511719 277.414062 144.058594 276.871094 C 144.601562 276.324219 145.191406 275.839844 145.832031 275.414062 C 146.472656 274.984375 147.148438 274.625 147.859375 274.328125 C 148.570312 274.035156 149.304688 273.8125 150.058594 273.664062 C 150.8125 273.511719 151.574219 273.4375 152.34375 273.4375 C 153.113281 273.4375 153.875 273.511719 154.628906 273.664062 C 155.382812 273.8125 156.117188 274.035156 156.828125 274.328125 C 157.539062 274.625 158.214844 274.984375 158.855469 275.414062 C 159.492188 275.839844 160.085938 276.324219 160.628906 276.871094 C 161.175781 277.414062 161.660156 278.007812 162.085938 278.644531 C 162.515625 279.285156 162.875 279.960938 163.171875 280.671875 C 163.464844 281.382812 163.6875 282.117188 163.835938 282.871094 C 163.988281 283.625 164.0625 284.386719 164.0625 285.15625 Z M 164.0625 285.15625 " fill-opacity="1" fill-rule="nonzero"/><path fill="#595959" d="M 234.375 285.15625 C 234.375 285.925781 234.300781 286.6875 234.148438 287.441406 C 234 288.195312 233.777344 288.929688 233.484375 289.640625 C 233.1875 290.351562 232.828125 291.027344 232.398438 291.667969 C 231.972656 292.304688 231.488281 292.898438 230.941406 293.441406 C 230.398438 293.988281 229.804688 294.472656 229.167969 294.898438 C 228.527344 295.328125 227.851562 295.6875 227.140625 295.984375 C 226.429688 296.277344 225.695312 296.5 224.941406 296.648438 C 224.1875 296.800781 223.425781 296.875 222.65625 296.875 C 221.886719 296.875 221.125 296.800781 220.371094 296.648438 C 219.617188 296.5 218.882812 296.277344 218.171875 295.984375 C 217.460938 295.6875 216.785156 295.328125 216.144531 294.898438 C 215.503906 294.472656 214.914062 293.988281 214.371094 293.441406 C 213.824219 292.898438 213.339844 292.304688 212.914062 291.667969 C 212.484375 291.027344 212.125 290.351562 211.828125 289.640625 C 211.535156 288.929688 211.3125 288.195312 211.164062 287.441406 C 211.011719 286.6875 210.9375 285.925781 210.9375 285.15625 C 210.9375 284.386719 211.011719 283.625 211.164062 282.871094 C 211.3125 282.117188 211.535156 281.382812 211.828125 280.671875 C 212.125 279.960938 212.484375 279.285156 212.914062 278.644531 C 213.339844 278.007812 213.824219 277.414062 214.371094 276.871094 C 214.914062 276.324219 215.503906 275.839844 216.144531 275.414062 C 216.785156 274.984375 217.460938 274.625 218.171875 274.328125 C 218.882812 274.035156 219.617188 273.8125 220.371094 273.664062 C 221.125 273.511719 221.886719 273.4375 222.65625 273.4375 C 223.425781 273.4375 224.1875 273.511719 224.941406 273.664062 C 225.695312 273.8125 226.429688 274.035156 227.140625 274.328125 C 227.851562 274.625 228.527344 274.984375 229.167969 275.414062 C 229.804688 275.839844 230.398438 276.324219 230.941406 276.871094 C 231.488281 277.414062 231.972656 278.007812 232.398438 278.644531 C 232.828125 279.285156 233.1875 279.960938 233.484375 280.671875 C 233.777344 281.382812 234 282.117188 234.148438 282.871094 C 234.300781 283.625 234.375 284.386719 234.375 285.15625 Z M 234.375 285.15625 " fill-opacity="1" fill-rule="nonzero"/><path stroke-linecap="butt" transform="matrix(7.8125, 0, 0, 7.8125, 0.0000045, 0)" fill="none" stroke-linejoin="miter" d="M 8.999999 23 L 6.999999 23 C 6.803499 23 6.607499 22.9905 6.411999 22.971 C 6.216499 22.952 6.021999 22.923 5.829499 22.8845 C 5.636499 22.8465 5.446499 22.7985 5.258499 22.7415 C 5.069999 22.6845 4.885499 22.6185 4.703999 22.5435 C 4.522499 22.468 4.344999 22.384 4.171499 22.2915 C 3.998499 22.199 3.829999 22.098 3.666499 21.989 C 3.502999 21.8795 3.345499 21.7625 3.193499 21.638 C 3.041499 21.5135 2.896499 21.3815 2.757499 21.2425 C 2.618499 21.1035 2.486499 20.9585 2.361999 20.8065 C 2.237499 20.6545 2.120499 20.497 2.010999 20.3335 C 1.901999 20.17 1.800999 20.0015 1.708499 19.8285 C 1.615999 19.655 1.531999 19.4775 1.456499 19.296 C 1.381499 19.1145 1.315499 18.93 1.258499 18.7415 C 1.201499 18.5535 1.153499 18.3635 1.115499 18.1705 C 1.076999 17.978 1.047999 17.7835 1.028999 17.588 C 1.009499 17.3925 0.999999 17.1965 0.999999 17 L 9.999999 17 " stroke="#f7f7f7" stroke-width="2" stroke-opacity="1" stroke-miterlimit="10"/><path stroke-linecap="butt" transform="matrix(7.8125, 0, 0, 7.8125, 0.0000045, 0)" fill="none" stroke-linejoin="miter" d="M 38.999999 23 L 40.999999 23 C 41.196499 23 41.392499 22.9905 41.587999 22.971 C 41.783499 22.952 41.977999 22.923 42.170499 22.8845 C 42.363499 22.8465 42.553499 22.7985 42.741499 22.7415 C 42.929999 22.6845 43.114499 22.6185 43.295999 22.5435 C 43.477499 22.468 43.654999 22.384 43.828499 22.2915 C 44.001499 22.199 44.169999 22.098 44.333499 21.989 C 44.496999 21.8795 44.654499 21.7625 44.806499 21.638 C 44.958499 21.5135 45.103499 21.3815 45.242499 21.2425 C 45.381499 21.1035 45.513499 20.9585 45.637999 20.8065 C 45.762499 20.6545 45.879499 20.497 45.988999 20.3335 C 46.097999 20.17 46.198999 20.0015 46.291499 19.8285 C 46.383999 19.655 46.467999 19.4775 46.543499 19.296 C 46.618499 19.1145 46.684499 18.93 46.741499 18.7415 C 46.798499 18.5535 46.846499 18.3635 46.884499 18.1705 C 46.922999 17.978 46.951999 17.7835 46.970999 17.588 C 46.990499 17.3925 46.999999 17.1965 46.999999 17 L 37.999999 17 " stroke="#f7f7f7" stroke-width="2" stroke-opacity="1" stroke-miterlimit="10"/><path stroke-linecap="square" transform="matrix(7.8125, 0, 0, 7.8125, 0.0000045, 0)" fill="none" stroke-linejoin="miter" d="M 37.999999 16 L 39.999999 16 C 40.229499 16 40.457999 15.989 40.685999 15.9665 C 40.914499 15.944 41.140999 15.91 41.365499 15.8655 C 41.590499 15.821 41.812499 15.765 42.031999 15.6985 C 42.251499 15.632 42.466999 15.555 42.678999 15.467 C 42.890499 15.3795 43.097499 15.2815 43.299999 15.1735 C 43.501999 15.0655 43.698499 14.9475 43.888999 14.8205 C 44.079499 14.693 44.263499 14.5565 44.440499 14.411 C 44.617999 14.2655 44.787499 14.112 44.949499 13.9495 C 45.111999 13.7875 45.265499 13.618 45.410999 13.441 C 45.556499 13.2635 45.692999 13.0795 45.820499 12.889 C 45.947499 12.6985 46.065499 12.502 46.173499 12.3 C 46.281499 12.0975 46.379499 11.8905 46.466999 11.679 C 46.554999 11.467 46.631999 11.2515 46.698499 11.032 C 46.764999 10.8125 46.820999 10.5905 46.865499 10.3655 C 46.909999 10.141 46.943999 9.9145 46.966499 9.686 C 46.988999 9.458 46.999999 9.2295 46.999999 9 L 46.999999 2 L 46.919999 2 C 46.890499 2.206 46.851499 2.4105 46.803999 2.613 C 46.755999 2.8155 46.699499 3.0155 46.633499 3.213 C 46.567999 3.411 46.493499 3.605 46.410499 3.796 C 46.327499 3.987 46.235999 4.1735 46.136499 4.3565 C 46.036499 4.539 45.928999 4.717 45.813499 4.89 C 45.697499 5.063 45.574499 5.231 45.443999 5.393 C 45.313499 5.555 45.175999 5.711 45.031499 5.861 C 44.886999 6.011 44.735999 6.154 44.578499 6.2905 C 44.421499 6.4265 44.258499 6.556 44.089499 6.6775 C 43.920999 6.7995 43.746999 6.9135 43.567999 7.0195 C 43.388999 7.126 43.205499 7.224 43.017499 7.314 C 42.829999 7.404 42.638499 7.4855 42.443499 7.558 C 42.248499 7.631 42.050499 7.695 41.849999 7.75 C 41.648999 7.805 41.446499 7.8515 41.241499 7.8885 C 41.036499 7.9255 40.830499 7.9535 40.623499 7.972 C 40.415999 7.9905 40.207999 8 39.999999 8 L 33.999999 8 " stroke="#f7f7f7" stroke-width="2" stroke-opacity="1" stroke-miterlimit="10"/><path stroke-linecap="square" transform="matrix(7.8125, 0, 0, 7.8125, 0.0000045, 0)" fill="none" stroke-linejoin="miter" d="M 13.999999 8 L 7.999999 8 C 7.791999 8 7.583999 7.9905 7.376499 7.972 C 7.169499 7.9535 6.963499 7.9255 6.758499 7.8885 C 6.553499 7.8515 6.350999 7.805 6.149999 7.75 C 5.949499 7.695 5.751499 7.631 5.556499 7.558 C 5.361499 7.4855 5.169999 7.404 4.982499 7.314 C 4.794499 7.224 4.610999 7.126 4.431999 7.0195 C 4.252999 6.9135 4.078999 6.7995 3.910499 6.6775 C 3.741499 6.556 3.578499 6.4265 3.421499 6.2905 C 3.263999 6.154 3.112999 6.011 2.968499 5.861 C 2.823999 5.711 2.686499 5.555 2.555999 5.393 C 2.425499 5.231 2.302499 5.063 2.186499 4.89 C 2.070999 4.717 1.963499 4.539 1.863499 4.3565 C 1.763999 4.1735 1.672499 3.987 1.589499 3.796 C 1.506499 3.605 1.431999 3.411 1.366499 3.213 C 1.300499 3.0155 1.243999 2.8155 1.195999 2.613 C 1.148499 2.4105 1.109499 2.206 1.079999 2 L 0.999999 2 L 0.999999 9 C 0.999999 9.2295 1.010999 9.458 1.033499 9.686 C 1.055999 9.9145 1.089999 10.141 1.134499 10.3655 C 1.178999 10.5905 1.234999 10.8125 1.301499 11.032 C 1.367999 11.2515 1.444999 11.467 1.532999 11.679 C 1.620499 11.8905 1.718499 12.0975 1.826499 12.3 C 1.934499 12.502 2.052499 12.6985 2.179499 12.889 C 2.306999 13.0795 2.443499 13.2635 2.588999 13.441 C 2.734499 13.618 2.887999 13.7875 3.050499 13.9495 C 3.212499 14.112 3.381999 14.2655 3.558999 14.411 C 3.736499 14.5565 3.920499 14.693 4.110999 14.8205 C 4.301499 14.9475 4.497999 15.0655 4.699999 15.1735 C 4.902499 15.2815 5.109499 15.3795 5.320999 15.467 C 5.532999 15.555 5.748499 15.632 5.967999 15.6985 C 6.187499 15.765 6.409499 15.821 6.634499 15.8655 C 6.858999 15.91 7.085499 15.944 7.313999 15.9665 C 7.541999 15.989 7.770499 16 7.999999 16 L 9.999999 16 " stroke="#f7f7f7" stroke-width="2" stroke-opacity="1" stroke-miterlimit="10"/></svg>