<svg xmlns="http://www.w3.org/2000/svg" xmlns:xlink="http://www.w3.org/1999/xlink" width="500" zoomAndPan="magnify" viewBox="0 0 375 374.999991" height="500" preserveAspectRatio="xMidYMid meet" version="1.0"><defs><filter x="0%" y="0%" width="100%" height="100%" id="afb04bf9e3"><feColorMatrix values="0 0 0 0 1 0 0 0 0 1 0 0 0 0 1 0 0 0 1 0" color-interpolation-filters="sRGB"/></filter><mask id="173e7c394c"><g filter="url(#afb04bf9e3)"><rect x="-37.5" width="450" fill="#000000" y="-37.499999" height="449.999989" fill-opacity="0.3"/></g></mask><clipPath id="e241944595"><path d="M 7 2 L 351.601562 2 L 351.601562 358 L 7 358 Z M 7 2 " clip-rule="nonzero"/></clipPath><clipPath id="4c1629ee91"><rect x="0" width="352" y="0" height="361"/></clipPath></defs><rect x="-37.5" width="450" fill="#ffffff" y="-37.499999" height="449.999989" fill-opacity="1"/><rect x="-37.5" width="450" fill="#d7dedc" y="-37.499999" height="449.999989" fill-opacity="1"/><g mask="url(#173e7c394c)"><g transform="matrix(1, 0, 0, 1, 0, 7)"><g clip-path="url(#4c1629ee91)"><g clip-path="url(#e241944595)"><path fill="#595959" d="M 132.8125 352.375 C 130.238281 347.988281 127.976562 343.445312 126.023438 338.746094 C 124.074219 334.046875 122.457031 329.234375 121.167969 324.316406 C 119.878906 319.394531 118.929688 314.40625 118.328125 309.355469 C 117.722656 304.304688 117.46875 299.234375 117.5625 294.148438 L 160.9375 294.148438 C 162.375 294.148438 163.804688 294.019531 165.222656 293.765625 C 166.636719 293.507812 168.019531 293.128906 169.367188 292.625 C 170.71875 292.121094 172.011719 291.503906 173.246094 290.769531 C 174.484375 290.035156 175.648438 289.195312 176.734375 288.25 C 177.824219 287.308594 178.816406 286.277344 179.71875 285.15625 C 180.621094 284.035156 181.417969 282.839844 182.105469 281.578125 C 182.796875 280.3125 183.367188 278.996094 183.820312 277.632812 C 184.273438 276.265625 184.601562 274.871094 184.804688 273.445312 L 189.882812 237.882812 L 221.976562 225.03125 C 222.492188 224.824219 222.980469 224.566406 223.445312 224.261719 C 223.90625 223.953125 224.335938 223.601562 224.722656 223.203125 C 225.113281 222.808594 225.457031 222.375 225.757812 221.90625 C 226.058594 221.441406 226.308594 220.945312 226.503906 220.425781 C 226.703125 219.90625 226.84375 219.371094 226.929688 218.824219 C 227.019531 218.273438 227.046875 217.722656 227.019531 217.167969 C 226.992188 216.613281 226.90625 216.066406 226.765625 215.527344 C 226.625 214.992188 226.429688 214.472656 226.179688 213.976562 L 197.9375 157.492188 C 197.9375 107.070312 189.523438 72.460938 162.734375 53.671875 C 162.734375 53.671875 157.75 93.1875 109.523438 125.335938 C 106.089844 127.5 102.796875 129.855469 99.636719 132.402344 C 96.480469 134.953125 93.484375 137.675781 90.644531 140.578125 C 87.808594 143.476562 85.148438 146.535156 82.671875 149.746094 C 80.191406 152.957031 77.90625 156.304688 75.820312 159.78125 C 73.734375 163.261719 71.855469 166.851562 70.191406 170.550781 C 68.523438 174.25 67.078125 178.035156 65.855469 181.90625 C 64.632812 185.773438 63.640625 189.699219 62.878906 193.6875 C 62.117188 197.671875 61.589844 201.6875 61.296875 205.734375 C 3.023438 157.507812 -3.007812 93.203125 21.09375 53.015625 C 45.195312 12.828125 87.421875 -0.570312 133.640625 3.445312 C 192.695312 8.585938 230.664062 65.945312 240.140625 144.109375 C 257.8125 289.875 351.5625 258.625 351.5625 258.625 C 351.5625 258.625 335.9375 383.625 132.8125 352.375 Z M 132.8125 352.375 " fill-opacity="1" fill-rule="nonzero"/></g></g></g></g><path fill="#595959" d="M 145.945312 155.65625 L 176.007812 170.6875 C 177.214844 168.367188 178.132812 165.933594 178.753906 163.394531 C 179.375 160.851562 179.6875 158.273438 179.6875 155.65625 C 179.6875 153.039062 179.375 150.460938 178.753906 147.917969 C 178.132812 145.378906 177.214844 142.945312 176.007812 140.625 Z M 145.945312 155.65625 " fill-opacity="1" fill-rule="nonzero"/><path stroke-linecap="square" transform="matrix(7.8125, 0, 0, 7.8125, 0.0000045, 0.000000000000042633)" fill="none" stroke-linejoin="miter" d="M 16.999999 45.999999 C 16.670499 45.438499 16.380999 44.856999 16.130999 44.255499 C 15.881499 43.653999 15.674499 43.037999 15.509499 42.408499 C 15.344499 41.778499 15.222999 41.139999 15.145999 40.493499 C 15.068499 39.846999 15.035999 39.197999 15.047999 38.546999 L 20.599999 38.546999 C 20.783999 38.546999 20.966999 38.530499 21.148499 38.497999 C 21.329499 38.464999 21.506499 38.416499 21.678999 38.351999 C 21.851999 38.287499 22.017499 38.208499 22.175499 38.114499 C 22.333999 38.020499 22.482999 37.912999 22.621999 37.791999 C 22.761499 37.671499 22.888499 37.539499 23.003999 37.395999 C 23.119499 37.252499 23.221499 37.099499 23.309499 36.937999 C 23.397999 36.775999 23.470999 36.607499 23.528999 36.432999 C 23.586999 36.257999 23.628999 36.079499 23.654999 35.896999 L 24.304999 31.344999 L 28.412999 29.7 C 28.478999 29.6735 28.541499 29.6405 28.600999 29.6015 C 28.659999 29.562 28.714999 29.517 28.764499 29.466 C 28.814499 29.4155 28.858499 29.36 28.896999 29.3 C 28.935499 29.2405 28.967499 29.177 28.992499 29.1105 C 29.017999 29.044 29.035999 28.9755 29.046999 28.9055 C 29.058499 28.835 29.061999 28.7645 29.058499 28.6935 C 29.054999 28.6225 29.043999 28.5525 29.025999 28.4835 C 29.007999 28.415 28.982999 28.3485 28.950999 28.285 L 25.335999 21.055 C 25.335999 14.601 24.258999 10.171 20.829999 7.766 C 20.829999 7.766 20.191999 12.824 14.018999 16.939 C 13.579499 17.216 13.157999 17.5175 12.753499 17.8435 C 12.349499 18.17 11.965999 18.5185 11.602499 18.89 C 11.239499 19.261 10.898999 19.6525 10.581999 20.0635 C 10.264499 20.4745 9.971999 20.903 9.704999 21.348 C 9.437999 21.7935 9.197499 22.253 8.984499 22.7265 C 8.770999 23.2 8.585999 23.6845 8.429499 24.18 C 8.272999 24.675 8.145999 25.1775 8.048499 25.688 C 7.950999 26.198 7.883499 26.712 7.845999 27.23 C 0.386999 21.057 -0.385001 12.826 2.699999 7.682 C 5.784999 2.538 11.189999 0.823 17.105999 1.337 C 24.664999 1.995 29.524999 9.337 30.737999 19.342 C 32.999999 37.999999 44.999999 33.999999 44.999999 33.999999 C 44.999999 33.999999 42.999999 49.999999 16.999999 45.999999 Z M 16.999999 45.999999 " stroke="#f7f7f7" stroke-width="2" stroke-opacity="1" stroke-miterlimit="10"/><path fill="#595959" d="M 328.125 132.8125 C 328.125 133.324219 328.074219 133.832031 327.976562 134.335938 C 327.875 134.839844 327.726562 135.328125 327.53125 135.800781 C 327.335938 136.277344 327.09375 136.726562 326.808594 137.152344 C 326.523438 137.578125 326.199219 137.972656 325.835938 138.335938 C 325.472656 138.699219 325.078125 139.023438 324.652344 139.308594 C 324.226562 139.59375 323.777344 139.835938 323.300781 140.03125 C 322.828125 140.226562 322.339844 140.375 321.835938 140.476562 C 321.332031 140.574219 320.824219 140.625 320.3125 140.625 C 319.800781 140.625 319.292969 140.574219 318.789062 140.476562 C 318.285156 140.375 317.796875 140.226562 317.324219 140.03125 C 316.847656 139.835938 316.398438 139.59375 315.972656 139.308594 C 315.546875 139.023438 315.152344 138.699219 314.789062 138.335938 C 314.425781 137.972656 314.101562 137.578125 313.816406 137.152344 C 313.53125 136.726562 313.289062 136.277344 313.09375 135.800781 C 312.898438 135.328125 312.75 134.839844 312.648438 134.335938 C 312.550781 133.832031 312.5 133.324219 312.5 132.8125 C 312.5 132.300781 312.550781 131.792969 312.648438 131.289062 C 312.75 130.785156 312.898438 130.296875 313.09375 129.824219 C 313.289062 129.347656 313.53125 128.898438 313.816406 128.472656 C 314.101562 128.046875 314.425781 127.652344 314.789062 127.289062 C 315.152344 126.925781 315.546875 126.601562 315.972656 126.316406 C 316.398438 126.03125 316.847656 125.789062 317.324219 125.59375 C 317.796875 125.398438 318.285156 125.25 318.789062 125.148438 C 319.292969 125.050781 319.800781 125 320.3125 125 C 320.824219 125 321.332031 125.050781 321.835938 125.148438 C 322.339844 125.25 322.828125 125.398438 323.300781 125.59375 C 323.777344 125.789062 324.226562 126.03125 324.652344 126.316406 C 325.078125 126.601562 325.472656 126.925781 325.835938 127.289062 C 326.199219 127.652344 326.523438 128.046875 326.808594 128.472656 C 327.09375 128.898438 327.335938 129.347656 327.53125 129.824219 C 327.726562 130.296875 327.875 130.785156 327.976562 131.289062 C 328.074219 131.792969 328.125 132.300781 328.125 132.8125 Z M 328.125 132.8125 " fill-opacity="1" fill-rule="nonzero"/><path fill="#595959" d="M 302.492188 65.0625 C 297.082031 59.6875 292.605469 53.625 289.0625 46.875 C 287.320312 50.191406 285.34375 53.359375 283.121094 56.378906 C 280.902344 59.398438 278.464844 62.230469 275.816406 64.878906 C 273.167969 67.527344 270.335938 69.964844 267.316406 72.183594 C 264.296875 74.40625 261.128906 76.382812 257.8125 78.125 C 261.128906 79.867188 264.296875 81.84375 267.316406 84.066406 C 270.335938 86.285156 273.167969 88.722656 275.816406 91.371094 C 278.464844 94.019531 280.902344 96.851562 283.121094 99.871094 C 285.34375 102.890625 287.320312 106.058594 289.0625 109.375 C 290.804688 106.058594 292.78125 102.890625 295.003906 99.871094 C 297.222656 96.851562 299.660156 94.019531 302.308594 91.371094 C 304.957031 88.71875 307.789062 86.285156 310.808594 84.066406 C 313.828125 81.84375 316.996094 79.867188 320.3125 78.125 C 313.71875 74.664062 307.777344 70.308594 302.492188 65.0625 Z M 302.492188 65.0625 " fill-opacity="1" fill-rule="nonzero"/><path stroke-linecap="butt" transform="matrix(7.8125, 0, 0, 7.8125, 0.0000045, 0.000000000000042633)" fill="none" stroke-linejoin="miter" d="M 32.484999 26.672 C 35.484999 28.672 38.584999 28.5 42.584999 26.5 C 42.603999 26.7435 42.607999 26.9875 42.598499 27.2315 C 42.588499 27.4755 42.563999 27.718 42.525499 27.959 C 42.486999 28.2 42.434499 28.4385 42.367499 28.6735 C 42.300999 28.908 42.220999 29.1385 42.126999 29.364 C 42.033499 29.5895 41.926499 29.8085 41.806999 30.0215 C 41.687499 30.2345 41.555499 30.4395 41.411499 30.637 C 41.267999 30.834499 41.112999 31.022499 40.946999 31.201999 C 40.780999 31.380999 40.604999 31.549499 40.418999 31.707999 " stroke="#f7f7f7" stroke-width="2" stroke-opacity="1" stroke-miterlimit="10"/></svg>